<svg width="221" height="221" viewBox="0 0 221 221" fill="none" xmlns="http://www.w3.org/2000/svg">
<path d="M21.8417 151.84C21.0209 148.537 18.9916 141.747 18.0796 138.765L28.3398 143.582L39.9681 141.174L32.786 156.657L36.206 176.268C34.382 173.86 28.9555 165.602 21.8417 151.84Z" fill="black" stroke="black" stroke-width="2"/>
<path d="M174.378 68.2313L179.85 46.8992L183.954 49.9958L194.898 62.7263L199.344 73.7364L193.872 71.3279L180.876 70.2957L170.616 72.0161L174.378 68.2313Z" fill="#F66C3E" stroke="#F66C3E" stroke-width="2"/>
<path d="M87.1654 207.578L134.021 211.019L114.526 213.083H96.0576L78.9572 209.299L65.9609 202.417L55.0166 196.912L58.0947 197.945H82.7193L97.4257 187.278L104.608 179.021L108.028 164.226L107.002 153.216L104.608 143.582L115.552 148.055L130.943 146.678L142.913 134.292L150.779 118.465V104.702L146.333 92.6599C142.571 89.3339 135.662 83.026 138.125 84.4023C140.587 85.7786 154.655 81.9938 161.381 79.9294L153.515 92.6599L154.883 112.96L167.195 128.099L158.987 131.54L135.047 146.678L129.916 159.065L149.411 170.419L155.909 166.29C158.303 163.079 163.912 154.661 167.195 146.678C170.479 138.696 169.703 131.654 168.905 129.131H171.984L191.478 132.916L210.288 119.497L201.738 140.485L197.292 138.421L178.824 140.485L169.931 148.055L170.958 153.216L175.062 161.129H164.459L155.909 168.355V174.892L178.824 187.278L176.772 189.343L111.79 150.463L110.422 151.495L109.054 174.892C107.572 178.677 104.061 187.072 101.872 190.375C99.1357 194.504 98.7937 194.504 93.3216 196.912C88.9439 198.839 87.3934 204.826 87.1654 207.578Z" fill="black" stroke="black" stroke-width="2"/>
<path d="M86.4814 36.9211V24.8788L93.6636 22.4703L102.556 20.4059L112.474 19.7178L122.734 20.4059L117.946 24.8788L110.764 35.2008L108.712 43.1143V55.8448L123.076 77.8651L86.4814 72.016L102.556 58.9414L106.318 51.372V40.0177V33.8245L104.95 29.6957L101.53 29.0076L95.0317 31.4161L86.4814 36.9211Z" fill="#F66C3E" stroke="#F66C3E" stroke-width="2"/>
<path d="M135.389 211.363L121.709 169.387C123.647 167.552 127.523 167.185 127.523 169.387C127.523 171.586 130.592 191.346 137.069 194.147C137.46 194.238 138.022 194.452 138.809 194.848C143.734 197.325 157.05 199.55 163.092 200.353L135.389 211.363Z" fill="black"/>
<path d="M135.389 211.363L121.709 169.387C123.647 167.552 127.523 167.185 127.523 169.387C127.523 171.589 130.601 191.407 137.099 194.16C137.783 197.027 133.884 192.371 138.809 194.848C143.734 197.325 157.05 199.55 163.092 200.353L135.389 211.363Z" stroke="black" stroke-width="2"/>
<path d="M17.0528 77.8653C17.0528 77.8653 6.7925 65.1348 6.7925 56.5331C6.7925 56.3106 6.79266 56.1012 6.79296 55.9044C6.57095 51.1317 6.78576 42.1625 11.2386 39.6738C17.3948 36.2332 21.8409 43.1145 21.8409 43.1145C21.8409 43.1145 41.3357 62.0382 43.0454 67.1992C44.7551 72.3602 50.9116 81.306 50.9116 81.306C50.9116 81.306 44.0711 74.0806 35.8632 73.3924C27.6554 72.7043 17.0528 77.8653 17.0528 77.8653Z" fill="black"/>
<path d="M17.0528 77.8653C17.0528 77.8653 6.7925 65.1348 6.7925 56.5331C6.7925 47.9314 7.02673 58.9416 7.02673 58.9416C7.02673 58.9416 5.08246 43.1145 11.2386 39.6738C17.3948 36.2332 21.8409 43.1145 21.8409 43.1145C21.8409 43.1145 41.3357 62.0382 43.0454 67.1992C44.7551 72.3602 50.9116 81.306 50.9116 81.306C50.9116 81.306 44.0711 74.0806 35.8632 73.3924C27.6554 72.7043 17.0528 77.8653 17.0528 77.8653Z" stroke="black" stroke-width="2"/>
<path d="M110.08 175.237L111.79 152.184L175.746 190.72L164.117 198.633H158.987L148.043 196.913L137.099 192.784L133.337 187.623L130.259 178.677L128.89 170.42L128.206 167.323H126.154H123.418L120.34 169.387L133.337 209.643L88.8755 206.203V203.794L90.5855 201.042L92.6376 198.633L100.162 194.848L103.24 190.72L110.08 175.237Z" fill="#F66C3E" stroke="#F66C3E" stroke-width="2"/>
<path d="M150.463 108.143C150.463 116.655 147.123 126.692 141.543 134.594C135.955 142.507 128.269 148.087 119.656 148.087C110.97 148.087 101.466 142.685 94.0835 134.994C86.7016 127.305 81.6675 117.562 81.6675 109.175C81.6675 100.745 85.6598 92.3868 91.9078 86.1223C98.154 79.8594 106.576 75.7686 115.332 75.7686C124.115 75.7686 132.915 79.6239 139.524 85.6396C146.135 91.6567 150.463 99.7481 150.463 108.143Z" fill="#FEFFFF" stroke="black" stroke-width="2"/>
<path d="M129.942 110.979C129.942 118.932 123.499 125.379 115.552 125.379C107.605 125.379 101.162 118.932 101.162 110.979C101.162 102.955 107.673 95.7244 115.552 95.7244C123.431 95.7244 129.942 102.955 129.942 110.979Z" fill="#FC794B" stroke="black" stroke-width="2"/>
<path d="M65.7599 104.942V104.961L65.7606 104.979C65.8462 107.296 65.964 109.305 66.0699 111.06C66.0779 111.192 66.0858 111.322 66.0935 111.451C66.1899 113.043 66.2725 114.408 66.3089 115.613C66.3881 118.234 66.2388 119.937 65.6297 121.338C65.0315 122.714 63.9323 123.925 61.8223 125.411C59.6989 126.907 56.6646 128.606 52.3029 131.008L52.281 131.02L52.2598 131.033C49.5029 132.735 47.2478 134.325 45.2987 135.745C44.7366 136.154 44.2035 136.547 43.6929 136.923C42.4204 137.861 41.2881 138.695 40.1965 139.428C37.1916 141.446 34.6584 142.582 30.9711 142.582C22.9338 142.582 15.5284 137.54 10.0828 130.201C4.64465 122.871 1.29492 113.416 1.29492 104.942C1.29492 88.0433 14.6077 74.3923 30.9711 74.3923C39.1811 74.3923 47.9064 77.8234 54.5773 83.4003C61.2472 88.9763 65.7599 96.6043 65.7599 104.942Z" fill="#FEFFFF" stroke="black" stroke-width="2"/>
<path d="M66.9863 123.97L69.3804 111.24H79.6406L80.3247 125.003L74.5105 123.626L70.4064 123.282L66.9863 123.97Z" fill="#F66C3E" stroke="#F66C3E" stroke-width="2"/>
<path d="M45.4656 105.391C45.4656 112.183 39.1372 117.809 32.4432 117.809C25.7493 117.809 19.4209 112.183 19.4209 105.391C19.4209 101.985 21.0016 98.5218 23.4688 95.8995C25.9377 93.2754 29.195 91.5959 32.4432 91.5959C35.6915 91.5959 38.9488 93.2754 41.4177 95.8995C43.8849 98.5218 45.4656 101.985 45.4656 105.391Z" fill="#FC794B" stroke="black" stroke-width="2"/>
<path d="M178.507 48.9636C178.507 67.9894 163.178 83.4025 144.281 83.4025C125.383 83.4025 110.054 67.9894 110.054 48.9636C110.054 29.9378 125.383 14.5247 144.281 14.5247C163.178 14.5247 178.507 29.9378 178.507 48.9636Z" fill="#FBA551" stroke="black" stroke-width="2"/>
<path d="M108.053 161.474C108.053 181.821 91.5073 198.321 71.0904 198.321C50.6734 198.321 34.1274 181.821 34.1274 161.474C34.1274 141.126 50.6734 124.626 71.0904 124.626C80.2701 124.626 89.1089 130.301 95.7422 136.079C103.541 142.872 108.053 150.452 108.053 161.474Z" fill="#FBA551" stroke="black" stroke-width="2"/>
<path d="M214.761 100.918C214.761 117.853 201.115 131.572 184.296 131.572C167.476 131.572 153.831 117.853 153.831 100.918C153.831 83.9824 167.476 70.2637 184.296 70.2637C201.115 70.2637 214.761 83.9824 214.761 100.918Z" fill="#F66C3E" stroke="black" stroke-width="2"/>
<path d="M77.6574 45.5552C76.7213 45.5552 75.5665 44.8858 74.2665 43.3829C73.0008 41.9197 71.761 39.8533 70.6408 37.5058C68.399 32.8076 66.7374 27.2007 66.2953 23.5889C65.8405 19.8739 65.3743 14.1319 65.7024 9.345C65.8674 6.93917 66.228 4.86498 66.838 3.42278C67.4528 1.96909 68.1745 1.4502 68.9632 1.4502C69.9723 1.4502 71.4028 2.14571 73.1031 3.61468C74.7582 5.0447 76.5068 7.06613 78.132 9.38351C81.4022 14.0464 84.0281 19.6965 84.4603 23.8147C84.8527 27.5545 85.3846 33.4265 84.4799 37.3868C83.8663 40.0729 82.7843 42.1443 81.5328 43.5253C80.2776 44.9102 78.9015 45.5552 77.6574 45.5552Z" fill="#10DEB7" stroke="black" stroke-width="2"/>
<path d="M61.0258 60.7106L60.9815 60.7017L60.9366 60.6968C55.1077 60.0675 47.8504 56.4356 44.6166 54.3166C42.9752 53.2411 41.1523 51.3579 39.3779 49.0118C37.6135 46.6788 35.94 43.9455 34.5834 41.2287C33.2238 38.506 32.2018 35.8387 31.7147 33.637C31.471 32.5351 31.3697 31.5869 31.4098 30.8262C31.4504 30.0553 31.6305 29.5716 31.8535 29.2926C32.0737 29.0173 32.5189 28.7273 33.3043 28.5064C34.0759 28.2894 35.0765 28.1672 36.2737 28.1467C38.6652 28.1056 41.6911 28.4717 44.9106 29.1431C51.37 30.4903 58.3715 33.0151 62.3277 35.6889C66.259 38.3459 69.9419 43.0528 72.5467 47.4263C73.8428 49.6026 74.8497 51.659 75.4748 53.2849C75.7883 54.1002 75.9963 54.7831 76.1012 55.3048C76.1537 55.5656 76.176 55.765 76.1786 55.9078C76.1805 56.0083 76.1721 56.0555 76.1705 56.0647C76.1377 56.146 76.1044 56.2301 76.07 56.3167C75.6288 57.4298 75.0261 58.9503 73.2435 60.0523C71.3019 61.2525 67.75 62.0635 61.0258 60.7106Z" fill="#10DEB7" stroke="black" stroke-width="2"/>
<path d="M69.591 89.03L69.5351 89.0273L69.4793 89.0308C68.4817 89.0945 67.2473 88.8042 65.8555 88.2334C64.4783 87.6686 63.029 86.8639 61.6278 85.9878C60.2293 85.1135 58.9019 84.1828 57.7642 83.3734C57.6012 83.2574 57.441 83.1431 57.2842 83.0313C56.371 82.3798 55.5749 81.8118 55.0277 81.4854C52.5467 80.0055 48.8356 76.9844 46.1588 73.8517C44.8175 72.2819 43.7909 70.7471 43.285 69.4154C42.776 68.0758 42.8676 67.1709 43.3541 66.5626C43.938 65.8324 45.2175 65.1922 47.1588 64.7802C49.0509 64.3786 51.383 64.233 53.8309 64.3261C58.7689 64.5138 63.9046 65.6596 66.6492 67.3727C72.2322 70.8575 74.5682 76.9052 76.0829 82.0352C76.4573 83.3035 76.7106 84.4051 76.7692 85.3416C76.8276 86.2745 76.6865 86.9488 76.3697 87.4434C76.0618 87.9242 75.4981 88.3747 74.4206 88.6818C73.3276 88.9933 71.7698 89.1367 69.591 89.03Z" fill="#10DEB7" stroke="black" stroke-width="2"/>
<path d="M82.7021 84.2237L82.7557 84.2354L82.8075 84.2528C84.5841 84.8516 86.7765 84.8112 89.2547 84.2775C91.7232 83.7459 94.3906 82.7434 97.0652 81.5127C99.7187 80.2918 103.7 78.04 106.808 75.618C108.366 74.403 109.652 73.186 110.448 72.0739C111.271 70.9233 111.399 70.1375 111.202 69.6279C110.986 69.0701 110.258 68.4643 108.765 67.975C107.331 67.5047 105.442 67.2259 103.356 67.1179C99.1834 66.902 94.4611 67.3802 91.5244 68.1662C86.3167 69.5599 83.4904 73.4523 80.8467 77.0933C80.5975 77.4366 80.3498 77.7776 80.102 78.1141L80.0523 78.1816C79.3586 79.1233 78.7879 79.898 78.4005 80.5841C77.9942 81.3035 77.9033 81.7362 77.9443 82.0079C77.9748 82.2095 78.114 82.5413 78.8459 82.9587C79.5924 83.3845 80.8109 83.8107 82.7021 84.2237Z" fill="#10DEB7" stroke="black" stroke-width="2"/>
<path d="M80.4131 64.1543C79.7396 63.3279 79.318 61.8514 79.2313 59.8319C79.1462 57.8513 79.3897 55.5112 79.8814 53.1256C80.3723 50.7439 81.1036 48.3511 81.9737 46.2703C82.85 44.1749 83.8407 42.4598 84.822 41.3829C86.9441 39.0543 91.0111 35.5307 94.9606 33.1365C96.9413 31.9357 98.8207 31.0637 100.367 30.7357C101.931 30.4042 102.872 30.6728 103.403 31.3241C104.093 32.1707 104.648 33.8862 104.935 36.2791C105.215 38.6183 105.221 41.4289 104.957 44.2932C104.693 47.1567 104.163 50.0406 103.389 52.528C102.608 55.0382 101.609 57.0456 100.467 58.2494C100.276 58.4508 100.085 58.6543 99.892 58.859C97.8454 61.0345 95.6752 63.3413 92.6175 64.5447C90.2343 65.4827 87.5511 65.9166 85.2415 65.8186C82.8672 65.7179 81.1608 65.072 80.4131 64.1543Z" fill="#10DEB7" stroke="black" stroke-width="2"/>
<path d="M132.398 159.805C131.774 159.04 131.53 157.86 131.864 156.238C132.197 154.621 133.086 152.69 134.539 150.624C137.438 146.499 142.461 142.006 149.172 138.63C153.972 136.215 157.636 133.873 160.427 132.088C161.624 131.323 162.66 130.661 163.556 130.14C165.109 129.236 166.164 128.799 166.973 128.755C167.581 128.722 168.139 128.908 168.773 129.59C168.719 137.974 166.827 149.256 162.229 157.184C157.449 165.428 154.351 168.55 151.1 169.83C150.197 170.185 148.755 170.055 146.863 169.392C145.022 168.746 142.96 167.67 140.954 166.433C138.953 165.2 137.04 163.826 135.504 162.608C133.945 161.371 132.837 160.345 132.398 159.805Z" fill="#10DEB7" stroke="black" stroke-width="2"/>
<path d="M169.952 150.507C172.303 145.766 179.809 137.431 195.134 139.072C203.091 139.923 207.558 141.446 210.547 143.17C212.736 144.433 214.134 145.786 215.607 147.213C215.969 147.563 216.335 147.918 216.719 148.277C211.932 154.516 206.563 158.368 198.267 161.931C191.248 164.945 185.022 162.89 180.857 161.515C180.079 161.258 179.373 161.025 178.747 160.853C176.448 160.222 174.267 158.353 172.615 156.152C171.045 154.059 170.107 151.872 169.952 150.507Z" fill="#10DEB7" stroke="black" stroke-width="2"/>
<path d="M76.9044 30.7281C76.5624 24.1908 76.9044 36.2332 76.9044 36.2332V39.6739" stroke="#000515" stroke-width="2"/>
<path d="M88.6758 55.6269C92.9537 50.6941 84.8666 59.5792 84.8666 59.5792L82.4859 62.0494" stroke="#000515" stroke-width="2"/>
<path d="M150.563 155.207C154.509 147.502 146.989 161.553 146.989 161.553L144.756 165.519" stroke="#000515" stroke-width="2"/>
<path d="M187.591 150.966C195.312 147.119 180.971 153.94 180.971 153.94L176.834 155.799" stroke="#000515" stroke-width="2"/>
<path d="M58.6293 49.3738C48.859 44.832 66.7278 53.4575 66.7278 53.4575L71.7894 56.0098" stroke="#000515" stroke-width="2"/>
<path d="M56.328 78.8364C45.188 74.0761 65.4216 83.4219 65.4216 83.4219L71.1051 86.2878" stroke="#000515" stroke-width="2"/>
<path d="M78.5483 84.3681L92.1943 85.2833L81.2094 101.386L80.993 101.704L81.0445 102.084L84.1226 124.793L84.1534 125.02L84.28 125.211L85.7554 127.437L81.2963 125.381L80.6404 111.194L80.5963 110.24H79.6414H69.3812H68.5846L68.4065 111.016L66.0471 121.302L66.6187 100.601L66.6265 100.318L66.4847 100.073L57.3607 84.2967L63.4212 87.6839L63.5831 87.7744L63.7668 87.8008L75.7371 89.5212L76.9394 89.694L76.8781 88.4809L74.8259 47.8809L74.8101 47.57L74.6207 47.3229L65.5673 35.5163C65.5552 35.357 65.5385 35.1362 65.518 34.8611C65.4727 34.2528 65.4086 33.3792 65.3339 32.3189C65.1845 30.1981 64.9924 27.332 64.8218 24.3487C64.7131 22.449 64.6132 20.5048 64.5386 18.6768L70.4748 38.5833L70.5293 38.766L70.6472 38.9159L77.1454 47.1735L77.821 48.0321L78.6166 47.2833L80.9664 45.0719L78.3194 58.0536L78.302 58.139L78.2996 58.2262L77.6156 83.3431L77.5895 84.3038L78.5483 84.3681ZM64.6497 9.75503L64.4173 14.6647C64.3833 12.5503 64.4219 10.9758 64.5509 10.2618C64.5817 10.0915 64.6147 9.92245 64.6497 9.75503Z" fill="black" stroke="black" stroke-width="2"/>
<path d="M180.868 183.24L177.983 182.215L179.708 184.745C180.196 185.463 180.496 186.023 180.655 186.446C180.797 186.821 180.8 187.013 180.793 187.082C180.787 187.085 180.78 187.088 180.772 187.091C180.656 187.139 180.401 187.188 179.949 187.157C179.054 187.098 177.755 186.759 176.158 186.163C174.581 185.574 172.779 184.758 170.901 183.795C167.142 181.866 163.136 179.374 160.084 176.992C158.555 175.798 157.295 174.654 156.426 173.642C155.993 173.136 155.675 172.684 155.47 172.295C155.261 171.898 155.199 171.623 155.199 171.452C155.199 168.815 157 166 160.95 163.921C164.863 161.86 170.771 160.603 178.609 161.086C179.479 161.418 180.318 161.738 181.129 162.047C188.267 164.768 193.163 166.634 196.369 168.463C198.149 169.479 199.315 170.434 200.04 171.44C200.747 172.419 201.08 173.507 201.08 174.892C201.08 176.027 200.36 177.267 198.885 178.517C197.432 179.747 195.393 180.856 193.128 181.73C190.869 182.601 188.437 183.217 186.23 183.491C183.997 183.768 182.106 183.679 180.868 183.24ZM180.817 187.068C180.817 187.068 180.817 187.069 180.816 187.069L180.817 187.068Z" fill="#10DEB7" stroke="black" stroke-width="2"/>
<path d="M176.675 174.57C185.004 172.349 169.599 176.157 169.599 176.157L165.177 177.149" stroke="#000515" stroke-width="2"/>
<path d="M11.1946 41.6866C9.71547 42.142 9.75565 43.6568 11.0555 43.9653C12.3553 44.2738 12.3298 44.5369 16.7659 43.0089C21.202 41.481 17.09 41.0696 14.4795 41.0549C14.4795 41.0549 12.6737 41.2312 11.1946 41.6866Z" fill="white" stroke="black" stroke-width="2"/>
<path d="M84.771 23.8466C86.253 23.0438 91.1324 21.094 98.7933 19.7178C107.549 17.5157 122.962 18.1121 128.548 19.0296" stroke="black" stroke-width="2"/>
<path d="M42.0206 184.87C40.8092 183.731 31.2986 171.669 27.6564 164.914C22.8996 157.391 17.2728 141.916 16.4314 136.392" stroke="black" stroke-width="2"/>
<path d="M180.533 186.935C178.343 190.549 161.569 204.364 146.675 208.955C139.661 211.117 130.113 213.447 119.997 213.772C111.16 214.056 104.301 213.844 99.8192 213.772C76.334 214.024 57.0685 198.633 57.0685 198.633C57.0685 198.633 52.9643 195.536 46.8082 190.375C40.652 185.214 33.4698 173.86 33.4698 173.86" stroke="black" stroke-width="2"/>
<path d="M177.456 41.8075C178.888 42.6973 183.006 45.9733 188.022 51.9595C194.295 58.4862 200.077 71.1636 202.081 76.4891" stroke="black" stroke-width="2"/>
<path d="M213.708 106.767C213.701 108.278 213.477 113.861 211.113 120.186C208.94 127.751 205.215 136.214 201.878 139.798" stroke="black" stroke-width="2"/>
<ellipse cx="116.919" cy="203.106" rx="3.76209" ry="3.78474" fill="black"/>
<ellipse cx="151.805" cy="189.343" rx="3.76209" ry="3.78474" fill="black"/>
<path d="M166.982 97.5232C168.53 97.9689 170.058 96.7163 170.631 96.2592C170.631 96.2592 168.987 93.8727 167.256 93.4452C165.525 93.0178 164.816 93.2386 164.816 93.2386C164.411 93.429 163.623 94.0477 163.711 94.999C164.023 95.8681 165.047 96.9661 166.982 97.5232Z" fill="black" stroke="black" stroke-width="2"/>
<path d="M167.619 110.245C169.151 109.747 169.726 107.85 169.948 107.149C169.948 107.149 167.261 106.09 165.587 106.705C163.914 107.321 163.447 107.902 163.447 107.902C163.216 108.287 162.904 109.243 163.505 109.983C164.245 110.53 165.704 110.867 167.619 110.245Z" fill="black" stroke="black" stroke-width="2"/>
<path d="M174.315 86.1018C174.766 87.6567 176.635 88.2883 177.325 88.5312C177.325 88.5312 178.453 85.8589 177.889 84.1583C177.325 82.4577 176.76 81.9718 176.76 81.9718C176.384 81.7289 175.443 81.3888 174.691 81.9718C174.127 82.7007 173.75 84.1583 174.315 86.1018Z" fill="black" stroke="black" stroke-width="2"/>
<path d="M188.159 85.3286C187.607 86.8501 188.74 88.4729 189.153 89.0798C189.153 89.0798 191.636 87.6002 192.183 85.8939C192.73 84.1877 192.562 83.4599 192.562 83.4599C192.402 83.0399 191.845 82.2052 190.895 82.2262C190.011 82.4768 188.85 83.4266 188.159 85.3286Z" fill="black" stroke="black" stroke-width="2"/>
<path d="M197.725 92.9876C196.171 93.412 195.508 95.2794 195.253 95.9685C195.253 95.9685 197.887 97.1548 199.588 96.6196C201.289 96.0845 201.783 95.5261 201.783 95.5261C202.031 95.1523 202.387 94.2127 201.822 93.4448C201.109 92.8632 199.667 92.457 197.725 92.9876Z" fill="black" stroke="black" stroke-width="2"/>
<path d="M199.596 105.603C198.193 104.809 196.418 105.672 195.756 105.984C195.756 105.984 196.807 108.688 198.393 109.507C199.978 110.325 200.719 110.276 200.719 110.276C201.157 110.185 202.066 109.766 202.198 108.82C202.095 107.902 201.351 106.595 199.596 105.603Z" fill="black" stroke="black" stroke-width="2"/>
<path d="M191.684 116.438C191.07 114.941 189.146 114.513 188.434 114.346C188.434 114.346 187.595 117.124 188.337 118.754C189.079 120.385 189.691 120.807 189.691 120.807C190.091 121.008 191.063 121.245 191.749 120.585C192.233 119.799 192.452 118.31 191.684 116.438Z" fill="black" stroke="black" stroke-width="2"/>
<path d="M178.456 118.129C179.034 116.617 177.929 114.975 177.527 114.361C177.527 114.361 175.019 115.797 174.442 117.494C173.866 119.19 174.022 119.921 174.022 119.921C174.175 120.344 174.717 121.188 175.667 121.183C176.555 120.948 177.733 120.019 178.456 118.129Z" fill="black" stroke="black" stroke-width="2"/>
<path d="M169.615 49.996C169.615 63.8668 158.138 75.1452 143.938 75.1452C129.738 75.1452 118.261 63.8668 118.261 49.996C118.261 36.1253 129.738 24.8469 143.938 24.8469C158.138 24.8469 169.615 36.1253 169.615 49.996Z" stroke="#AF6524" stroke-width="2"/>
<path d="M124.786 32.4487L162.407 67.8877" stroke="#AF6524" stroke-width="2"/>
<path d="M144.146 24.8523L144.417 74.8136" stroke="#AF6524" stroke-width="2"/>
<path d="M162.407 32.7925L126.154 67.8873" stroke="#AF6524" stroke-width="2"/>
<path d="M117.261 50.6841H169.931" stroke="#AF6524" stroke-width="2"/>
<path d="M97.1091 162.683C97.1091 176.836 85.3286 188.353 70.742 188.353C56.1554 188.353 44.375 176.836 44.375 162.683C44.375 148.53 56.1554 137.013 70.742 137.013C85.3286 137.013 97.1091 148.53 97.1091 162.683Z" stroke="#AF6524" stroke-width="2"/>
<path d="M51.0942 144.785L89.6888 180.931" stroke="#AF6524" stroke-width="2"/>
<path d="M70.9561 137.038L71.234 187.995" stroke="#AF6524" stroke-width="2"/>
<path d="M89.6882 145.137L52.4971 180.931" stroke="#AF6524" stroke-width="2"/>
<path d="M43.375 163.385H97.4073" stroke="#AF6524" stroke-width="2"/>
</svg>
