<svg width="220" height="220" viewBox="0 0 220 220" fill="none" xmlns="http://www.w3.org/2000/svg">
<circle cx="110" cy="110" r="110" fill="#FDF5E8"/>
<path d="M148.76 135.686L148.508 135.247L148.485 135.261L148.464 135.277L148.76 135.686ZM148.76 135.686C148.464 135.277 148.464 135.277 148.464 135.277L148.462 135.278L148.455 135.284L148.425 135.306L148.307 135.395C148.202 135.473 148.045 135.59 147.839 135.742C147.426 136.046 146.815 136.494 146.023 137.063C144.44 138.201 142.133 139.828 139.241 141.781C133.458 145.688 125.339 150.896 115.998 156.103C97.4504 166.442 74.1696 176.728 54.7867 176.903C54.8719 139.61 64.1798 108.152 75.5756 69.6378L75.8787 68.6137C76.2385 67.3974 76.5865 66.2064 76.9268 65.0418C78.9491 58.1212 80.6986 52.1339 83.0339 47.3349C85.7487 41.7559 89.2238 37.8527 94.7831 36.0156C102.247 33.5491 112.212 34.1781 122.081 36.5476C131.94 38.9143 141.628 42.9994 148.505 47.3663L148.507 47.3675C156.464 52.3712 165.576 61.8187 172.627 72.4255C179.687 83.0444 184.612 94.7218 184.324 104.176C184.29 105.302 183.755 106.649 182.768 108.172C181.786 109.685 180.39 111.323 178.705 113.023C175.336 116.423 170.862 120.026 166.382 123.323C161.905 126.619 157.436 129.601 154.085 131.759C152.409 132.838 151.014 133.71 150.038 134.313C149.55 134.614 149.167 134.848 148.906 135.007C148.864 135.033 148.825 135.056 148.789 135.078C148.714 135.123 148.654 135.159 148.609 135.187L148.533 135.232L148.514 135.244L148.509 135.247L148.508 135.247C148.508 135.247 148.508 135.247 148.76 135.686Z" fill="#FFBF31" stroke="#B1AC9B"/>
<path d="M174.474 117.221C174.474 117.221 171.557 100.642 149.583 99.6947C127.609 98.7477 136.724 78.6435 126.157 69.4285C115.59 60.2134 83.3586 68.5788 81.5086 52.0809C80.7133 44.9882 87.0213 34.4612 96.1477 34.1964C114.223 27.3216 137.164 36.4967 151.022 45.296C167.061 55.448 177.335 69.3799 185.832 96.5167C187.741 108.899 174.474 117.221 174.474 117.221Z" fill="#FFE6C3"/>
<path d="M95.0994 145.758C95.0994 152.412 89.8905 157.777 83.5006 157.777C77.1108 157.777 71.9019 152.412 71.9019 145.758C71.9019 139.104 77.1108 133.739 83.5006 133.739C89.8905 133.739 95.0994 139.104 95.0994 145.758Z" fill="#D5262F" stroke="#9F1500"/>
<path d="M86.1899 138.11C86.1899 138.624 85.1749 138.575 84.4106 138.575C83.6464 138.575 82.8291 139.088 82.8291 138.575C82.8291 138.062 83.6464 136.717 84.4106 136.717C85.1749 136.717 86.1899 137.597 86.1899 138.11Z" fill="#FE6B78"/>
<path d="M79.4687 140.197C79.4687 140.71 78.4537 140.661 77.6895 140.661C76.9252 140.661 76.1079 141.175 76.1079 140.661C76.1079 140.148 76.9252 138.803 77.6895 138.803C78.4537 138.803 79.4687 139.684 79.4687 140.197Z" fill="#FE6B78"/>
<path d="M86.1899 138.11C86.1899 138.624 85.1749 138.575 84.4106 138.575C83.6464 138.575 82.8291 139.088 82.8291 138.575C82.8291 138.062 83.6464 136.717 84.4106 136.717C85.1749 136.717 86.1899 137.597 86.1899 138.11Z" fill="#FE6B78"/>
<path d="M92.2382 149.934C92.2382 150.447 91.2233 150.398 90.459 150.398C89.6947 150.398 88.8774 150.912 88.8774 150.398C88.8774 149.885 89.6947 148.54 90.459 148.54C91.2233 148.54 92.2382 149.421 92.2382 149.934Z" fill="#FE6B78"/>
<path d="M84.8451 153.412C84.8451 153.925 83.8302 153.876 83.0659 153.876C82.3016 153.876 81.4844 154.389 81.4844 153.876C81.4844 153.363 82.3016 152.018 83.0659 152.018C83.8302 152.018 84.8451 152.898 84.8451 153.412Z" fill="#FE6B78"/>
<path d="M79.4687 147.847C79.4687 148.36 78.4537 148.312 77.6895 148.312C76.9252 148.312 76.1079 148.825 76.1079 148.312C76.1079 147.799 76.9252 146.453 77.6895 146.453C78.4537 146.453 79.4687 147.334 79.4687 147.847Z" fill="#FE6B78"/>
<path d="M92.9111 142.979C92.9111 143.492 91.8961 143.443 91.1318 143.443C90.3676 143.443 89.5503 143.957 89.5503 143.443C89.5503 142.93 90.3676 141.585 91.1318 141.585C91.8961 141.585 92.9111 142.466 92.9111 142.979Z" fill="#FE6B78"/>
<path d="M86.1899 144.37C86.1899 144.883 85.1749 144.835 84.4106 144.835C83.6464 144.835 82.8291 145.348 82.8291 144.835C82.8291 144.321 83.6464 142.976 84.4106 142.976C85.1749 142.976 86.1899 143.857 86.1899 144.37Z" fill="#FE6B78"/>
<path d="M126.629 96.8194C126.629 104.102 120.928 109.977 113.931 109.977C106.933 109.977 101.232 104.102 101.232 96.8194C101.232 89.5366 106.933 83.6621 113.931 83.6621C120.928 83.6621 126.629 89.5366 126.629 96.8194Z" fill="#D5262F" stroke="#9F1500"/>
<path d="M116.864 88.4764C116.864 89.0362 115.757 88.9832 114.923 88.9832C114.089 88.9832 113.198 89.5431 113.198 88.9832C113.198 88.4234 114.089 86.9558 114.923 86.9558C115.757 86.9558 116.864 87.9165 116.864 88.4764Z" fill="#FE6B78"/>
<path d="M109.531 90.7525C109.531 91.3123 108.424 91.2593 107.59 91.2593C106.756 91.2593 105.865 91.8192 105.865 91.2593C105.865 90.6995 106.756 89.2319 107.59 89.2319C108.424 89.2319 109.531 90.1926 109.531 90.7525Z" fill="#FE6B78"/>
<path d="M116.864 88.4764C116.864 89.0362 115.757 88.9832 114.923 88.9832C114.089 88.9832 113.198 89.5431 113.198 88.9832C113.198 88.4234 114.089 86.9558 114.923 86.9558C115.757 86.9558 116.864 87.9165 116.864 88.4764Z" fill="#FE6B78"/>
<path d="M123.464 101.375C123.464 101.935 122.356 101.882 121.523 101.882C120.689 101.882 119.797 102.442 119.797 101.882C119.797 101.322 120.689 99.8545 121.523 99.8545C122.356 99.8545 123.464 100.815 123.464 101.375Z" fill="#FE6B78"/>
<path d="M115.398 105.168C115.398 105.728 114.291 105.675 113.457 105.675C112.623 105.675 111.731 106.235 111.731 105.675C111.731 105.115 112.623 103.648 113.457 103.648C114.291 103.648 115.398 104.609 115.398 105.168Z" fill="#FE6B78"/>
<path d="M109.531 99.0987C109.531 99.6585 108.424 99.6055 107.59 99.6055C106.756 99.6055 105.865 100.165 105.865 99.6055C105.865 99.0457 106.756 97.5781 107.59 97.5781C108.424 97.5781 109.531 98.5388 109.531 99.0987Z" fill="#FE6B78"/>
<path d="M124.196 93.7876C124.196 94.3475 123.089 94.2945 122.255 94.2945C121.421 94.2945 120.53 94.8543 120.53 94.2945C120.53 93.7346 121.421 92.2671 122.255 92.2671C123.089 92.2671 124.196 93.2278 124.196 93.7876Z" fill="#FE6B78"/>
<path d="M116.864 95.305C116.864 95.8648 115.757 95.8118 114.923 95.8118C114.089 95.8118 113.198 96.3717 113.198 95.8118C113.198 95.252 114.089 93.7844 114.923 93.7844C115.757 93.7844 116.864 94.7451 116.864 95.305Z" fill="#FE6B78"/>
<path d="M147.291 127.93C138.557 132.008 106.501 156.807 106.965 157.898C107.893 160.081 138.328 138.332 147.291 131.724C158.126 127.645 171.612 117.853 171.125 115.788C168.684 112.437 157.789 125.321 147.291 127.93Z" fill="#F17C00"/>
<path d="M94.8603 117.576C94.524 118.723 90.3147 123.654 89.7968 123.914C88.1433 123.91 85.5399 122.78 87.8538 121.423C90.1676 120.066 88.1578 117.453 86.2589 116.857C81.8026 115.457 77.3699 117.118 78.7224 112.508C80.0748 107.897 82.9738 111.465 87.4302 112.864C89.3662 113.472 92.1594 111.969 90.236 109.383C88.3127 106.797 93.5436 108.077 94.2691 108.668C94.929 109.205 95.3277 115.983 94.8603 117.576Z" fill="#FCF7D1"/>
<path d="M138.09 112.002C139.148 111.974 144.492 114.334 144.859 114.724C145.331 116.209 145.133 118.871 143.33 117.185C141.527 115.498 139.915 118.053 139.961 119.929C140.069 124.332 142.737 127.833 138.483 127.945C134.229 128.057 136.385 124.429 136.277 120.027C136.23 118.114 134.167 116.039 132.552 118.509C130.937 120.98 130.506 115.916 130.792 115.095C131.053 114.348 136.62 112.041 138.09 112.002Z" fill="#FCF7D1"/>
<path d="M91.6917 90.7498C91.6917 96.8197 93.9505 105.166 88.0151 105.166C82.0797 105.166 77.2681 98.7115 77.2681 90.7498C77.2681 82.788 82.0797 76.3337 88.0151 76.3337C93.9505 76.3337 91.6917 84.6799 91.6917 90.7498Z" fill="#9C0F17"/>
<ellipse cx="85.7525" cy="80.8862" rx="1.41408" ry="1.13811" fill="#F8786A"/>
<ellipse cx="82.9238" cy="83.9208" rx="1.41408" ry="1.13811" fill="#F8786A"/>
<ellipse cx="85.7525" cy="101.372" rx="1.41408" ry="1.13811" fill="#F8786A"/>
<ellipse cx="82.9238" cy="96.8195" rx="1.41408" ry="1.13811" fill="#F8786A"/>
<ellipse cx="81.228" cy="92.2673" rx="1.41408" ry="1.13811" fill="#F8786A"/>
<ellipse cx="81.228" cy="87.7148" rx="1.41408" ry="1.13811" fill="#F8786A"/>
<path d="M112.998 130.536C111.4 136.377 107.03 143.77 112.741 145.443C118.452 147.116 124.78 142.262 126.876 134.602C128.972 126.941 126.042 119.375 120.331 117.702C114.62 116.029 114.596 124.696 112.998 130.536Z" fill="#9C0F17"/>
<ellipse cx="1.41778" cy="1.13532" rx="1.41778" ry="1.13532" transform="matrix(-0.959672 -0.281123 -0.263894 0.964552 122.969 122.023)" fill="#F8786A"/>
<ellipse cx="1.41778" cy="1.13532" rx="1.41778" ry="1.13532" transform="matrix(-0.959672 -0.281123 -0.263894 0.964552 124.892 125.74)" fill="#F8786A"/>
<ellipse cx="1.41778" cy="1.13532" rx="1.41778" ry="1.13532" transform="matrix(-0.959672 -0.281123 -0.263894 0.964552 117.577 141.734)" fill="#F8786A"/>
<ellipse cx="1.41778" cy="1.13532" rx="1.41778" ry="1.13532" transform="matrix(-0.959672 -0.281123 -0.263894 0.964552 121.496 138.152)" fill="#F8786A"/>
<ellipse cx="1.41778" cy="1.13532" rx="1.41778" ry="1.13532" transform="matrix(-0.959672 -0.281123 -0.263894 0.964552 124.327 134.249)" fill="#F8786A"/>
<ellipse cx="1.41778" cy="1.13532" rx="1.41778" ry="1.13532" transform="matrix(-0.959672 -0.281123 -0.263894 0.964552 125.526 129.869)" fill="#F8786A"/>
</svg>
