<svg width="220" height="220" viewBox="0 0 220 220" fill="none" xmlns="http://www.w3.org/2000/svg">
<ellipse cx="110" cy="109.949" rx="110" ry="109.949" fill="#FDF5E8"/>
<path d="M28.6243 98.3897C28.513 100.243 26.9193 101.656 25.0644 101.545C23.2094 101.433 21.7963 99.8402 21.9076 97.9867C22.019 96.1331 23.6126 94.7203 25.4676 94.8317C27.3226 94.943 28.7356 96.5362 28.6243 98.3897Z" fill="#86C10E" stroke="#629603"/>
<ellipse cx="0.772874" cy="0.772516" rx="0.772874" ry="0.772516" transform="matrix(0.998204 0.0599031 -0.0599588 0.998201 23.0908 95.7361)" fill="#BAF34E"/>
<path d="M24.2576 106.64C24.1463 108.494 22.5526 109.907 20.6977 109.795C18.8427 109.684 17.4296 108.091 17.5409 106.237C17.6523 104.384 19.2459 102.971 21.1009 103.082C22.9559 103.193 24.3689 104.787 24.2576 106.64Z" fill="#86C10E" stroke="#629603"/>
<ellipse cx="0.772874" cy="0.772516" rx="0.772874" ry="0.772516" transform="matrix(0.998204 0.0599031 -0.0599588 0.998201 18.7231 103.987)" fill="#BAF34E"/>
<path d="M18.532 111.714C18.4207 113.568 16.827 114.981 14.9721 114.869C13.1171 114.758 11.704 113.165 11.8154 111.311C11.9267 109.458 13.5203 108.045 15.3753 108.156C17.2303 108.268 18.6433 109.861 18.532 111.714Z" fill="#86C10E" stroke="#629603"/>
<ellipse cx="0.772874" cy="0.772516" rx="0.772874" ry="0.772516" transform="matrix(0.998204 0.0599031 -0.0599588 0.998201 12.998 109.061)" fill="#BAF34E"/>
<path d="M23.7942 114.352C23.6829 116.205 22.0892 117.618 20.2343 117.507C18.3793 117.395 16.9662 115.802 17.0776 113.949C17.1889 112.095 18.7825 110.682 20.6375 110.794C22.4925 110.905 23.9056 112.498 23.7942 114.352Z" fill="#86C10E" stroke="#629603"/>
<ellipse cx="0.772874" cy="0.772516" rx="0.772874" ry="0.772516" transform="matrix(0.998204 0.0599031 -0.0599588 0.998201 18.2603 111.698)" fill="#BAF34E"/>
<path d="M30.2298 84.556C30.1184 86.4095 28.5248 87.8223 26.6698 87.711C24.8149 87.5997 23.4018 86.0065 23.5131 84.1529C23.6244 82.2994 25.2181 80.8866 27.0731 80.9979C28.928 81.1092 30.3411 82.7024 30.2298 84.556Z" fill="#86C10E" stroke="#629603"/>
<ellipse cx="0.772874" cy="0.772516" rx="0.772874" ry="0.772516" transform="matrix(0.998204 0.0599031 -0.0599588 0.998201 24.6963 81.9023)" fill="#BAF34E"/>
<path d="M27.3758 80.5155C27.2644 82.369 25.6708 83.7818 23.8158 83.6705C21.9608 83.5591 20.5478 81.9659 20.6591 80.1124C20.7704 78.2588 22.3641 76.8461 24.2191 76.9574C26.074 77.0687 27.4871 78.6619 27.3758 80.5155Z" fill="#86C10E" stroke="#629603"/>
<ellipse cx="0.772874" cy="0.772516" rx="0.772874" ry="0.772516" transform="matrix(0.998204 0.0599031 -0.0599588 0.998201 21.8423 77.8616)" fill="#BAF34E"/>
<path d="M32.6975 107.922C32.5862 109.776 30.9926 111.189 29.1376 111.077C27.2826 110.966 25.8695 109.373 25.9809 107.519C26.0922 105.666 27.6859 104.253 29.5408 104.364C31.3958 104.476 32.8089 106.069 32.6975 107.922Z" fill="#86C10E" stroke="#629603"/>
<ellipse cx="0.772874" cy="0.772516" rx="0.772874" ry="0.772516" transform="matrix(0.998204 0.0599031 -0.0599588 0.998201 27.1636 105.268)" fill="#BAF34E"/>
<path d="M29.2405 113.906C29.1292 115.759 27.5355 117.172 25.6806 117.061C23.8256 116.949 22.4125 115.356 22.5239 113.503C22.6352 111.649 24.2288 110.236 26.0838 110.348C27.9388 110.459 29.3518 112.052 29.2405 113.906Z" fill="#86C10E" stroke="#629603"/>
<ellipse cx="0.772874" cy="0.772516" rx="0.772874" ry="0.772516" transform="matrix(0.998204 0.0599031 -0.0599588 0.998201 23.7075 111.252)" fill="#BAF34E"/>
<path d="M18.6096 123.328C18.4983 125.182 16.9047 126.595 15.0497 126.483C13.1947 126.372 11.7817 124.779 11.893 122.925C12.0043 121.072 13.598 119.659 15.4529 119.77C17.3079 119.881 18.721 121.475 18.6096 123.328Z" fill="#86C10E" stroke="#629603"/>
<ellipse cx="0.772874" cy="0.772516" rx="0.772874" ry="0.772516" transform="matrix(0.998204 0.0599031 -0.0599588 0.998201 13.0762 120.674)" fill="#BAF34E"/>
<path d="M27.867 123.884C27.7556 125.738 26.162 127.15 24.307 127.039C22.4521 126.928 21.039 125.335 21.1503 123.481C21.2617 121.627 22.8553 120.215 24.7103 120.326C26.5652 120.437 27.9783 122.031 27.867 123.884Z" fill="#86C10E" stroke="#629603"/>
<ellipse cx="0.772874" cy="0.772516" rx="0.772874" ry="0.772516" transform="matrix(0.998204 0.0599031 -0.0599588 0.998201 22.3335 121.23)" fill="#BAF34E"/>
<path d="M35.0882 119.674C34.9768 121.528 33.3832 122.94 31.5282 122.829C29.6733 122.718 28.2602 121.125 28.3715 119.271C28.4828 117.418 30.0765 116.005 31.9315 116.116C33.7864 116.227 35.1995 117.821 35.0882 119.674Z" fill="#86C10E" stroke="#629603"/>
<ellipse cx="0.772874" cy="0.772516" rx="0.772874" ry="0.772516" transform="matrix(0.998204 0.0599031 -0.0599588 0.998201 29.5542 117.02)" fill="#BAF34E"/>
<path d="M38.8235 109.063C38.7122 110.917 37.1185 112.329 35.2636 112.218C33.4086 112.107 31.9955 110.514 32.1069 108.66C32.2182 106.806 33.8118 105.394 35.6668 105.505C37.5218 105.616 38.9349 107.21 38.8235 109.063Z" fill="#86C10E" stroke="#629603"/>
<ellipse cx="0.772874" cy="0.772516" rx="0.772874" ry="0.772516" transform="matrix(0.998204 0.0599031 -0.0599588 0.998201 33.2886 106.409)" fill="#BAF34E"/>
<path d="M32.3572 126.475C32.2459 128.328 30.6522 129.741 28.7973 129.63C26.9423 129.518 25.5292 127.925 25.6406 126.072C25.7519 124.218 27.3455 122.805 29.2005 122.917C31.0555 123.028 32.4685 124.621 32.3572 126.475Z" fill="#86C10E" stroke="#629603"/>
<ellipse cx="0.772874" cy="0.772516" rx="0.772874" ry="0.772516" transform="matrix(0.998204 0.0599031 -0.0599588 0.998201 26.8228 123.821)" fill="#BAF34E"/>
<path d="M20.3211 133.492C20.2097 135.345 18.6161 136.758 16.7611 136.647C14.9062 136.535 13.4931 134.942 13.6044 133.088C13.7158 131.235 15.3094 129.822 17.1644 129.933C19.0193 130.045 20.4324 131.638 20.3211 133.492Z" fill="#86C10E" stroke="#629603"/>
<ellipse cx="0.772874" cy="0.772516" rx="0.772874" ry="0.772516" transform="matrix(0.998204 0.0599031 -0.0599588 0.998201 14.7871 130.838)" fill="#BAF34E"/>
<path d="M21.3538 142.066C21.2425 143.92 19.6488 145.333 17.7938 145.221C15.9389 145.11 14.5258 143.517 14.6371 141.663C14.7485 139.81 16.3421 138.397 18.1971 138.508C20.0521 138.62 21.4651 140.213 21.3538 142.066Z" fill="#86C10E" stroke="#629603"/>
<ellipse cx="0.772874" cy="0.772516" rx="0.772874" ry="0.772516" transform="matrix(0.998204 0.0599031 -0.0599588 0.998201 15.8198 139.413)" fill="#BAF34E"/>
<path d="M28.1287 132.412C28.0174 134.266 26.4237 135.679 24.5687 135.567C22.7138 135.456 21.3007 133.863 21.412 132.009C21.5234 130.156 23.117 128.743 24.972 128.854C26.827 128.966 28.24 130.559 28.1287 132.412Z" fill="#86C10E" stroke="#629603"/>
<ellipse cx="0.772874" cy="0.772516" rx="0.772874" ry="0.772516" transform="matrix(0.998204 0.0599031 -0.0599588 0.998201 22.5938 129.759)" fill="#BAF34E"/>
<path d="M38.6204 125.304C38.5091 127.157 36.9154 128.57 35.0604 128.459C33.2055 128.347 31.7924 126.754 31.9037 124.9C32.0151 123.047 33.6087 121.634 35.4637 121.745C37.3187 121.857 38.7317 123.45 38.6204 125.304Z" fill="#86C10E" stroke="#629603"/>
<ellipse cx="0.772874" cy="0.772516" rx="0.772874" ry="0.772516" transform="matrix(0.998204 0.0599031 -0.0599588 0.998201 33.0869 122.65)" fill="#BAF34E"/>
<path d="M36.2293 113.552C36.1179 115.405 34.5243 116.818 32.6693 116.707C30.8144 116.596 29.4013 115.002 29.5126 113.149C29.624 111.295 31.2176 109.882 33.0726 109.994C34.9275 110.105 36.3406 111.698 36.2293 113.552Z" fill="#86C10E" stroke="#629603"/>
<ellipse cx="0.772874" cy="0.772516" rx="0.772874" ry="0.772516" transform="matrix(0.998204 0.0599031 -0.0599588 0.998201 30.6963 110.898)" fill="#BAF34E"/>
<path d="M47.7556 115.018C47.6443 116.871 46.0507 118.284 44.1957 118.173C42.3407 118.062 40.9277 116.468 41.039 114.615C41.1503 112.761 42.744 111.349 44.5989 111.46C46.4539 111.571 47.867 113.164 47.7556 115.018Z" fill="#86C10E" stroke="#629603"/>
<ellipse cx="0.772874" cy="0.772516" rx="0.772874" ry="0.772516" transform="matrix(0.998204 0.0599031 -0.0599588 0.998201 42.2227 112.364)" fill="#BAF34E"/>
<path d="M42.032 120.091C41.9207 121.945 40.327 123.358 38.4721 123.246C36.6171 123.135 35.204 121.542 35.3154 119.688C35.4267 117.835 37.0203 116.422 38.8753 116.533C40.7303 116.645 42.1433 118.238 42.032 120.091Z" fill="#86C10E" stroke="#629603"/>
<ellipse cx="0.772874" cy="0.772516" rx="0.772874" ry="0.772516" transform="matrix(0.998204 0.0599031 -0.0599588 0.998201 36.4976 117.438)" fill="#BAF34E"/>
<path d="M23.4695 119.751C23.3582 121.605 21.7645 123.018 19.9096 122.906C18.0546 122.795 16.6415 121.202 16.7529 119.348C16.8642 117.495 18.4578 116.082 20.3128 116.193C22.1678 116.305 23.5808 117.898 23.4695 119.751Z" fill="#86C10E" stroke="#629603"/>
<ellipse cx="0.772874" cy="0.772516" rx="0.772874" ry="0.772516" transform="matrix(0.998204 0.0599031 -0.0599588 0.998201 17.9365 117.098)" fill="#BAF34E"/>
<path d="M23.8245 126.738C23.7132 128.591 22.1195 130.004 20.2645 129.893C18.4096 129.782 16.9965 128.188 17.1078 126.335C17.2192 124.481 18.8128 123.068 20.6678 123.18C22.5228 123.291 23.9358 124.884 23.8245 126.738Z" fill="#86C10E" stroke="#629603"/>
<ellipse cx="0.772874" cy="0.772516" rx="0.772874" ry="0.772516" transform="matrix(0.998204 0.0599031 -0.0599588 0.998201 18.291 124.084)" fill="#BAF34E"/>
<path d="M59.1892 118.025C59.0779 119.879 57.4843 121.292 55.6293 121.18C53.7743 121.069 52.3612 119.476 52.4726 117.622C52.5839 115.769 54.1776 114.356 56.0325 114.467C57.8875 114.579 59.3006 116.172 59.1892 118.025Z" fill="#86C10E" stroke="#629603"/>
<ellipse cx="0.772874" cy="0.772516" rx="0.772874" ry="0.772516" transform="matrix(0.998204 0.0599031 -0.0599588 0.998201 53.6553 115.372)" fill="#BAF34E"/>
<path d="M54.0203 113.846C53.909 115.699 52.3153 117.112 50.4604 117.001C48.6054 116.889 47.1923 115.296 47.3036 113.442C47.415 111.589 49.0086 110.176 50.8636 110.287C52.7186 110.399 54.1316 111.992 54.0203 113.846Z" fill="#86C10E" stroke="#629603"/>
<ellipse cx="0.772874" cy="0.772516" rx="0.772874" ry="0.772516" transform="matrix(0.998204 0.0599031 -0.0599588 0.998201 48.4868 111.192)" fill="#BAF34E"/>
<path d="M43.2195 113.198C43.1082 115.051 41.5145 116.464 39.6596 116.353C37.8046 116.241 36.3915 114.648 36.5029 112.795C36.6142 110.941 38.2078 109.528 40.0628 109.64C41.9178 109.751 43.3308 111.344 43.2195 113.198Z" fill="#86C10E" stroke="#629603"/>
<ellipse cx="0.772874" cy="0.772516" rx="0.772874" ry="0.772516" transform="matrix(0.998204 0.0599031 -0.0599588 0.998201 37.6855 110.543)" fill="#BAF34E"/>
<path d="M147.759 172.059C146.412 173.669 145.461 175.393 144.735 177.054C144.118 178.469 143.646 179.881 143.251 181.111C143.16 181.394 143.074 181.664 142.992 181.923C142.695 182.857 142.441 183.655 142.15 184.44C141.422 186.401 140.766 187.377 139.956 187.981C139.183 188.558 137.571 189.307 133.885 189.217L132.588 189.186L131.44 189.789C128.601 191.279 127.001 194.227 126.13 195.894C125.683 196.749 125.326 197.481 125.005 198.14C124.469 199.237 124.033 200.131 123.444 201.056C122.92 201.88 122.584 202.189 122.45 202.292C122.177 202.251 121.377 202.03 119.856 200.902L117.031 198.808L114.105 200.758C111.685 202.37 110.218 202.964 109.388 203.166C108.742 203.323 108.519 203.241 108.368 203.185L108.359 203.182C108.018 203.057 107.801 202.925 107.287 202.613C107.01 202.445 106.648 202.225 106.135 201.927C104.878 201.195 103.11 200.286 100.724 199.957L99.8884 199.842L99.0615 200.006C93.3022 201.155 89.905 201.404 87.9164 201.264C87.0145 201.2 86.5609 201.069 86.3661 200.989C86.3368 200.934 86.2942 200.847 86.2383 200.716C86.1599 200.533 86.0791 200.323 85.9624 200.013L85.9293 199.926C85.8274 199.654 85.6951 199.303 85.55 198.949C84.8319 197.199 83.5787 194.843 80.6594 193.14L79.514 192.471L78.1879 192.458C74.3746 192.421 72.4174 191.935 71.4602 191.509C70.7721 191.202 70.6732 190.977 70.595 190.8C70.5921 190.793 70.5892 190.786 70.5864 190.78C70.3809 190.318 70.2998 189.862 70.1084 188.788C70.0547 188.487 69.9924 188.137 69.9162 187.725C69.6281 186.165 69.1195 183.769 67.4743 181.539L66.35 180.016L64.4983 179.619C58.136 178.257 55.5533 176.776 54.6469 175.894C54.4622 175.714 54.3909 175.599 54.3689 175.56C54.3498 175.526 54.3498 175.517 54.3494 175.515C54.3479 175.507 54.305 175.28 54.4914 174.679C54.9042 173.349 55.8336 171.859 57.246 169.593C57.3784 169.381 57.5151 169.162 57.6561 168.935C59.0133 166.753 61.0036 163.531 61.4813 160.075L61.9802 156.464L58.6956 154.885C57.9357 154.519 57.2474 154.176 56.6252 153.855C56.9291 153.766 57.232 153.674 57.5275 153.581C58.7095 153.208 60.109 152.707 61.3681 151.999C62.5426 151.338 64.3022 150.109 65.2038 147.942L66.2235 145.491L64.7639 143.273C61.2204 137.89 60.6846 135.246 60.7387 134.226C60.7395 134.21 60.74 134.193 60.7405 134.176C60.7483 133.918 60.7588 133.568 62.098 132.859C62.8717 132.449 63.8576 132.061 65.1412 131.616C65.5197 131.484 65.9546 131.338 66.4174 131.183C67.3428 130.871 68.3799 130.523 69.301 130.18C72.0529 129.156 75.8961 127.48 78.2456 123.915L79.8393 121.498L78.5356 118.912C77.3496 116.56 77.0003 115.218 76.9001 114.572C77.5883 114.334 78.254 114.216 79.2167 114.044C79.8161 113.937 80.5306 113.81 81.4373 113.621C83.1539 113.262 86.4242 112.519 88.5907 109.924C91.8183 106.059 95.1152 102.564 98.3712 99.6284C100.717 97.5132 103.059 94.3917 105.197 91.3087C106.495 89.4385 107.879 87.3384 109.227 85.2935C110.096 83.9751 110.95 82.6796 111.755 81.4835C113.928 78.2578 115.885 75.5443 117.601 73.6974C117.968 73.302 118.294 72.9796 118.579 72.7199C118.658 72.8672 118.74 73.0294 118.827 73.2075C119.784 75.1741 120.729 78.0087 121.749 81.4225C122.063 82.4722 122.386 83.5839 122.716 84.7189C123.402 87.0839 124.119 89.5501 124.843 91.7677C125.892 94.9783 127.186 98.4257 128.9 100.889C130.344 102.963 132.411 104.791 134.05 106.222C134.245 106.393 134.437 106.56 134.625 106.724C136.197 108.094 137.535 109.259 138.648 110.504C139.87 111.872 140.419 112.915 140.593 113.756C140.733 114.435 140.74 115.492 139.731 117.23L136.859 122.176L142.145 124.361C143.827 125.056 145.138 125.656 146.151 126.17C146.124 126.195 146.098 126.219 146.072 126.244C145.229 127.045 144.116 128.254 143.391 129.911C142.605 131.711 142.395 133.766 142.992 135.927C143.552 137.951 144.74 139.798 146.273 141.515L146.59 141.87L146.968 142.159C152.009 146.009 153.179 148.539 153.421 149.852C153.65 151.089 153.293 152.427 151.931 154.723C151.601 155.278 151.244 155.842 150.846 156.464C150.803 156.531 150.76 156.598 150.716 156.667C150.365 157.214 149.981 157.814 149.615 158.414C148.802 159.749 147.889 161.389 147.308 163.23C146.704 165.143 146.435 167.347 146.978 169.736C147.16 170.534 147.422 171.308 147.759 172.059ZM119.723 71.8679C119.722 71.8683 119.715 71.8718 119.701 71.877C119.715 71.8701 119.723 71.8675 119.723 71.8679ZM117.777 71.4931C117.771 71.4877 117.768 71.4847 117.768 71.4846C117.768 71.4844 117.771 71.4871 117.777 71.4931ZM51.1624 155.556C51.1619 155.556 51.1712 155.55 51.1919 155.538C51.1734 155.551 51.163 155.556 51.1624 155.556ZM86.2434 200.923C86.2463 200.921 86.2709 200.933 86.3084 200.964C86.2592 200.94 86.2405 200.925 86.2434 200.923ZM122.559 202.299C122.56 202.299 122.551 202.3 122.534 202.3C122.55 202.298 122.559 202.298 122.559 202.299Z" fill="#A9B748" stroke="#C7D776" stroke-width="10"/>
<path d="M96.4475 130.837C90.0788 134.458 79.1564 135.095 78.9515 134.735C78.7467 134.375 88.4983 131.681 94.8669 128.06C101.236 124.439 104.054 120.496 105.064 122.27C106.073 124.043 102.816 127.216 96.4475 130.837Z" fill="#879523"/>
<path d="M104.52 112.142C100.186 114.607 92.6462 114.851 92.4976 114.59C92.349 114.329 99.0398 112.592 103.374 110.128C107.707 107.664 109.58 104.902 110.312 106.188C111.044 107.474 108.854 109.678 104.52 112.142Z" fill="#75871B"/>
<path d="M89.8417 162.883C86.5219 164.771 80.3392 164.243 80.1906 163.982C80.042 163.721 85.3755 162.756 88.6953 160.869C92.0151 158.981 93.2792 156.565 94.0112 157.851C94.7432 159.138 93.1615 160.995 89.8417 162.883Z" fill="#98A440"/>
<path d="M88.3315 179.63C86.2548 180.811 81.7363 179.337 81.5877 179.076C81.4392 178.815 85.1084 178.797 87.185 177.616C89.2617 176.435 89.7792 174.444 90.5112 175.73C91.2432 177.016 90.4081 178.45 88.3315 179.63Z" fill="#BAC664"/>
<path d="M89.365 146.369C84.3166 149.239 75.8199 150.027 75.6713 149.766C75.5228 149.505 83.1702 147.225 88.2186 144.354C93.267 141.484 95.5692 138.478 96.3012 139.764C97.0332 141.05 94.4134 143.498 89.365 146.369Z" fill="#7D8F21"/>
<path d="M119.967 133.527C124.384 139.37 134.164 144.272 134.495 144.023C134.825 143.773 126.934 137.445 122.518 131.601C118.101 125.757 117.072 121.022 115.444 122.252C113.815 123.482 115.551 127.683 119.967 133.527Z" fill="#CAD76D"/>
<path d="M119.949 113.165C122.954 117.142 129.783 120.346 130.023 120.165C130.262 119.984 124.804 115.745 121.799 111.768C118.793 107.792 118.166 104.514 116.985 105.406C115.803 106.298 116.943 109.189 119.949 113.165Z" fill="#CAD76D"/>
<path d="M113.353 165.572C115.656 168.618 121.543 170.577 121.783 170.396C122.023 170.215 117.506 167.221 115.203 164.175C112.901 161.129 112.696 158.41 111.515 159.302C110.334 160.194 111.051 162.525 113.353 165.572Z" fill="#CAD76D"/>
<path d="M108.115 181.55C109.555 183.456 114.288 183.888 114.528 183.707C114.768 183.526 111.405 182.059 109.965 180.153C108.525 178.248 108.837 176.214 107.656 177.106C106.475 177.998 106.675 179.645 108.115 181.55Z" fill="#BAC664"/>
<path d="M120.326 150.592C123.827 155.224 131.319 159.307 131.559 159.126C131.799 158.945 125.677 153.827 122.176 149.195C118.675 144.563 117.75 140.892 116.569 141.784C115.387 142.676 116.825 145.96 120.326 150.592Z" fill="#CAD76D"/>
<path d="M197.049 82.169C194.143 92.6393 185.795 104.465 177.072 113.391C172.715 117.849 168.286 121.562 164.426 124.009C162.496 125.233 160.722 126.131 159.182 126.65C157.631 127.173 156.373 127.293 155.441 127.034C154.51 126.776 153.493 126.026 152.433 124.779C151.381 123.541 150.323 121.858 149.299 119.815C147.252 115.731 145.369 110.268 143.933 104.203C141.056 92.0613 139.995 77.6273 142.9 67.157C145.813 56.66 151.503 48.0247 158.325 42.5422C165.147 37.0591 173.064 34.752 180.479 36.8076C187.894 38.8633 193.491 44.917 196.513 53.1292C199.534 61.3406 199.961 71.672 197.049 82.169Z" fill="#DEA33D" stroke="#C99B4D"/>
<path d="M196.375 82.1507C190.476 103.41 160.535 125.758 159.492 125.469C158.45 125.18 183.773 101.552 189.672 80.2924C195.572 59.033 186.093 42.6551 187.944 43.1682C189.795 43.6814 202.275 60.8912 196.375 82.1507Z" fill="#B6540E"/>
<path d="M136.565 162.487L136.804 162.465L136.936 162.265C138.878 159.322 140.388 155.421 141.729 151.313C142.394 149.275 143.021 147.175 143.638 145.105L143.656 145.046C144.28 142.955 144.895 140.898 145.534 138.954C146.817 135.053 148.179 131.677 149.861 129.465C150.697 128.364 151.592 127.58 152.566 127.152C153.53 126.729 154.609 126.638 155.857 126.984C157.045 127.314 157.786 128.041 158.221 129.123C158.668 130.234 158.794 131.73 158.675 133.558C158.471 136.718 157.556 140.681 156.562 144.986C156.405 145.663 156.247 146.349 156.089 147.041C154.935 152.103 153.816 157.494 153.769 162.372C153.723 167.209 154.731 171.636 157.903 174.736C159.122 177.726 158.667 180.581 157.392 182.376C156.749 183.282 155.904 183.91 154.963 184.175C154.028 184.438 152.96 184.353 151.838 183.767C150.7 183.173 149.76 182.209 148.748 181.1C148.641 180.982 148.532 180.862 148.423 180.742C147.521 179.746 146.547 178.671 145.356 177.785C144.005 176.779 142.368 176.009 140.202 175.803C138.077 175.6 135.474 175.944 132.165 177.097C128.203 175.914 125.901 171.772 127.011 167.771C127.572 165.749 128.636 164.58 130.183 163.835C131.771 163.069 133.885 162.74 136.565 162.487Z" fill="#EFE1A2" stroke="#DDCE7B"/>
<path d="M149.201 144.316C147.193 153.714 152.477 167.995 153.158 168.14C153.839 168.286 152.449 154.835 154.457 145.438C156.465 136.041 161.016 131.111 157.66 130.395C154.304 129.678 151.208 134.919 149.201 144.316Z" fill="#E3CF76"/>
<path d="M112.986 181.689C111.025 182.439 109.353 183.48 107.91 184.578C106.68 185.512 105.58 186.515 104.635 187.396C104.418 187.599 104.212 187.793 104.013 187.979C103.298 188.65 102.688 189.223 102.05 189.767C100.459 191.124 99.4091 191.657 98.4067 191.79C97.4504 191.917 95.6783 191.786 92.5044 189.912L91.3871 189.252L90.0898 189.219C86.884 189.136 84.0501 190.931 82.4768 191.962C81.6691 192.491 81.0005 192.956 80.3988 193.375C79.3961 194.072 78.5791 194.64 77.6142 195.161C76.7553 195.625 76.3106 195.731 76.1432 195.756C75.9244 195.587 75.3342 195.004 74.557 193.28L73.1117 190.074L69.6045 190.351C66.7051 190.579 65.1345 190.383 64.3117 190.155C63.6716 189.977 63.5175 189.798 63.4129 189.676L63.4069 189.669C63.1696 189.393 63.0448 189.173 62.7479 188.65C62.5886 188.369 62.3797 188 62.0774 187.489C61.3369 186.238 60.2352 184.582 58.3121 183.132L57.6388 182.624L56.8361 182.365C51.2471 180.562 48.1595 179.125 46.4921 178.033C45.7366 177.538 45.4043 177.204 45.273 177.039C45.2745 176.976 45.2798 176.88 45.2946 176.738C45.3155 176.54 45.3472 176.318 45.3965 175.99L45.4104 175.897C45.4537 175.611 45.5097 175.239 45.5555 174.86C45.7821 172.982 45.8367 170.315 44.1182 167.404L43.4438 166.262L42.2917 165.605C38.9802 163.715 37.5087 162.337 36.8812 161.498C36.4302 160.895 36.4534 160.651 36.4718 160.458C36.4725 160.451 36.4731 160.444 36.4738 160.437C36.5198 159.933 36.6711 159.495 37.0279 158.464C37.128 158.175 37.2442 157.839 37.3787 157.442C37.8877 155.94 38.6121 153.6 38.2629 150.852L38.0242 148.973L36.6003 147.725C31.7095 143.435 30.1768 140.884 29.8159 139.673C29.7423 139.426 29.736 139.291 29.736 139.246C29.736 139.206 29.7403 139.199 29.7409 139.197C29.7437 139.188 29.8172 138.969 30.273 138.535C31.2821 137.575 32.8208 136.726 35.1587 135.436C35.378 135.315 35.6043 135.19 35.8379 135.061C38.0874 133.817 41.3958 131.974 43.4983 129.189L45.6941 126.28L43.5964 123.301C43.1105 122.611 42.6764 121.975 42.2896 121.391C42.5993 121.461 42.9093 121.529 43.2136 121.592C44.4277 121.842 45.8939 122.087 47.3387 122.082C48.6866 122.077 50.8221 121.862 52.6656 120.409L54.7507 118.766L54.5577 116.119C54.0891 109.692 54.9105 107.122 55.4555 106.258C55.4641 106.244 55.4726 106.23 55.4813 106.215C55.6146 105.993 55.795 105.692 57.3102 105.725C58.1855 105.744 59.2352 105.886 60.5734 106.123C60.9679 106.192 61.4188 106.276 61.8987 106.366C62.8585 106.545 63.9342 106.746 64.9057 106.896C67.8083 107.342 71.9815 107.751 75.7709 105.784L78.3403 104.45L78.4628 101.558C78.5743 98.9248 78.9241 97.5828 79.152 96.9699C79.8689 97.0975 80.5079 97.3183 81.4322 97.6377C82.0076 97.8365 82.6936 98.0735 83.5778 98.35C85.2517 98.8735 88.4698 99.8179 91.6269 98.6078C96.3301 96.8051 100.913 95.3598 105.188 94.3831C108.268 93.6793 111.835 92.0947 115.205 90.4447C117.25 89.4437 119.483 88.2845 121.657 87.1557C123.059 86.4279 124.436 85.7128 125.723 85.0609C129.193 83.3031 132.226 81.8873 134.624 81.1105C135.137 80.9445 135.578 80.822 135.953 80.7341C135.95 80.9004 135.943 81.0817 135.932 81.2788C135.809 83.4626 135.251 86.3978 134.477 89.8757C134.239 90.9453 133.979 92.0734 133.713 93.2251C133.16 95.6247 132.582 98.1269 132.134 100.416C131.484 103.73 130.932 107.371 131.228 110.357C131.477 112.871 132.391 115.474 133.123 117.523C133.211 117.767 133.297 118.006 133.381 118.241C134.086 120.203 134.686 121.873 135.05 123.502C135.45 125.292 135.421 126.47 135.162 127.288C134.953 127.951 134.443 128.877 132.714 129.903L127.796 132.822L131.346 137.305C132.476 138.732 133.329 139.895 133.962 140.837C133.926 140.846 133.89 140.855 133.855 140.864C132.728 141.152 131.167 141.665 129.726 142.759C128.162 143.947 126.978 145.639 126.445 147.817C125.946 149.856 126.084 152.048 126.585 154.294L126.688 154.758L126.878 155.195C129.401 161.013 129.189 163.791 128.76 165.056C128.356 166.249 127.391 167.244 125.083 168.585C124.524 168.909 123.937 169.227 123.286 169.576C123.216 169.614 123.145 169.652 123.074 169.69C122.501 169.997 121.873 170.333 121.26 170.68C119.9 171.449 118.303 172.436 116.898 173.76C115.438 175.136 114.128 176.928 113.438 179.279C113.207 180.064 113.058 180.868 112.986 181.689ZM137.369 80.5467C137.369 80.547 137.36 80.5464 137.345 80.544C137.362 80.5452 137.369 80.5464 137.369 80.5467ZM135.851 79.2702C135.848 79.2624 135.847 79.2583 135.847 79.2582C135.847 79.2581 135.849 79.2619 135.851 79.2702ZM36.6928 120.215C36.6924 120.215 36.7035 120.214 36.7272 120.214C36.7051 120.216 36.6932 120.216 36.6928 120.215ZM45.1982 176.921C45.2016 176.921 45.2172 176.943 45.2349 176.989C45.2036 176.944 45.1947 176.921 45.1982 176.921ZM76.2356 195.816C76.2354 195.816 76.2277 195.813 76.2127 195.804C76.2284 195.811 76.2358 195.815 76.2356 195.816Z" fill="#A9B748" stroke="#C7D776" stroke-width="10"/>
<path d="M88.2864 120.696C80.9596 120.754 71.1124 115.988 71.1091 115.574C71.1057 115.16 80.9339 117.56 88.2607 117.501C95.5875 117.442 99.9713 115.373 99.9878 117.413C100.004 119.453 95.6132 120.637 88.2864 120.696Z" fill="#879523"/>
<path d="M104.453 108.305C99.467 108.345 92.7643 104.885 92.7619 104.585C92.7594 104.284 99.4483 106.028 104.434 105.988C109.42 105.948 112.402 104.449 112.414 105.928C112.426 107.408 109.439 108.265 104.453 108.305Z" fill="#75871B"/>
<path d="M66.8911 145.458C63.0718 145.489 57.9307 142.016 57.9283 141.715C57.9259 141.415 63.0532 143.172 66.8725 143.141C70.6917 143.11 72.9736 141.617 72.9855 143.096C72.9974 144.576 70.7104 145.427 66.8911 145.458Z" fill="#98A440"/>
<path d="M57.4053 159.345C55.0163 159.364 51.7897 155.876 51.7873 155.576C51.7849 155.275 54.9976 157.047 57.3867 157.028C59.7758 157.009 61.1987 155.522 61.2106 157.002C61.2225 158.481 59.7944 159.326 57.4053 159.345Z" fill="#BAC664"/>
<path d="M74.528 130.806C68.7201 130.853 60.9168 127.401 60.9144 127.101C60.912 126.801 68.7014 128.536 74.5093 128.489C80.3173 128.442 83.7934 126.939 83.8053 128.419C83.8173 129.898 80.3359 130.76 74.528 130.806Z" fill="#7D8F21"/>
<path d="M107.51 134.504C108.517 141.758 114.666 150.803 115.076 150.746C115.487 150.69 111.683 141.319 110.677 134.065C109.67 126.811 111.081 122.175 109.059 122.455C107.037 122.735 106.504 127.25 107.51 134.504Z" fill="#CAD76D"/>
<path d="M117.425 116.716C118.11 121.653 122.51 127.778 122.807 127.737C123.105 127.696 120.407 121.334 119.722 116.398C119.037 111.462 120.087 108.294 118.621 108.498C117.154 108.701 116.74 111.78 117.425 116.716Z" fill="#CAD76D"/>
<path d="M86.109 159.262C86.6338 163.043 90.8189 167.622 91.1165 167.581C91.4141 167.54 88.9303 162.725 88.4056 158.943C87.8809 155.162 89.0275 152.688 87.5612 152.891C86.0948 153.095 85.5843 155.48 86.109 159.262Z" fill="#CAD76D"/>
<path d="M73.7423 170.661C74.0705 173.026 77.9926 175.71 78.2902 175.669C78.5878 175.628 76.3671 172.708 76.0388 170.343C75.7106 167.977 76.9753 166.354 75.5089 166.557C74.0425 166.76 73.4141 168.295 73.7423 170.661Z" fill="#BAC664"/>
<path d="M99.5029 149.579C100.301 155.33 104.852 162.545 105.149 162.504C105.447 162.462 102.597 155.011 101.799 149.261C101.001 143.511 101.984 139.855 100.518 140.058C99.0513 140.261 98.705 143.829 99.5029 149.579Z" fill="#CAD76D"/>
<path d="M148.67 63.836C148.67 74.7016 143.787 88.3269 137.769 99.2588C134.763 104.719 131.487 109.48 128.423 112.869C126.89 114.564 125.421 115.903 124.075 116.815C122.721 117.733 121.54 118.185 120.573 118.185C119.607 118.185 118.426 117.733 117.072 116.815C115.726 115.903 114.257 114.564 112.724 112.869C109.66 109.48 106.384 104.719 103.378 99.2588C97.3594 88.3269 92.4771 74.7016 92.4771 63.836C92.4771 52.9427 95.6515 43.1014 100.759 35.996C105.867 28.8897 112.879 24.5515 120.573 24.5515C128.268 24.5515 135.28 28.8897 140.388 35.996C145.495 43.1014 148.67 52.9427 148.67 63.836Z" fill="#DEA33D" stroke="#C99B4D"/>
<path d="M148.016 63.9983C148.016 86.0604 125.14 115.594 124.058 115.594C122.977 115.594 141.06 86.0604 141.06 63.9983C141.06 41.9363 127.547 28.6865 129.468 28.6865C131.388 28.6865 148.016 41.9363 148.016 63.9983Z" fill="#B6540E"/>
<path d="M111.863 157.391L112.087 157.306L112.161 157.078C113.245 153.723 113.658 149.561 113.851 145.244C113.947 143.102 113.99 140.911 114.031 138.752L114.033 138.69C114.075 136.509 114.117 134.362 114.213 132.318C114.406 128.216 114.816 124.599 115.845 122.018C116.357 120.734 117.009 119.74 117.834 119.067C118.65 118.402 119.665 118.026 120.96 118.026C122.193 118.026 123.101 118.529 123.809 119.455C124.537 120.407 125.059 121.815 125.433 123.608C126.082 126.707 126.259 130.771 126.452 135.185C126.483 135.879 126.513 136.582 126.546 137.292C126.788 142.478 127.151 147.972 128.411 152.684C129.66 157.358 131.815 161.354 135.7 163.494C137.675 166.05 138 168.922 137.251 170.992C136.873 172.037 136.227 172.869 135.391 173.375C134.56 173.879 133.509 174.082 132.271 173.817C131.015 173.548 129.852 172.871 128.58 172.072C128.445 171.987 128.309 171.901 128.171 171.814C127.035 171.095 125.81 170.32 124.425 169.784C122.854 169.176 121.07 168.871 118.928 169.251C116.827 169.624 114.41 170.65 111.53 172.645C107.396 172.563 104.07 169.187 104.07 165.036C104.07 162.937 104.783 161.526 106.073 160.395C107.399 159.233 109.348 158.351 111.863 157.391Z" fill="#EFE1A2" stroke="#DDCE7B"/>
<path d="M119.181 136.505C119.759 146.097 128.67 158.448 129.365 158.406C130.06 158.364 125.124 145.774 124.546 136.182C123.968 126.59 127.035 120.624 123.61 120.83C120.184 121.037 118.603 126.914 119.181 136.505Z" fill="#E3CF76"/>
<path d="M58.4541 94.4821C56.179 103.976 56.8798 117.946 46.8186 115.537C36.7575 113.128 31.0204 101.081 34.0045 88.6285C36.9886 76.176 47.5639 68.034 57.625 70.4428C67.6862 72.8516 60.7291 84.9886 58.4541 94.4821Z" fill="#9C0F17"/>
<ellipse cx="2.46476" cy="1.83044" rx="2.46476" ry="1.83044" transform="matrix(0.972516 0.232836 -0.233042 0.972467 50.1128 74.2913)" fill="#F8786A"/>
<ellipse cx="2.46476" cy="1.83044" rx="2.46476" ry="1.83044" transform="matrix(0.972516 0.232836 -0.233042 0.972467 44.1807 77.8901)" fill="#F8786A"/>
<ellipse cx="2.46476" cy="1.83044" rx="2.46476" ry="1.83044" transform="matrix(0.972516 0.232836 -0.233042 0.972467 42.4351 106.332)" fill="#F8786A"/>
<ellipse cx="2.46476" cy="1.83044" rx="2.46476" ry="1.83044" transform="matrix(0.972516 0.232836 -0.233042 0.972467 39.3467 98.0632)" fill="#F8786A"/>
<ellipse cx="2.46476" cy="1.83044" rx="2.46476" ry="1.83044" transform="matrix(0.972516 0.232836 -0.233042 0.972467 38.1782 90.2561)" fill="#F8786A"/>
<ellipse cx="2.46476" cy="1.83044" rx="2.46476" ry="1.83044" transform="matrix(0.972516 0.232836 -0.233042 0.972467 39.8843 83.1353)" fill="#F8786A"/>
<path d="M56.1551 93.9321C53.88 103.426 46.923 115.563 56.9841 117.971C67.0452 120.38 77.6205 112.238 80.6046 99.7857C83.5887 87.3332 77.8516 75.2858 67.7905 72.877C57.7294 70.4682 58.4301 84.4385 56.1551 93.9321Z" fill="#9C0F17"/>
<ellipse cx="2.46476" cy="1.83044" rx="2.46476" ry="1.83044" transform="matrix(-0.972516 -0.232836 -0.233042 0.972467 72.7427 79.7087)" fill="#F8786A"/>
<ellipse cx="2.46476" cy="1.83044" rx="2.46476" ry="1.83044" transform="matrix(-0.972516 -0.232836 -0.233042 0.972467 76.4004 85.6038)" fill="#F8786A"/>
<ellipse cx="2.46476" cy="1.83044" rx="2.46476" ry="1.83044" transform="matrix(-0.972516 -0.232836 -0.233042 0.972467 65.0649 111.75)" fill="#F8786A"/>
<ellipse cx="2.46476" cy="1.83044" rx="2.46476" ry="1.83044" transform="matrix(-0.972516 -0.232836 -0.233042 0.972467 71.5664 105.777)" fill="#F8786A"/>
<ellipse cx="2.46476" cy="1.83044" rx="2.46476" ry="1.83044" transform="matrix(-0.972516 -0.232836 -0.233042 0.972467 76.146 99.3459)" fill="#F8786A"/>
<ellipse cx="2.46476" cy="1.83044" rx="2.46476" ry="1.83044" transform="matrix(-0.972516 -0.232836 -0.233042 0.972467 77.8525 92.2256)" fill="#F8786A"/>
<path d="M60.4257 66.3573C58.1507 75.8509 58.8515 89.8212 48.7903 87.4124C38.7292 85.0036 32.9921 72.9562 35.9762 60.5037C38.9603 48.0513 49.5356 39.9093 59.5967 42.3181C69.6578 44.7269 62.7008 56.8638 60.4257 66.3573Z" fill="#9C0F17"/>
<ellipse cx="2.46476" cy="1.83044" rx="2.46476" ry="1.83044" transform="matrix(0.972516 0.232836 -0.233042 0.972467 52.0854 46.1663)" fill="#F8786A"/>
<ellipse cx="2.46476" cy="1.83044" rx="2.46476" ry="1.83044" transform="matrix(0.972516 0.232836 -0.233042 0.972467 46.1523 49.7651)" fill="#F8786A"/>
<ellipse cx="2.46476" cy="1.83044" rx="2.46476" ry="1.83044" transform="matrix(0.972516 0.232836 -0.233042 0.972467 44.4067 78.2068)" fill="#F8786A"/>
<ellipse cx="2.46476" cy="1.83044" rx="2.46476" ry="1.83044" transform="matrix(0.972516 0.232836 -0.233042 0.972467 41.3184 69.9385)" fill="#F8786A"/>
<ellipse cx="2.46476" cy="1.83044" rx="2.46476" ry="1.83044" transform="matrix(0.972516 0.232836 -0.233042 0.972467 40.1504 62.1311)" fill="#F8786A"/>
<ellipse cx="2.46476" cy="1.83044" rx="2.46476" ry="1.83044" transform="matrix(0.972516 0.232836 -0.233042 0.972467 41.8569 55.0107)" fill="#F8786A"/>
<path d="M58.1277 65.8076C55.8527 75.3011 48.8956 87.4381 58.9568 89.8469C69.0179 92.2557 79.5932 84.1137 82.5773 71.6612C85.5614 59.2087 79.8243 47.1613 69.7632 44.7525C59.702 42.3437 60.4028 56.314 58.1277 65.8076Z" fill="#9C0F17"/>
<ellipse cx="2.46476" cy="1.83044" rx="2.46476" ry="1.83044" transform="matrix(-0.972516 -0.232836 -0.233042 0.972467 74.7158 51.5842)" fill="#F8786A"/>
<ellipse cx="2.46476" cy="1.83044" rx="2.46476" ry="1.83044" transform="matrix(-0.972516 -0.232836 -0.233042 0.972467 78.373 57.4792)" fill="#F8786A"/>
<ellipse cx="2.46476" cy="1.83044" rx="2.46476" ry="1.83044" transform="matrix(-0.972516 -0.232836 -0.233042 0.972467 67.0371 83.6257)" fill="#F8786A"/>
<ellipse cx="2.46476" cy="1.83044" rx="2.46476" ry="1.83044" transform="matrix(-0.972516 -0.232836 -0.233042 0.972467 73.5391 77.6528)" fill="#F8786A"/>
<ellipse cx="2.46476" cy="1.83044" rx="2.46476" ry="1.83044" transform="matrix(-0.972516 -0.232836 -0.233042 0.972467 78.1187 71.2217)" fill="#F8786A"/>
<ellipse cx="2.46476" cy="1.83044" rx="2.46476" ry="1.83044" transform="matrix(-0.972516 -0.232836 -0.233042 0.972467 79.8252 64.1013)" fill="#F8786A"/>
</svg>
