<svg width="221" height="221" viewBox="0 0 221 221" fill="none" xmlns="http://www.w3.org/2000/svg">
<circle cx="110.283" cy="110.108" r="110.029" fill="#66778B"/>
<path d="M79.2704 74.1001L79.2668 74.1204L79.264 74.1407C78.6331 78.7119 76.9883 81.9568 74.7163 84.257C72.4365 86.565 69.4483 87.9995 66.0058 88.8129C59.0751 90.4506 50.5521 89.5189 42.9937 88.3852C42.0658 88.246 41.1418 88.113 40.2248 87.9809C37.3797 87.5714 34.6008 87.1713 31.9759 86.6262C28.5107 85.9065 25.4147 84.9519 22.9235 83.4538C20.4548 81.9693 18.5784 79.951 17.5256 77.0617C16.4649 74.1508 16.2094 70.2709 17.1557 65.0202C17.823 61.3176 19.0555 59.4615 20.5198 58.5697C22.0127 57.6604 24.0325 57.5715 26.6931 58.0795C28.9514 58.5107 31.4867 59.3312 34.2997 60.2414C34.7871 60.3992 35.2828 60.5596 35.7869 60.7211C39.1648 61.8038 42.8645 62.9181 46.7222 63.4967C50.5765 64.0749 54.789 64.1332 58.8351 64.1434C59.2709 64.1445 59.7045 64.145 60.1355 64.1456C63.7388 64.1501 67.1592 64.1544 70.1358 64.4772C73.4924 64.8412 76.0651 65.5929 77.6452 67.0182C79.1443 68.3704 79.9201 70.4951 79.2704 74.1001Z" fill="#EB8F7F" stroke="#783E32" stroke-width="2"/>
<path d="M23.0691 70.4412C23.0841 68.2428 24.8011 61.7482 24.3484 61.1218C23.8957 60.4953 22.7381 60.6662 22.0964 61.1075C21.4547 61.5488 20.394 65.404 20.394 65.404C19.8589 72.6488 19.2384 71.7002 21.075 77.439C22.9544 80.3977 28.3842 82.8321 31.6885 83.2688L46.8593 85.6521L53.8537 86.4687L60.9742 86.5735C66.0331 85.5952 69.6321 84.3706 72.2003 82.6046C75.3906 80.4106 75.6003 79.0307 76.6961 71.8189L76.7167 71.6833C76.8221 70.9897 75.2238 68.818 74.5425 69.1149C73.6322 69.5115 73.9733 71.8914 73.6966 72.8233C73.23 74.3945 73.4508 77.6811 69.5348 80.6865C65.6189 83.692 61.2664 83.8718 59.1648 84.0668C57.0632 84.2617 26.2311 80.1449 24.6113 76.5701C22.9915 72.9953 23.0541 72.6396 23.0691 70.4412Z" fill="#FFD8C3" stroke="#F5C2AF" stroke-width="2"/>
<path d="M177.92 119.087C181.501 132.943 172.342 146.985 157.298 150.352C142.253 153.72 127.235 145.089 123.655 131.234C120.074 117.378 129.233 103.336 144.277 99.9681C159.322 96.6005 174.34 105.231 177.92 119.087Z" fill="#F66C3E" stroke="black" stroke-width="2"/>
<path d="M134.596 125.817C136.074 125.876 137.171 124.535 137.585 124.043C137.585 124.043 135.607 122.399 133.969 122.392C132.332 122.385 131.745 122.709 131.745 122.709C131.424 122.947 130.852 123.616 131.134 124.385C131.598 125.041 132.748 125.743 134.596 125.817Z" fill="black" stroke="black" stroke-width="2"/>
<path d="M137.88 136.202C139.143 135.484 139.251 133.802 139.3 133.178C139.3 133.178 136.673 132.84 135.309 133.683C133.945 134.527 133.653 135.1 133.653 135.1C133.529 135.465 133.454 136.317 134.149 136.808C134.927 137.113 136.302 137.099 137.88 136.202Z" fill="black" stroke="black" stroke-width="2"/>
<path d="M138.707 114.912C139.442 116.106 141.246 116.255 141.914 116.318C141.914 116.318 142.352 113.883 141.484 112.591C140.617 111.298 140.009 111.01 140.009 111.01C139.621 110.884 138.708 110.791 138.161 111.423C137.812 112.139 137.787 113.418 138.707 114.912Z" fill="black" stroke="black" stroke-width="2"/>
<path d="M150.909 111.504C150.741 112.872 152.099 113.986 152.597 114.405C152.597 114.405 154.5 112.686 154.624 111.166C154.749 109.647 154.443 109.079 154.443 109.079C154.21 108.764 153.534 108.185 152.69 108.393C151.954 108.777 151.119 109.794 150.909 111.504Z" fill="black" stroke="black" stroke-width="2"/>
<path d="M161.09 115.921C159.793 116.582 159.599 118.258 159.519 118.879C159.519 118.879 162.125 119.332 163.531 118.55C164.936 117.767 165.258 117.207 165.258 117.207C165.4 116.849 165.517 116.001 164.848 115.479C164.087 115.141 162.712 115.094 161.09 115.921Z" fill="black" stroke="black" stroke-width="2"/>
<path d="M165.456 125.972C164.033 125.597 162.632 126.665 162.107 127.055C162.107 127.055 163.624 129.08 165.215 129.439C166.806 129.799 167.458 129.609 167.458 129.609C167.829 129.447 168.552 128.919 168.468 128.111C168.18 127.373 167.236 126.442 165.456 125.972Z" fill="black" stroke="black" stroke-width="2"/>
<path d="M174.255 82.8012C177.835 96.6569 168.677 110.699 153.632 114.067C138.587 117.434 123.57 108.804 119.989 94.9479C116.409 81.0921 125.567 67.0501 140.612 63.6825C155.656 60.3149 170.674 68.9454 174.255 82.8012Z" fill="#F66C3E" stroke="black" stroke-width="2"/>
<path d="M160.702 136.509C159.834 135.394 158.023 135.426 157.351 135.43C157.351 135.43 157.196 137.894 158.206 139.093C159.217 140.292 159.855 140.518 159.855 140.518C160.255 140.605 161.173 140.606 161.645 139.923C161.91 139.177 161.787 137.902 160.702 136.509Z" fill="black" stroke="black" stroke-width="2"/>
<path d="M149.246 140.552C149.439 139.187 148.102 138.05 147.611 137.623C147.611 137.623 145.677 139.312 145.525 140.829C145.372 142.346 145.667 142.919 145.667 142.919C145.894 143.238 146.559 143.827 147.407 143.634C148.15 143.262 149.003 142.258 149.246 140.552Z" fill="black" stroke="black" stroke-width="2"/>
<path d="M130.931 89.5316C132.409 89.5904 133.506 88.2497 133.92 87.7574C133.92 87.7574 131.942 86.1139 130.304 86.1067C128.667 86.0995 128.08 86.4239 128.08 86.4239C127.759 86.6623 127.187 87.3311 127.469 88.0997C127.933 88.7556 129.083 89.4581 130.931 89.5316Z" fill="black" stroke="black" stroke-width="2"/>
<path d="M134.215 99.917C135.478 99.1992 135.586 97.5166 135.635 96.8933C135.635 96.8933 133.008 96.5549 131.644 97.3982C130.28 98.2416 129.987 98.8153 129.987 98.8153C129.864 99.1798 129.789 100.032 130.484 100.523C131.262 100.827 132.637 100.814 134.215 99.917Z" fill="black" stroke="black" stroke-width="2"/>
<path d="M135.042 78.6259C135.777 79.8206 137.582 79.9689 138.25 80.0318C138.25 80.0318 138.687 77.5976 137.82 76.305C136.952 75.0124 136.345 74.7237 136.345 74.7237C135.957 74.5981 135.044 74.5051 134.496 75.1375C134.147 75.8526 134.123 77.1325 135.042 78.6259Z" fill="black" stroke="black" stroke-width="2"/>
<path d="M147.244 75.218C147.076 76.5859 148.434 77.7005 148.932 78.1196C148.932 78.1196 150.835 76.4002 150.959 74.8807C151.084 73.3611 150.778 72.7933 150.778 72.7933C150.545 72.4782 149.869 71.8998 149.025 72.107C148.289 72.4909 147.454 73.5082 147.244 75.218Z" fill="black" stroke="black" stroke-width="2"/>
<path d="M157.425 79.635C156.127 80.2965 155.934 81.9724 155.853 82.5929C155.853 82.5929 158.46 83.0465 159.865 82.2641C161.27 81.4817 161.592 80.9216 161.592 80.9216C161.734 80.5629 161.852 79.7152 161.183 79.1936C160.421 78.8556 159.047 78.8082 157.425 79.635Z" fill="black" stroke="black" stroke-width="2"/>
<path d="M161.791 89.6873C160.368 89.312 158.967 90.3802 158.442 90.7701C158.442 90.7701 159.958 92.7948 161.549 93.1542C163.141 93.5136 163.792 93.3243 163.792 93.3243C164.164 93.1615 164.886 92.6338 164.803 91.8254C164.514 91.0874 163.57 90.1564 161.791 89.6873Z" fill="black" stroke="black" stroke-width="2"/>
<path d="M157.038 100.223C156.17 99.1086 154.359 99.1404 153.687 99.1443C153.687 99.1443 153.532 101.608 154.542 102.807C155.553 104.006 156.191 104.233 156.191 104.233C156.591 104.319 157.509 104.321 157.981 103.638C158.245 102.892 158.123 101.617 157.038 100.223Z" fill="black" stroke="black" stroke-width="2"/>
<path d="M145.581 104.266C145.774 102.901 144.437 101.765 143.946 101.338C143.946 101.338 142.012 103.027 141.86 104.544C141.707 106.061 142.002 106.634 142.002 106.634C142.229 106.953 142.894 107.542 143.742 107.348C144.485 106.976 145.338 105.973 145.581 104.266Z" fill="black" stroke="black" stroke-width="2"/>
<path d="M126.084 88.9337C129.664 102.79 120.506 116.832 105.461 120.199C90.4165 123.567 75.3989 114.936 71.8183 101.08C68.2376 87.2247 77.3961 73.1827 92.4408 69.8151C107.486 66.4475 122.503 75.078 126.084 88.9337Z" fill="#F66C3E" stroke="black" stroke-width="2"/>
<path d="M82.7592 95.664C84.2372 95.7228 85.3349 94.382 85.7485 93.8897C85.7485 93.8897 83.7702 92.2462 82.1328 92.239C80.4953 92.2318 79.9086 92.5562 79.9086 92.5562C79.5874 92.7946 79.0157 93.4635 79.298 94.232C79.7619 94.8879 80.9116 95.5905 82.7592 95.664Z" fill="black" stroke="black" stroke-width="2"/>
<path d="M86.0449 106.05C87.3073 105.332 87.4158 103.649 87.4645 103.026C87.4645 103.026 84.8377 102.688 83.4738 103.531C82.11 104.374 81.8171 104.948 81.8171 104.948C81.6932 105.313 81.619 106.164 82.3136 106.656C83.0915 106.96 84.4669 106.947 86.0449 106.05Z" fill="black" stroke="black" stroke-width="2"/>
<path d="M86.8706 84.7587C87.606 85.9534 89.4101 86.1017 90.0782 86.1646C90.0782 86.1646 90.5157 83.7304 89.6484 82.4378C88.7811 81.1452 88.1731 80.8565 88.1731 80.8565C87.7852 80.731 86.8723 80.6379 86.3246 81.2703C85.9761 81.9854 85.9514 83.2653 86.8706 84.7587Z" fill="black" stroke="black" stroke-width="2"/>
<path d="M99.0735 81.3508C98.9051 82.7187 100.264 83.8333 100.762 84.2524C100.762 84.2524 102.664 82.533 102.789 81.0135C102.913 79.494 102.607 78.9261 102.607 78.9261C102.375 78.611 101.699 78.0326 100.855 78.2398C100.119 78.6237 99.284 79.641 99.0735 81.3508Z" fill="black" stroke="black" stroke-width="2"/>
<path d="M109.254 85.7679C107.956 86.4293 107.763 88.1053 107.682 88.7257C107.682 88.7257 110.289 89.1793 111.694 88.3969C113.099 87.6145 113.421 87.0544 113.421 87.0544C113.563 86.6957 113.681 85.8481 113.012 85.3264C112.25 84.9884 110.876 84.941 109.254 85.7679Z" fill="black" stroke="black" stroke-width="2"/>
<path d="M113.62 95.8196C112.197 95.4443 110.796 96.5125 110.271 96.9024C110.271 96.9024 111.787 98.9271 113.379 99.2865C114.97 99.6459 115.621 99.4566 115.621 99.4566C115.993 99.2938 116.715 98.7661 116.632 97.9577C116.343 97.2197 115.399 96.2888 113.62 95.8196Z" fill="black" stroke="black" stroke-width="2"/>
<path d="M108.867 106.356C107.999 105.242 106.188 105.273 105.516 105.277C105.516 105.277 105.361 107.741 106.371 108.94C107.382 110.139 108.02 110.366 108.02 110.366C108.42 110.452 109.338 110.454 109.81 109.771C110.075 109.025 109.952 107.75 108.867 106.356Z" fill="black" stroke="black" stroke-width="2"/>
<path d="M97.4107 110.399C97.6044 109.034 96.2666 107.898 95.7764 107.471C95.7764 107.471 93.8423 109.159 93.6897 110.676C93.537 112.194 93.8323 112.766 93.8323 112.766C94.059 113.085 94.7242 113.674 95.5717 113.481C96.3148 113.109 97.1685 112.105 97.4107 110.399Z" fill="black" stroke="black" stroke-width="2"/>
<path d="M136.032 114.998C139.613 128.854 130.454 142.896 115.409 146.264C100.365 149.631 85.3472 141.001 81.7665 127.145C78.1859 113.289 87.3443 99.2471 102.389 95.8795C117.434 92.5119 132.451 101.142 136.032 114.998Z" fill="#F66C3E" stroke="black" stroke-width="2"/>
<path d="M92.7079 121.728C94.186 121.787 95.2836 120.446 95.6973 119.954C95.6973 119.954 93.7189 118.31 92.0815 118.303C90.4441 118.296 89.8573 118.62 89.8573 118.62C89.5362 118.859 88.9644 119.528 89.2467 120.296C89.7106 120.952 90.8604 121.655 92.7079 121.728Z" fill="black" stroke="black" stroke-width="2"/>
<path d="M95.9927 132.114C97.2551 131.396 97.3636 129.713 97.4123 129.09C97.4123 129.09 94.7854 128.752 93.4216 129.595C92.0578 130.438 91.7648 131.012 91.7648 131.012C91.6409 131.377 91.5667 132.228 92.2613 132.72C93.0393 133.024 94.4146 133.011 95.9927 132.114Z" fill="black" stroke="black" stroke-width="2"/>
<path d="M96.8194 110.823C97.5547 112.018 99.3589 112.166 100.027 112.229C100.027 112.229 100.464 109.795 99.5971 108.502C98.7298 107.21 98.1219 106.921 98.1219 106.921C97.7339 106.795 96.821 106.702 96.2733 107.335C95.9248 108.05 95.9001 109.33 96.8194 110.823Z" fill="black" stroke="black" stroke-width="2"/>
<path d="M109.021 107.415C108.852 108.783 110.211 109.897 110.709 110.317C110.709 110.317 112.612 108.597 112.736 107.078C112.861 105.558 112.555 104.99 112.555 104.99C112.322 104.675 111.646 104.097 110.802 104.304C110.066 104.688 109.231 105.705 109.021 107.415Z" fill="black" stroke="black" stroke-width="2"/>
<path d="M119.202 111.832C117.905 112.494 117.711 114.17 117.631 114.79C117.631 114.79 120.237 115.244 121.642 114.461C123.048 113.679 123.369 113.119 123.369 113.119C123.512 112.76 123.629 111.913 122.96 111.391C122.198 111.053 120.824 111.005 119.202 111.832Z" fill="black" stroke="black" stroke-width="2"/>
<path d="M123.569 121.884C122.145 121.509 120.744 122.577 120.22 122.967C120.22 122.967 121.736 124.991 123.327 125.351C124.918 125.71 125.57 125.521 125.57 125.521C125.942 125.358 126.664 124.83 126.58 124.022C126.292 123.284 125.348 122.353 123.569 121.884Z" fill="black" stroke="black" stroke-width="2"/>
<path d="M118.815 132.421C117.946 131.306 116.136 131.338 115.464 131.342C115.464 131.342 115.308 133.805 116.319 135.004C117.33 136.203 117.967 136.43 117.967 136.43C118.368 136.516 119.286 136.518 119.758 135.835C120.022 135.089 119.9 133.814 118.815 132.421Z" fill="black" stroke="black" stroke-width="2"/>
<path d="M107.358 136.463C107.552 135.099 106.214 133.962 105.724 133.535C105.724 133.535 103.79 135.224 103.637 136.741C103.485 138.258 103.78 138.831 103.78 138.831C104.007 139.15 104.672 139.739 105.519 139.545C106.263 139.173 107.116 138.17 107.358 136.463Z" fill="black" stroke="black" stroke-width="2"/>
<path d="M199.91 63.892C203.491 77.7478 194.333 91.7898 179.288 95.1574C164.243 98.525 149.226 89.8945 145.645 76.0387C142.064 62.1829 151.223 48.1409 166.267 44.7733C181.312 41.4057 196.33 50.0362 199.91 63.892Z" fill="#D2F3A2" stroke="#27763F" stroke-width="2"/>
<ellipse cx="172.204" cy="69.9655" rx="12.3045" ry="12.0099" fill="#6DCF6E"/>
<path d="M164.605 69.4966C165.389 69.5279 165.972 68.8163 166.191 68.555C166.191 68.555 165.141 67.6828 164.272 67.679C163.403 67.6751 163.092 67.8473 163.092 67.8473C162.922 67.9738 162.618 68.3288 162.768 68.7367C163.014 69.0848 163.624 69.4576 164.605 69.4966Z" fill="#D2F3A2" stroke="#D2F3A2" stroke-width="2"/>
<path d="M166.348 75.0085C167.018 74.6275 167.075 73.7345 167.101 73.4037C167.101 73.4037 165.707 73.2241 164.983 73.6717C164.259 74.1193 164.104 74.4237 164.104 74.4237C164.038 74.6172 163.999 75.0693 164.367 75.3303C164.78 75.4916 165.51 75.4847 166.348 75.0085Z" fill="#D2F3A2" stroke="#D2F3A2" stroke-width="2"/>
<path d="M166.787 63.7089C167.178 64.343 168.135 64.4217 168.49 64.4551C168.49 64.4551 168.722 63.1632 168.262 62.4772C167.801 61.7912 167.479 61.6379 167.479 61.6379C167.273 61.5713 166.788 61.522 166.498 61.8575C166.313 62.2371 166.3 62.9164 166.787 63.7089Z" fill="#D2F3A2" stroke="#D2F3A2" stroke-width="2"/>
<path d="M173.263 61.9003C173.173 62.6263 173.894 63.2178 174.159 63.4402C174.159 63.4402 175.168 62.5277 175.234 61.7213C175.301 60.9148 175.138 60.6134 175.138 60.6134C175.015 60.4462 174.656 60.1392 174.208 60.2492C173.817 60.4529 173.374 60.9928 173.263 61.9003Z" fill="#D2F3A2" stroke="#D2F3A2" stroke-width="2"/>
<path d="M178.667 64.2445C177.978 64.5955 177.875 65.485 177.833 65.8143C177.833 65.8143 179.216 66.055 179.962 65.6398C180.707 65.2246 180.878 64.9273 180.878 64.9273C180.954 64.7369 181.016 64.2871 180.661 64.0102C180.257 63.8308 179.527 63.8057 178.667 64.2445Z" fill="#D2F3A2" stroke="#D2F3A2" stroke-width="2"/>
<path d="M180.983 69.5793C180.228 69.3801 179.484 69.9471 179.205 70.154C179.205 70.154 180.01 71.2286 180.855 71.4193C181.699 71.61 182.045 71.5096 182.045 71.5096C182.242 71.4232 182.626 71.1431 182.581 70.7141C182.428 70.3224 181.927 69.8283 180.983 69.5793Z" fill="#D2F3A2" stroke="#D2F3A2" stroke-width="2"/>
<path d="M178.461 75.171C178 74.5794 177.039 74.5963 176.683 74.5983C176.683 74.5983 176.6 75.9059 177.136 76.5423C177.673 77.1786 178.011 77.2989 178.011 77.2989C178.224 77.3447 178.711 77.3456 178.962 76.983C179.102 76.5873 179.037 75.9106 178.461 75.171Z" fill="#D2F3A2" stroke="#D2F3A2" stroke-width="2"/>
<path d="M172.381 77.317C172.484 76.5926 171.774 75.9895 171.514 75.7629C171.514 75.7629 170.487 76.659 170.406 77.4643C170.325 78.2696 170.482 78.5735 170.482 78.5735C170.602 78.7427 170.955 79.0554 171.405 78.9526C171.799 78.7552 172.252 78.2225 172.381 77.317Z" fill="#D2F3A2" stroke="#D2F3A2" stroke-width="2"/>
<path d="M212.476 95.0668C216.056 108.923 206.898 122.965 191.853 126.332C176.809 129.7 161.791 121.069 158.21 107.214C154.63 93.3577 163.788 79.3157 178.833 75.9481C193.878 72.5805 208.895 81.211 212.476 95.0668Z" fill="#D2F3A2" stroke="#27763F" stroke-width="2"/>
<ellipse cx="184.77" cy="101.14" rx="12.3045" ry="12.0099" fill="#6DCF6E"/>
<path d="M177.171 100.671C177.955 100.703 178.538 99.9911 178.757 99.7298C178.757 99.7298 177.707 98.8576 176.838 98.8538C175.969 98.8499 175.658 99.0221 175.658 99.0221C175.488 99.1486 175.184 99.5036 175.334 99.9115C175.58 100.26 176.19 100.632 177.171 100.671Z" fill="#D2F3A2" stroke="#D2F3A2" stroke-width="2"/>
<path d="M178.914 106.183C179.584 105.802 179.642 104.909 179.668 104.579C179.668 104.579 178.273 104.399 177.55 104.846C176.826 105.294 176.67 105.599 176.67 105.599C176.605 105.792 176.565 106.244 176.934 106.505C177.347 106.666 178.077 106.659 178.914 106.183Z" fill="#D2F3A2" stroke="#D2F3A2" stroke-width="2"/>
<path d="M179.353 94.884C179.744 95.518 180.701 95.5968 181.056 95.6301C181.056 95.6301 181.288 94.3382 180.828 93.6522C180.367 92.9662 180.045 92.813 180.045 92.813C179.839 92.7464 179.354 92.697 179.064 93.0326C178.879 93.4122 178.865 94.0914 179.353 94.884Z" fill="#D2F3A2" stroke="#D2F3A2" stroke-width="2"/>
<path d="M185.829 93.0749C185.74 93.8008 186.461 94.3924 186.725 94.6148C186.725 94.6148 187.735 93.7023 187.801 92.8958C187.867 92.0894 187.705 91.788 187.705 91.788C187.581 91.6208 187.222 91.3138 186.775 91.4238C186.384 91.6275 185.941 92.1674 185.829 93.0749Z" fill="#D2F3A2" stroke="#D2F3A2" stroke-width="2"/>
<path d="M191.232 95.4193C190.544 95.7704 190.441 96.6598 190.398 96.9891C190.398 96.9891 191.782 97.2298 192.528 96.8146C193.273 96.3994 193.444 96.1021 193.444 96.1021C193.52 95.9117 193.582 95.4619 193.227 95.185C192.823 95.0056 192.093 94.9805 191.232 95.4193Z" fill="#D2F3A2" stroke="#D2F3A2" stroke-width="2"/>
<path d="M193.549 100.754C192.794 100.555 192.05 101.122 191.772 101.329C191.772 101.329 192.577 102.403 193.421 102.594C194.266 102.785 194.611 102.684 194.611 102.684C194.809 102.598 195.192 102.318 195.148 101.889C194.995 101.497 194.494 101.003 193.549 100.754Z" fill="#D2F3A2" stroke="#D2F3A2" stroke-width="2"/>
<path d="M191.027 106.346C190.566 105.754 189.605 105.771 189.249 105.773C189.249 105.773 189.166 107.081 189.702 107.717C190.239 108.354 190.577 108.474 190.577 108.474C190.79 108.52 191.277 108.521 191.527 108.158C191.668 107.762 191.603 107.086 191.027 106.346Z" fill="#D2F3A2" stroke="#D2F3A2" stroke-width="2"/>
<path d="M184.947 108.492C185.05 107.767 184.34 107.164 184.079 106.937C184.079 106.937 183.053 107.834 182.972 108.639C182.891 109.444 183.048 109.748 183.048 109.748C183.168 109.917 183.521 110.23 183.971 110.127C184.365 109.93 184.818 109.397 184.947 108.492Z" fill="#D2F3A2" stroke="#D2F3A2" stroke-width="2"/>
<path d="M206.193 135.952C209.774 149.807 200.615 163.849 185.571 167.217C170.526 170.585 155.508 161.954 151.928 148.098C148.347 134.243 157.505 120.2 172.55 116.833C187.595 113.465 202.612 122.096 206.193 135.952Z" fill="#D2F3A2" stroke="#27763F" stroke-width="2"/>
<ellipse cx="178.487" cy="142.025" rx="12.3045" ry="12.0099" fill="#6DCF6E"/>
<path d="M170.888 141.557C171.673 141.588 172.255 140.876 172.475 140.615C172.475 140.615 171.425 139.743 170.556 139.739C169.687 139.735 169.375 139.907 169.375 139.907C169.205 140.034 168.901 140.389 169.051 140.797C169.297 141.145 169.908 141.518 170.888 141.557Z" fill="#D2F3A2" stroke="#D2F3A2" stroke-width="2"/>
<path d="M172.631 147.068C173.301 146.687 173.359 145.794 173.384 145.463C173.384 145.463 171.99 145.284 171.266 145.731C170.543 146.179 170.387 146.483 170.387 146.483C170.321 146.677 170.282 147.129 170.651 147.39C171.064 147.551 171.793 147.544 172.631 147.068Z" fill="#D2F3A2" stroke="#D2F3A2" stroke-width="2"/>
<path d="M173.07 135.769C173.46 136.403 174.417 136.482 174.772 136.515C174.772 136.515 175.004 135.223 174.544 134.537C174.084 133.851 173.761 133.698 173.761 133.698C173.555 133.631 173.07 133.582 172.78 133.917C172.595 134.297 172.582 134.976 173.07 135.769Z" fill="#D2F3A2" stroke="#D2F3A2" stroke-width="2"/>
<path d="M179.545 133.96C179.456 134.686 180.177 135.277 180.441 135.5C180.441 135.5 181.451 134.587 181.517 133.781C181.583 132.974 181.421 132.673 181.421 132.673C181.297 132.506 180.939 132.199 180.491 132.309C180.1 132.513 179.657 133.052 179.545 133.96Z" fill="#D2F3A2" stroke="#D2F3A2" stroke-width="2"/>
<path d="M184.949 136.304C184.26 136.655 184.157 137.545 184.115 137.874C184.115 137.874 185.498 138.115 186.244 137.699C186.99 137.284 187.16 136.987 187.16 136.987C187.236 136.797 187.298 136.347 186.943 136.07C186.539 135.89 185.81 135.865 184.949 136.304Z" fill="#D2F3A2" stroke="#D2F3A2" stroke-width="2"/>
<path d="M187.266 141.639C186.511 141.439 185.767 142.006 185.489 142.213C185.489 142.213 186.293 143.288 187.138 143.479C187.982 143.669 188.328 143.569 188.328 143.569C188.526 143.483 188.909 143.202 188.864 142.773C188.711 142.382 188.21 141.888 187.266 141.639Z" fill="#D2F3A2" stroke="#D2F3A2" stroke-width="2"/>
<path d="M184.743 147.231C184.282 146.639 183.321 146.656 182.964 146.658C182.964 146.658 182.882 147.966 183.418 148.602C183.955 149.239 184.293 149.359 184.293 149.359C184.505 149.405 184.993 149.406 185.243 149.043C185.384 148.647 185.319 147.971 184.743 147.231Z" fill="#D2F3A2" stroke="#D2F3A2" stroke-width="2"/>
<path d="M178.664 149.376C178.767 148.652 178.057 148.049 177.797 147.822C177.797 147.822 176.77 148.718 176.689 149.524C176.608 150.329 176.765 150.633 176.765 150.633C176.885 150.802 177.238 151.115 177.688 151.012C178.082 150.815 178.536 150.282 178.664 149.376Z" fill="#D2F3A2" stroke="#D2F3A2" stroke-width="2"/>
<path d="M192.056 162.016C195.637 175.871 186.478 189.913 171.433 193.281C156.389 196.649 141.371 188.018 137.79 174.162C134.21 160.306 143.368 146.264 158.413 142.897C173.458 139.529 188.475 148.16 192.056 162.016Z" fill="#D2F3A2" stroke="#27763F" stroke-width="2"/>
<ellipse cx="164.349" cy="168.09" rx="12.3045" ry="12.0099" fill="#6DCF6E"/>
<path d="M156.75 167.62C157.534 167.652 158.117 166.94 158.336 166.679C158.336 166.679 157.286 165.807 156.417 165.803C155.548 165.799 155.237 165.971 155.237 165.971C155.067 166.098 154.763 166.453 154.913 166.86C155.159 167.209 155.769 167.581 156.75 167.62Z" fill="#D2F3A2" stroke="#D2F3A2" stroke-width="2"/>
<path d="M158.493 173.132C159.163 172.751 159.221 171.858 159.247 171.527C159.247 171.527 157.853 171.348 157.129 171.795C156.405 172.243 156.249 172.547 156.249 172.547C156.184 172.741 156.144 173.193 156.513 173.454C156.926 173.615 157.656 173.608 158.493 173.132Z" fill="#D2F3A2" stroke="#D2F3A2" stroke-width="2"/>
<path d="M158.932 161.833C159.323 162.467 160.28 162.546 160.635 162.579C160.635 162.579 160.867 161.287 160.407 160.601C159.946 159.915 159.624 159.762 159.624 159.762C159.418 159.695 158.933 159.646 158.643 159.981C158.458 160.361 158.445 161.04 158.932 161.833Z" fill="#D2F3A2" stroke="#D2F3A2" stroke-width="2"/>
<path d="M165.408 160.024C165.319 160.75 166.04 161.341 166.304 161.564C166.304 161.564 167.314 160.651 167.38 159.845C167.446 159.038 167.284 158.737 167.284 158.737C167.16 158.569 166.801 158.263 166.354 158.373C165.963 158.576 165.52 159.116 165.408 160.024Z" fill="#D2F3A2" stroke="#D2F3A2" stroke-width="2"/>
<path d="M170.811 162.368C170.123 162.719 170.02 163.609 169.977 163.938C169.977 163.938 171.36 164.179 172.106 163.763C172.852 163.348 173.023 163.051 173.023 163.051C173.098 162.86 173.161 162.411 172.806 162.134C172.401 161.954 171.672 161.929 170.811 162.368Z" fill="#D2F3A2" stroke="#D2F3A2" stroke-width="2"/>
<path d="M173.129 167.703C172.374 167.504 171.63 168.071 171.351 168.278C171.351 168.278 172.156 169.352 173.001 169.543C173.845 169.734 174.191 169.633 174.191 169.633C174.388 169.547 174.772 169.267 174.727 168.838C174.574 168.446 174.073 167.952 173.129 167.703Z" fill="#D2F3A2" stroke="#D2F3A2" stroke-width="2"/>
<path d="M170.606 173.295C170.145 172.703 169.184 172.72 168.828 172.722C168.828 172.722 168.745 174.03 169.281 174.666C169.818 175.302 170.156 175.423 170.156 175.423C170.369 175.468 170.856 175.469 171.107 175.107C171.247 174.711 171.182 174.034 170.606 173.295Z" fill="#D2F3A2" stroke="#D2F3A2" stroke-width="2"/>
<path d="M164.526 175.441C164.629 174.716 163.919 174.113 163.659 173.886C163.659 173.886 162.632 174.783 162.551 175.588C162.47 176.393 162.627 176.697 162.627 176.697C162.747 176.866 163.1 177.179 163.55 177.076C163.944 176.879 164.397 176.346 164.526 175.441Z" fill="#D2F3A2" stroke="#D2F3A2" stroke-width="2"/>
<path d="M128.017 64.6814L128.002 64.6954L127.988 64.7099C124.771 68.0972 121.505 69.8283 118.286 70.4322C115.059 71.0377 111.771 70.5299 108.481 69.2613C101.855 66.7061 95.4414 61.1573 89.9314 55.9813C89.2546 55.3456 88.5776 54.7172 87.9056 54.0936C85.8217 52.1595 83.7872 50.2714 81.9638 48.3509C79.5569 45.8159 77.5918 43.298 76.441 40.6767C75.3011 38.0802 74.9566 35.3764 75.8019 32.4189C76.6537 29.4382 78.7377 26.1184 82.6127 22.355C85.3484 19.6981 87.4583 18.8707 89.1841 18.9649C90.9353 19.0605 92.6322 20.1183 94.5044 22.0262C96.0944 23.6466 97.6815 25.7407 99.444 28.0663C99.7494 28.4693 100.06 28.8792 100.377 29.2949C102.5 32.079 104.868 35.0716 107.682 37.7153C110.494 40.3565 113.905 42.7735 117.207 45.0563C117.562 45.3022 117.916 45.5464 118.268 45.7891C121.212 47.8187 124.004 49.744 126.245 51.6799C128.772 53.8627 130.426 55.9182 130.875 57.9651C131.303 59.9112 130.683 62.0915 128.017 64.6814Z" fill="#EB8F7F" stroke="#783E32" stroke-width="2"/>
<path d="M84.2405 30.1028C85.55 28.3141 90.786 23.97 90.7855 23.2034C90.7851 22.4368 89.7379 21.9258 88.953 21.9258C88.168 21.9258 85.026 24.4811 85.026 24.4811C80.3136 30.1028 80.3661 28.9784 78.4811 34.7023C78.2716 38.1775 81.274 43.22 83.7174 45.4346L94.713 55.9114L99.9489 60.5109L105.708 64.5994C110.421 66.6437 114.086 67.6658 117.227 67.6658C121.154 67.6658 123.272 65.2318 129.27 59.7443C129.794 59.2648 128.955 58.0959 128.223 57.9556C127.245 57.7681 126.905 58.1159 126.129 58.7222C124.82 59.7443 121.155 64.3439 116.18 64.5994C111.205 64.8549 107.541 62.5552 105.708 61.5331C103.875 60.5109 81.0994 39.8129 81.8847 35.98C82.6699 32.147 82.931 31.8915 84.2405 30.1028Z" fill="#FFD8C3" stroke="#F5C2AF" stroke-width="2"/>
<path d="M96.0051 64.9084L95.9946 64.9258L95.9848 64.9436C93.7456 69.0092 91.0345 71.4844 88.0769 72.8587C85.1103 74.2372 81.7968 74.5539 78.2833 74.134C71.2081 73.2885 63.5676 69.4923 56.9004 65.8365C56.0817 65.3876 55.2645 64.9459 54.4535 64.5075C51.9378 63.1476 49.4812 61.8196 47.2208 60.4085C44.237 58.5459 41.6842 56.5906 39.8931 54.3347C38.1186 52.0996 37.0886 49.5668 37.144 46.4989C37.1998 43.4074 38.3596 39.6851 41.1383 35.0929C43.0989 31.8527 44.9243 30.536 46.6176 30.2035C48.3401 29.8652 50.2592 30.4738 52.5651 31.8616C54.5228 33.0398 56.5997 34.6774 58.9051 36.4951C59.3046 36.81 59.7109 37.1304 60.1246 37.4547C62.8968 39.6278 65.9596 41.9415 69.3636 43.808C72.7646 45.6727 76.6881 47.1736 80.472 48.5719C80.8795 48.7225 81.2852 48.8718 81.6884 49.0203C85.0601 50.2614 88.2597 51.4392 90.929 52.7627C93.939 54.255 96.0734 55.84 97.0375 57.7137C97.9532 59.4932 97.9151 61.7518 96.0051 64.9084Z" fill="#EB8F7F" stroke="#783E32" stroke-width="2"/>
<path d="M44.715 42.1946C45.5211 40.1418 49.4684 34.6513 49.2703 33.9095C49.0722 33.1677 47.927 32.9303 47.1673 33.1232C46.4076 33.316 44.0256 36.5609 44.0256 36.5609C40.9145 43.1593 40.6754 42.0582 40.327 48.0609C41.0205 51.4757 45.2264 55.6184 48.1622 57.1614L61.5053 64.5998L67.7588 67.765L74.3867 70.3071C79.475 71.1278 83.2853 71.2167 86.3257 70.445C90.1027 69.4863 90.7962 68.2664 94.4203 61.8914L94.4885 61.7715C94.837 61.1584 94.1232 58.5768 93.3785 58.6209C92.3835 58.6797 91.8454 61.0246 91.2505 61.8021C90.2477 63.1127 89.2702 66.2652 84.5216 67.7346C79.7729 69.2039 75.6337 67.8783 73.596 67.3394C71.5584 66.8005 44.1789 52.3638 43.9505 48.4613C43.7221 44.5589 43.909 44.2474 44.715 42.1946Z" fill="#FFD8C3" stroke="#F5C2AF" stroke-width="2"/>
<path d="M67.2899 86.22L67.2976 86.239L67.306 86.2576C69.2251 90.4745 69.5678 94.0808 68.8685 97.2033C68.1669 100.336 66.393 103.086 63.8995 105.54C58.8787 110.48 51.1221 114.048 44.0769 116.951C43.2119 117.307 42.3536 117.667 41.5017 118.023C38.8591 119.131 36.2783 120.212 33.7505 121.091C30.4137 122.251 27.2656 123.023 24.3407 123.022C21.4424 123.021 18.7606 122.263 16.3113 120.341C13.8435 118.405 11.541 115.231 9.52588 110.274C8.10445 106.778 8.15696 104.565 8.92494 103.056C9.70703 101.519 11.3772 100.411 13.9147 99.4819C16.0687 98.6937 18.6678 98.0949 21.552 97.4304C22.0518 97.3153 22.5602 97.1982 23.0762 97.0778C26.5343 96.2709 30.2838 95.3263 33.8803 93.8445C37.4735 92.364 41.0924 90.2575 44.5432 88.1955C44.9148 87.9735 45.2843 87.7521 45.6515 87.532C48.7224 85.6917 51.6369 83.9452 54.3444 82.6969C57.3976 81.2894 59.9903 80.6136 62.0996 81.0183C64.1018 81.4024 65.9055 82.8151 67.2899 86.22Z" fill="#EB8F7F" stroke="#783E32" stroke-width="2"/>
<path d="M17.4701 111.866C16.3019 109.986 14.2752 103.577 13.5532 103.275C12.8312 102.974 11.9373 103.712 11.6279 104.416C11.3185 105.12 12.4862 108.946 12.4862 108.946C15.9224 115.388 14.8844 114.898 19.5311 118.845C22.7208 120.403 28.6521 119.697 31.7004 118.378L45.8989 112.643L52.2934 109.759L58.413 106.204C62.1953 102.782 64.602 99.8976 65.8402 97.0794C67.3783 93.5785 66.8156 92.2961 63.8746 85.5944L63.8193 85.4684C63.5365 84.8239 61.0089 83.7926 60.5882 84.394C60.0262 85.1975 61.5951 87.0495 61.86 87.9847C62.3068 89.5613 64.2602 92.247 62.5402 96.8103C60.8202 101.374 57.2105 103.754 55.5257 104.996C53.8408 106.237 25.3752 118.51 22.0755 116.295C18.7759 114.08 18.6382 113.745 17.4701 111.866Z" fill="#FFD8C3" stroke="#F5C2AF" stroke-width="2"/>
<path d="M70.6319 105.248L70.6436 105.264L70.656 105.28C73.5049 108.966 74.6758 112.406 74.7188 115.603C74.7619 118.81 73.6716 121.88 71.8127 124.819C68.0692 130.739 61.3434 135.926 55.1541 140.31C54.394 140.848 53.6413 141.388 52.8942 141.924C50.577 143.587 48.3145 145.21 46.0566 146.624C43.0761 148.491 40.1899 149.937 37.3425 150.582C34.5215 151.221 31.7339 151.076 28.901 149.745C26.0463 148.403 23.0659 145.818 19.9527 141.434C17.7556 138.34 17.2929 136.17 17.6912 134.529C18.096 132.862 19.4632 131.415 21.718 129.951C23.6325 128.708 26.0244 127.551 28.6798 126.267C29.1399 126.044 29.608 125.818 30.0828 125.586C33.2641 124.036 36.6981 122.287 39.8586 120.049C43.0162 117.812 46.0533 114.96 48.9363 112.19C49.2468 111.891 49.5554 111.594 49.8621 111.298C52.4266 108.827 54.8598 106.483 57.207 104.669C59.8536 102.624 62.2197 101.395 64.3653 101.323C66.4037 101.255 68.4911 102.233 70.6319 105.248Z" fill="#EB8F7F" stroke="#783E32" stroke-width="2"/>
<path d="M28.0562 141.232C26.4824 139.659 23.0221 133.864 22.2488 133.729C21.4756 133.595 20.776 134.511 20.638 135.266C20.4999 136.02 22.5245 139.488 22.5245 139.488C27.3655 145.005 26.2408 144.757 31.6822 147.574C35.1503 148.387 40.7639 146.389 43.4272 144.431L55.9275 135.708L61.4872 131.486L66.6236 126.672C69.5142 122.503 71.1896 119.161 71.7421 116.143C72.4284 112.393 71.5829 111.268 67.1642 105.39L67.0811 105.28C66.6561 104.714 63.955 104.268 63.6847 104.947C63.3236 105.854 65.2812 107.311 65.7562 108.163C66.5569 109.6 69.0825 111.785 68.4653 116.61C67.8481 121.435 64.8842 124.551 63.531 126.132C62.1777 127.714 37.297 145.957 33.5693 144.529C29.8417 143.1 29.6299 142.804 28.0562 141.232Z" fill="#FFD8C3" stroke="#F5C2AF" stroke-width="2"/>
<path d="M66.9331 126.343L66.9477 126.357L66.9629 126.37C70.5034 129.436 72.3483 132.584 73.0376 135.713C73.7287 138.849 73.2807 142.068 72.0536 145.306C69.5821 151.828 64.0397 158.207 58.859 163.698C58.2227 164.372 57.5939 165.047 56.9699 165.716C55.0346 167.792 53.1454 169.819 51.2183 171.64C48.6747 174.044 46.1391 176.017 43.4799 177.197C40.8459 178.366 38.0842 178.762 35.0361 178.002C31.9641 177.236 28.5176 175.275 24.5776 171.576C21.7958 168.965 20.9018 166.924 20.9604 165.237C21.0198 163.527 22.0655 161.849 23.9784 159.98C25.603 158.393 27.7129 156.799 30.0563 155.028C30.4624 154.721 30.8755 154.409 31.2943 154.09C34.0995 151.958 37.1129 149.581 39.7592 146.776C42.4031 143.975 44.8041 140.593 47.0698 137.321C47.3138 136.968 47.5562 136.618 47.797 136.269C49.8113 133.352 51.722 130.585 53.6556 128.356C55.8357 125.842 57.9043 124.183 59.9903 123.7C61.974 123.241 64.2211 123.797 66.9331 126.343Z" fill="#EB8F7F" stroke="#783E32" stroke-width="2"/>
<path d="M32.4774 169.82C30.6165 168.582 26.0521 163.567 25.2669 163.585C24.4817 163.602 23.9812 164.635 23.9984 165.401C24.0157 166.167 26.702 169.177 26.702 169.177C32.5636 173.652 31.4108 173.626 37.3151 175.339C40.8793 175.467 45.9783 172.427 48.193 169.994L58.6828 159.034L63.2791 153.824L67.3405 148.114C69.3309 143.471 70.2974 139.872 70.2284 136.806C70.1428 132.998 69.0864 132.058 63.5656 127.148L63.4618 127.055C62.9309 126.583 60.1926 126.666 60.065 127.384C59.8944 128.342 62.1083 129.394 62.7463 130.138C63.822 131.392 66.7397 133.047 67.1106 137.896C67.4815 142.744 65.2063 146.37 64.1996 148.182C63.1929 149.993 42.4923 172.672 38.549 171.99C34.6058 171.308 34.3383 171.059 32.4774 169.82Z" fill="#FFD8C3" stroke="#F5C2AF" stroke-width="2"/>
<path d="M79.3101 140.138L79.3259 140.15L79.3423 140.162C83.1813 142.866 85.3415 145.819 86.3493 148.865C87.3595 151.918 87.2445 155.165 86.3568 158.506C84.5686 165.235 79.711 172.125 75.121 178.095C74.5571 178.828 74.0008 179.561 73.4488 180.288C71.7368 182.543 70.0656 184.744 68.3357 186.745C66.0524 189.386 63.733 191.596 61.2094 193.031C58.7099 194.451 56.0031 195.116 52.8914 194.658C49.7551 194.197 46.1234 192.583 41.8222 189.288C38.7847 186.961 37.6845 185.017 37.5694 183.333C37.4528 181.626 38.3197 179.856 40.0302 177.81C41.4832 176.072 43.4181 174.279 45.5676 172.288C45.9401 171.943 46.319 171.592 46.703 171.234C49.2747 168.837 52.029 166.177 54.3739 163.127C56.7167 160.08 58.7581 156.479 60.676 153.002C60.8826 152.627 61.0876 152.255 61.2914 151.884C62.9957 148.785 64.612 145.845 66.3064 143.438C68.2167 140.724 70.1032 138.872 72.1276 138.187C74.0536 137.536 76.3482 137.869 79.3101 140.138Z" fill="#EB8F7F" stroke="#783E32" stroke-width="2"/>
<path d="M49.5 186.769C47.5212 185.719 42.4642 181.177 41.6848 181.271C40.9053 181.365 40.5136 182.442 40.6095 183.203C40.7054 183.963 43.6876 186.695 43.6876 186.695C49.9798 190.573 48.8301 190.66 54.8807 191.786C58.4401 191.565 63.2008 188.04 65.1542 185.403L74.4641 173.471L78.5015 167.836L81.9553 161.758C83.4582 156.942 84.0499 153.267 83.666 150.224C83.1893 146.443 82.0416 145.612 76.0438 141.267L75.9309 141.185C75.3541 140.767 72.6383 141.118 72.585 141.844C72.5139 142.815 74.8247 143.644 75.536 144.322C76.7352 145.465 79.8083 146.825 80.6759 151.613C81.5435 156.401 79.6527 160.232 78.8373 162.132C78.0219 164.033 59.7576 188.626 55.7641 188.333C51.7706 188.041 51.4789 187.819 49.5 186.769Z" fill="#FFD8C3" stroke="#F5C2AF" stroke-width="2"/>
<path d="M94.6508 143.633L94.6682 143.643L94.6859 143.652C98.8978 145.767 101.487 148.373 102.951 151.238C104.417 154.11 104.801 157.337 104.435 160.768C103.697 167.681 99.9505 175.201 96.3264 181.773C95.8811 182.581 95.4432 183.387 95.0087 184.186C93.6613 186.666 92.3463 189.086 90.9425 191.316C89.0896 194.26 87.1354 196.783 84.8608 198.569C82.6083 200.337 80.034 201.389 76.886 201.391C73.7128 201.392 69.8732 200.326 65.1147 197.695C61.7531 195.837 60.3661 194.073 59.9942 192.424C59.618 190.755 60.203 188.88 61.5802 186.609C62.7504 184.679 64.3885 182.625 66.2088 180.342C66.5243 179.946 66.8453 179.544 67.1702 179.134C69.3461 176.389 71.6623 173.356 73.5143 169.998C75.3645 166.642 76.8317 162.784 78.1955 159.066C78.3424 158.665 78.488 158.267 78.6327 157.871C79.8432 154.557 80.991 151.416 82.2974 148.789C83.7702 145.827 85.3509 143.723 87.2459 142.751C89.05 141.827 91.3718 141.821 94.6508 143.633Z" fill="#EB8F7F" stroke="#783E32" stroke-width="2"/>
<path d="M72.3171 194.087C70.1997 193.338 64.504 189.585 63.7477 189.792C62.9914 189.998 62.769 191.12 62.9803 191.858C63.1916 192.596 66.5587 194.862 66.5587 194.862C73.3741 197.779 72.2506 198.032 78.4058 198.263C81.8912 197.525 86.0586 193.345 87.5861 190.452L94.9641 177.296L98.0932 171.136L100.577 164.622C101.326 159.641 101.348 155.921 100.502 152.968C99.4519 149.299 98.1898 148.645 91.5939 145.223L91.4698 145.159C90.8355 144.83 88.2039 145.573 88.2625 146.299C88.3408 147.269 90.7526 147.752 91.5598 148.318C92.9205 149.273 96.1675 150.17 97.7586 154.778C99.3497 159.385 98.0668 163.449 97.5516 165.447C97.0365 167.445 82.7438 194.426 78.7504 194.72C74.7569 195.013 74.4345 194.837 72.3171 194.087Z" fill="#FFD8C3" stroke="#F5C2AF" stroke-width="2"/>
<path d="M108.627 147.679L108.645 147.686L108.663 147.693C113.113 149.281 116.015 151.554 117.833 154.221C119.654 156.893 120.445 160.048 120.518 163.496C120.666 170.444 117.906 178.358 115.146 185.319C114.807 186.175 114.475 187.027 114.146 187.873C113.125 190.497 112.128 193.057 111.019 195.44C109.555 198.586 107.938 201.326 105.909 203.373C103.9 205.4 101.479 206.756 98.3551 207.139C95.2057 207.526 91.259 206.933 86.2017 204.899C82.6283 203.462 81.0263 201.879 80.4473 200.287C79.862 198.678 80.2034 196.749 81.2805 194.329C82.1958 192.273 83.5595 190.036 85.0752 187.55C85.3379 187.119 85.6051 186.681 85.8754 186.235C87.6851 183.247 89.5976 179.957 91.008 176.399C92.417 172.844 93.3818 168.837 94.2619 164.983C94.3567 164.568 94.4504 164.155 94.5436 163.744C95.3231 160.31 96.062 157.053 97.0238 154.289C98.108 151.172 99.408 148.894 101.164 147.701C102.836 146.565 105.14 146.277 108.627 147.679Z" fill="#EB8F7F" stroke="#783E32" stroke-width="2"/>
<path d="M92.8899 200.448C90.6935 199.961 84.5643 196.928 83.8402 197.225C83.1161 197.521 83.0382 198.662 83.3418 199.368C83.6453 200.075 87.2747 201.915 87.2747 201.915C94.4086 203.982 93.326 204.37 99.463 203.853C102.827 202.698 106.431 198.045 107.578 194.989L113.224 181.04L115.545 174.549L117.181 167.784C117.29 162.751 116.838 159.057 115.623 156.229C114.114 152.717 112.778 152.22 105.798 149.625L105.667 149.576C104.996 149.327 102.479 150.383 102.63 151.096C102.831 152.049 105.285 152.236 106.158 152.7C107.63 153.483 110.966 153.979 113.131 158.358C115.296 162.737 114.541 166.924 114.284 168.97C114.027 171.015 103.279 199.52 99.3539 200.295C95.4288 201.071 95.0863 200.935 92.8899 200.448Z" fill="#FFD8C3" stroke="#F5C2AF" stroke-width="2"/>
<path d="M115.988 147.654L116.007 147.656L116.027 147.657C120.751 148.034 124.169 149.472 126.649 151.571C129.133 153.675 130.754 156.51 131.765 159.814C133.8 166.472 133.296 174.816 132.533 182.243C132.439 183.156 132.351 184.064 132.264 184.965C131.995 187.759 131.731 190.486 131.312 193.07C130.758 196.482 129.946 199.542 128.548 202.041C127.164 204.515 125.201 206.451 122.293 207.632C119.361 208.823 115.393 209.276 109.963 208.628C106.125 208.17 104.147 207.059 103.155 205.675C102.153 204.277 101.957 202.33 102.335 199.719C102.657 197.5 103.362 194.991 104.146 192.201C104.282 191.717 104.42 191.225 104.559 190.725C105.489 187.375 106.437 183.706 106.827 179.909C107.217 176.116 107.055 172.003 106.853 168.059C106.831 167.634 106.809 167.211 106.787 166.791C106.602 163.278 106.427 159.948 106.601 157.034C106.797 153.748 107.429 151.217 108.795 149.613C110.097 148.084 112.242 147.207 115.988 147.654Z" fill="#EB8F7F" stroke="#783E32" stroke-width="2"/>
<path d="M115.197 202.603C112.947 202.704 106.213 201.371 105.595 201.846C104.978 202.32 105.214 203.439 105.699 204.041C106.184 204.644 110.184 205.475 110.184 205.475C117.624 205.616 116.687 206.271 122.462 204.18C125.39 202.193 127.596 196.772 127.869 193.529L129.511 178.616L129.979 171.756L129.713 164.81C128.446 159.93 127.005 156.487 125.063 154.076C122.651 151.082 121.228 150.95 113.792 150.26L113.652 150.247C112.937 150.181 110.799 151.853 111.138 152.501C111.592 153.368 114.009 152.91 114.977 153.131C116.609 153.503 119.96 153.116 123.24 156.775C126.521 160.434 126.933 164.667 127.243 166.705C127.553 168.743 124.959 199.012 121.387 200.778C117.815 202.545 117.447 202.503 115.197 202.603Z" fill="#FFD8C3" stroke="#F5C2AF" stroke-width="2"/>
<path d="M127.28 147.234L127.299 147.233L127.319 147.231C132.033 146.753 135.664 147.553 138.497 149.172C141.335 150.795 143.463 153.291 145.078 156.358C148.332 162.536 149.407 170.829 150.055 178.266C150.135 179.18 150.22 180.089 150.304 180.99C150.565 183.785 150.82 186.512 150.894 189.129C150.992 192.581 150.769 195.735 149.866 198.442C148.971 201.122 147.407 203.377 144.77 205.06C142.112 206.756 138.297 207.913 132.837 208.25C128.978 208.489 126.825 207.751 125.589 206.568C124.341 205.374 123.781 203.496 123.662 200.861C123.561 198.622 123.781 196.029 124.026 193.146C124.069 192.647 124.112 192.138 124.154 191.622C124.438 188.162 124.679 184.385 124.347 180.583C124.016 176.785 123.083 172.77 122.142 168.93C122.04 168.516 121.939 168.105 121.838 167.696C120.995 164.275 120.196 161.033 119.819 158.138C119.393 154.873 119.537 152.272 120.578 150.45C121.57 148.713 123.513 147.466 127.28 147.234Z" fill="#EB8F7F" stroke="#783E32" stroke-width="2"/>
<path d="M136.847 201.389C134.655 201.892 127.783 201.79 127.266 202.367C126.749 202.944 127.191 204.002 127.781 204.507C128.372 205.012 132.46 205.112 132.46 205.112C139.8 203.916 139.002 204.728 144.285 201.636C146.789 199.157 147.937 193.434 147.595 190.196L146.401 175.244L145.57 168.416L144 161.636C141.837 157.067 139.771 153.94 137.409 151.919C134.474 149.408 133.05 149.534 125.611 150.19L125.471 150.202C124.756 150.265 122.969 152.292 123.425 152.869C124.034 153.639 126.323 152.756 127.316 152.799C128.991 152.872 132.212 151.89 136.125 154.899C140.039 157.907 141.241 161.994 141.929 163.942C142.618 165.89 145.767 196.108 142.588 198.485C139.409 200.863 139.04 200.887 136.847 201.389Z" fill="#FFD8C3" stroke="#F5C2AF" stroke-width="2"/>
<path d="M177.396 44.4716C180.976 58.3274 171.818 72.3694 156.773 75.737C141.728 79.1046 126.711 70.4741 123.13 56.6183C119.55 42.7625 128.708 28.7205 143.753 25.3529C158.798 21.9853 173.815 30.6158 177.396 44.4716Z" fill="#D2F3A2" stroke="#27763F" stroke-width="2"/>
<ellipse cx="149.69" cy="50.5456" rx="12.3045" ry="12.0099" fill="#6DCF6E"/>
<path d="M142.091 50.0765C142.875 50.1077 143.458 49.3961 143.677 49.1349C143.677 49.1349 142.627 48.2626 141.758 48.2588C140.889 48.255 140.578 48.4271 140.578 48.4271C140.407 48.5536 140.104 48.9086 140.254 49.3165C140.5 49.6646 141.11 50.0375 142.091 50.0765Z" fill="#D2F3A2" stroke="#D2F3A2" stroke-width="2"/>
<path d="M143.834 55.5881C144.504 55.2071 144.561 54.3141 144.587 53.9833C144.587 53.9833 143.193 53.8037 142.469 54.2513C141.745 54.6989 141.59 55.0033 141.59 55.0033C141.524 55.1968 141.485 55.6489 141.853 55.9098C142.266 56.0712 142.996 56.0643 143.834 55.5881Z" fill="#D2F3A2" stroke="#D2F3A2" stroke-width="2"/>
<path d="M144.272 44.2888C144.663 44.9228 145.62 45.0016 145.975 45.0349C145.975 45.0349 146.207 43.743 145.746 43.057C145.286 42.371 144.964 42.2178 144.964 42.2178C144.758 42.1511 144.273 42.1018 143.982 42.4374C143.797 42.8169 143.784 43.4962 144.272 44.2888Z" fill="#D2F3A2" stroke="#D2F3A2" stroke-width="2"/>
<path d="M150.749 42.4796C150.659 43.2056 151.38 43.7971 151.645 44.0196C151.645 44.0196 152.654 43.107 152.72 42.3006C152.786 41.4942 152.624 41.1928 152.624 41.1928C152.501 41.0255 152.142 40.7186 151.694 40.8286C151.303 41.0323 150.86 41.5722 150.749 42.4796Z" fill="#D2F3A2" stroke="#D2F3A2" stroke-width="2"/>
<path d="M156.152 44.8241C155.463 45.1751 155.36 46.0646 155.318 46.3939C155.318 46.3939 156.701 46.6346 157.447 46.2194C158.193 45.8042 158.364 45.5069 158.364 45.5069C158.439 45.3165 158.501 44.8666 158.146 44.5898C157.742 44.4104 157.013 44.3852 156.152 44.8241Z" fill="#D2F3A2" stroke="#D2F3A2" stroke-width="2"/>
<path d="M158.47 50.1589C157.714 49.9597 156.971 50.5266 156.692 50.7336C156.692 50.7336 157.497 51.8082 158.342 51.9989C159.186 52.1896 159.532 52.0892 159.532 52.0892C159.729 52.0028 160.113 51.7227 160.068 51.2937C159.915 50.902 159.414 50.4079 158.47 50.1589Z" fill="#D2F3A2" stroke="#D2F3A2" stroke-width="2"/>
<path d="M155.947 55.7509C155.486 55.1592 154.525 55.1761 154.169 55.1782C154.169 55.1782 154.086 56.4858 154.622 57.1221C155.159 57.7584 155.497 57.8787 155.497 57.8787C155.709 57.9245 156.197 57.9254 156.447 57.5629C156.588 57.1671 156.523 56.4904 155.947 55.7509Z" fill="#D2F3A2" stroke="#D2F3A2" stroke-width="2"/>
<path d="M149.867 57.8966C149.97 57.1722 149.26 56.5691 148.999 56.3425C148.999 56.3425 147.973 57.2386 147.892 58.0439C147.811 58.8492 147.968 59.1531 147.968 59.1531C148.088 59.3223 148.441 59.635 148.891 59.5322C149.285 59.3348 149.738 58.8021 149.867 57.8966Z" fill="#D2F3A2" stroke="#D2F3A2" stroke-width="2"/>
</svg>
