<svg width="220" height="220" viewBox="0 0 220 220" fill="none" xmlns="http://www.w3.org/2000/svg">
<ellipse cx="110" cy="107.733" rx="110" ry="107.733" fill="#FDF5E8"/>
<path d="M64.9554 176.916C61.6096 179.346 58.2888 178.605 57.4121 175.589C56.5355 172.574 58.3427 168.109 61.6885 165.679C65.0342 163.25 68.3551 163.991 69.2318 167.006C70.1084 170.022 68.3012 174.487 64.9554 176.916Z" fill="#66401B" stroke="#260700"/>
<ellipse cx="1.27024" cy="1.56073" rx="1.27024" ry="1.56073" transform="matrix(0.27917 0.960242 -0.809161 0.587587 66.0444 164.887)" fill="#AC8C65"/>
<path d="M55.7127 167.106C52.367 169.535 49.0461 168.794 48.1694 165.779C47.2928 162.763 49.1 158.298 52.4458 155.869C55.7915 153.439 59.1124 154.18 59.9891 157.196C60.8657 160.211 59.0585 164.676 55.7127 167.106Z" fill="#66401B" stroke="#260700"/>
<ellipse cx="1.27024" cy="1.56073" rx="1.27024" ry="1.56073" transform="matrix(0.27917 0.960242 -0.809161 0.587587 56.8018 155.076)" fill="#AC8C65"/>
<path d="M58.0025 146.627C56.3409 147.664 54.6638 148.032 53.3029 147.813C51.9421 147.595 50.9269 146.799 50.4997 145.537C50.0725 144.275 50.2887 142.711 51.0528 141.167C51.817 139.624 53.1154 138.137 54.7771 137.101C56.4388 136.064 58.1158 135.696 59.4767 135.915C60.8376 136.133 61.8528 136.929 62.2799 138.191C62.7071 139.453 62.4909 141.017 61.7268 142.561C60.9626 144.104 59.6642 145.591 58.0025 146.627Z" fill="#66401B" stroke="#260700"/>
<ellipse cx="1.10581" cy="1.4883" rx="1.10581" ry="1.4883" transform="matrix(0.32068 0.947187 -0.848541 0.529129 59.1123 136.359)" fill="#AC8C65"/>
<path d="M85.0844 165.887C82.9677 168.375 79.7498 168.939 77.91 167.479C76.0702 166.018 76.0186 162.86 78.1354 160.372C80.2521 157.884 83.4699 157.321 85.3097 158.781C87.1496 160.241 87.2011 163.399 85.0844 165.887Z" fill="#66401B" stroke="#260700"/>
<ellipse cx="0.986985" cy="1.24163" rx="0.986985" ry="1.24163" transform="matrix(0.783282 0.621667 -0.647983 0.761655 81.7021 158.451)" fill="#AC8C65"/>
<path d="M90.476 152.301C88.3593 154.789 85.1414 155.353 83.3016 153.893C81.4618 152.433 81.4102 149.274 83.527 146.786C85.6437 144.298 88.8615 143.735 90.7013 145.195C92.5412 146.655 92.5927 149.813 90.476 152.301Z" fill="#66401B" stroke="#260700"/>
<ellipse cx="0.986985" cy="1.24163" rx="0.986985" ry="1.24163" transform="matrix(0.783282 0.621667 -0.647983 0.761655 87.0938 144.866)" fill="#AC8C65"/>
<path d="M75.0717 153.057C72.955 155.545 69.7371 156.108 67.8973 154.648C66.0575 153.188 66.0059 150.03 68.1227 147.542C70.2394 145.054 73.4572 144.49 75.297 145.95C77.1369 147.41 77.1884 150.569 75.0717 153.057Z" fill="#66401B" stroke="#260700"/>
<ellipse cx="0.986985" cy="1.24163" rx="0.986985" ry="1.24163" transform="matrix(0.783282 0.621667 -0.647983 0.761655 71.689 145.621)" fill="#AC8C65"/>
<path d="M85.8544 146.264C83.7377 148.752 80.5198 149.316 78.68 147.856C76.8402 146.395 76.7887 143.237 78.9054 140.749C81.0221 138.261 84.2399 137.698 86.0798 139.158C87.9196 140.618 87.9711 143.776 85.8544 146.264Z" fill="#66401B" stroke="#260700"/>
<ellipse cx="0.986985" cy="1.24163" rx="0.986985" ry="1.24163" transform="matrix(0.783282 0.621667 -0.647983 0.761655 82.4722 138.828)" fill="#AC8C65"/>
<path d="M69.6796 147.774C67.5629 150.262 64.345 150.826 62.5052 149.365C60.6654 147.905 60.6139 144.747 62.7306 142.259C64.8473 139.771 68.0651 139.207 69.905 140.668C71.7448 142.128 71.7963 145.286 69.6796 147.774Z" fill="#66401B" stroke="#260700"/>
<ellipse cx="0.986985" cy="1.24163" rx="0.986985" ry="1.24163" transform="matrix(0.783282 0.621667 -0.647983 0.761655 66.2969 140.337)" fill="#AC8C65"/>
<path d="M65.8285 151.548C63.7118 154.036 60.494 154.599 58.6541 153.139C56.8143 151.679 56.7628 148.52 58.8795 146.032C60.9962 143.544 64.214 142.981 66.0539 144.441C67.8937 145.901 67.9452 149.059 65.8285 151.548Z" fill="#66401B" stroke="#260700"/>
<ellipse cx="0.986985" cy="1.24163" rx="0.986985" ry="1.24163" transform="matrix(0.783282 0.621667 -0.647983 0.761655 62.4463 144.111)" fill="#AC8C65"/>
<path d="M78.5163 163.641C76.1945 166.127 72.6465 166.707 70.6026 165.229C68.5586 163.751 68.5178 160.576 70.8396 158.09C73.1614 155.603 76.7094 155.023 78.7534 156.501C80.7973 157.979 80.8381 161.154 78.5163 163.641Z" fill="#66401B" stroke="#260700"/>
<ellipse cx="1.04717" cy="1.29393" rx="1.04717" ry="1.29393" transform="matrix(0.810347 0.58595 -0.682501 0.730884 74.7788 156.186)" fill="#AC8C65"/>
<path d="M83.5508 178.603C82.7744 180.251 81.6091 181.45 80.3738 182.068C79.1383 182.687 77.866 182.714 76.8144 182.1C75.7629 181.485 75.0602 180.304 74.8155 178.82C74.5707 177.336 74.7944 175.587 75.5708 173.94C76.3472 172.292 77.5124 171.093 78.7478 170.475C79.9833 169.856 81.2556 169.829 82.3072 170.443C83.3587 171.058 84.0614 172.239 84.3061 173.723C84.5508 175.207 84.3272 176.956 83.5508 178.603Z" fill="#66401B" stroke="#260700"/>
<ellipse cx="1.02428" cy="1.38858" rx="1.02428" ry="1.38858" transform="matrix(0.863368 0.504575 -0.426261 0.9046 78.6812 170.953)" fill="#AC8C65"/>
<path d="M93.8403 34.0602C91.6613 42.9696 92.3325 56.0804 82.6961 53.8198C73.0598 51.5592 67.565 40.253 70.4231 28.5667C73.2812 16.8804 83.4099 9.23932 93.0463 11.4999C102.683 13.7605 96.0193 25.1507 93.8403 34.0602Z" fill="#9C0F17"/>
<ellipse cx="2.35813" cy="1.71976" rx="2.35813" ry="1.71976" transform="matrix(0.973569 0.228391 -0.237567 0.971371 85.8521 15.1113)" fill="#F8786A"/>
<ellipse cx="2.35813" cy="1.71976" rx="2.35813" ry="1.71976" transform="matrix(0.973569 0.228391 -0.237567 0.971371 80.1699 18.4888)" fill="#F8786A"/>
<ellipse cx="2.35813" cy="1.71976" rx="2.35813" ry="1.71976" transform="matrix(0.973569 0.228391 -0.237567 0.971371 78.4976 45.1807)" fill="#F8786A"/>
<ellipse cx="2.35813" cy="1.71976" rx="2.35813" ry="1.71976" transform="matrix(0.973569 0.228391 -0.237567 0.971371 75.5396 37.4209)" fill="#F8786A"/>
<ellipse cx="2.35813" cy="1.71976" rx="2.35813" ry="1.71976" transform="matrix(0.973569 0.228391 -0.237567 0.971371 74.4209 30.0942)" fill="#F8786A"/>
<ellipse cx="2.35813" cy="1.71976" rx="2.35813" ry="1.71976" transform="matrix(0.973569 0.228391 -0.237567 0.971371 76.0557 23.4116)" fill="#F8786A"/>
<path d="M91.6382 33.5444C89.4592 42.4539 82.7959 53.8441 92.4322 56.1047C102.069 58.3653 112.197 50.7242 115.055 39.0379C117.914 27.3516 112.419 16.0454 102.782 13.7848C93.146 11.5242 93.8172 24.635 91.6382 33.5444Z" fill="#9C0F17"/>
<ellipse cx="2.35813" cy="1.71976" rx="2.35813" ry="1.71976" transform="matrix(-0.973569 -0.228391 -0.237567 0.971371 107.527 20.1958)" fill="#F8786A"/>
<ellipse cx="2.35813" cy="1.71976" rx="2.35813" ry="1.71976" transform="matrix(-0.973569 -0.228391 -0.237567 0.971371 111.029 25.728)" fill="#F8786A"/>
<ellipse cx="2.35813" cy="1.71976" rx="2.35813" ry="1.71976" transform="matrix(-0.973569 -0.228391 -0.237567 0.971371 100.172 50.2661)" fill="#F8786A"/>
<ellipse cx="2.35813" cy="1.71976" rx="2.35813" ry="1.71976" transform="matrix(-0.973569 -0.228391 -0.237567 0.971371 106.399 44.6602)" fill="#F8786A"/>
<ellipse cx="2.35813" cy="1.71976" rx="2.35813" ry="1.71976" transform="matrix(-0.973569 -0.228391 -0.237567 0.971371 110.785 38.625)" fill="#F8786A"/>
<ellipse cx="2.35813" cy="1.71976" rx="2.35813" ry="1.71976" transform="matrix(-0.973569 -0.228391 -0.237567 0.971371 112.419 31.9419)" fill="#F8786A"/>
<path d="M129.205 45.8923C124.893 54.0216 122.31 66.9027 113.517 62.427C104.724 57.9514 102.181 45.6791 107.837 35.0161C113.493 24.3531 125.206 19.3372 133.999 23.8129C142.792 28.2885 133.517 37.763 129.205 45.8923Z" fill="#9C0F17"/>
<ellipse cx="2.35066" cy="1.72539" rx="2.35066" ry="1.72539" transform="matrix(0.891196 0.453619 -0.468588 0.883417 126.128 25.6133)" fill="#F8786A"/>
<ellipse cx="2.35066" cy="1.72539" rx="2.35066" ry="1.72539" transform="matrix(0.891196 0.453619 -0.468588 0.883417 119.781 27.5454)" fill="#F8786A"/>
<ellipse cx="2.35066" cy="1.72539" rx="2.35066" ry="1.72539" transform="matrix(0.891196 0.453619 -0.468588 0.883417 111.575 53.0493)" fill="#F8786A"/>
<ellipse cx="2.35066" cy="1.72539" rx="2.35066" ry="1.72539" transform="matrix(0.891196 0.453619 -0.468588 0.883417 110.618 44.8193)" fill="#F8786A"/>
<ellipse cx="2.35066" cy="1.72539" rx="2.35066" ry="1.72539" transform="matrix(0.891196 0.453619 -0.468588 0.883417 111.34 37.4448)" fill="#F8786A"/>
<ellipse cx="2.35066" cy="1.72539" rx="2.35066" ry="1.72539" transform="matrix(0.891196 0.453619 -0.468588 0.883417 114.575 31.3472)" fill="#F8786A"/>
<path d="M127.196 44.8702C122.884 52.9995 113.609 62.474 122.402 66.9497C131.195 71.4254 142.908 66.4095 148.564 55.7465C154.22 45.0835 151.677 32.8112 142.884 28.3356C134.091 23.8599 131.508 36.7409 127.196 44.8702Z" fill="#9C0F17"/>
<ellipse cx="2.35066" cy="1.72539" rx="2.35066" ry="1.72539" transform="matrix(-0.891196 -0.453619 -0.468588 0.883417 145.906 35.6797)" fill="#F8786A"/>
<ellipse cx="2.35066" cy="1.72539" rx="2.35066" ry="1.72539" transform="matrix(-0.891196 -0.453619 -0.468588 0.883417 147.94 41.8774)" fill="#F8786A"/>
<ellipse cx="2.35066" cy="1.72539" rx="2.35066" ry="1.72539" transform="matrix(-0.891196 -0.453619 -0.468588 0.883417 131.352 63.1167)" fill="#F8786A"/>
<ellipse cx="2.35066" cy="1.72539" rx="2.35066" ry="1.72539" transform="matrix(-0.891196 -0.453619 -0.468588 0.883417 138.778 59.1519)" fill="#F8786A"/>
<ellipse cx="2.35066" cy="1.72539" rx="2.35066" ry="1.72539" transform="matrix(-0.891196 -0.453619 -0.468588 0.883417 144.523 54.334)" fill="#F8786A"/>
<ellipse cx="2.35066" cy="1.72539" rx="2.35066" ry="1.72539" transform="matrix(-0.891196 -0.453619 -0.468588 0.883417 147.757 48.2373)" fill="#F8786A"/>
<path d="M54.5273 56.7092C53.4601 58.4867 51.1178 59.0864 49.2919 58.034C47.4659 56.9815 46.8631 54.6843 47.9303 52.9068C48.9975 51.1293 51.3398 50.5295 53.1657 51.582C54.9917 52.6344 55.5945 54.9317 54.5273 56.7092Z" fill="#86C10E" stroke="#629603"/>
<ellipse cx="0.86133" cy="0.852266" rx="0.86133" ry="0.852266" transform="matrix(0.86639 0.499369 -0.514753 0.857338 50.3066 51.3247)" fill="#BAF34E"/>
<path d="M45.9672 62.5993C44.9 64.3768 42.5578 64.9765 40.7318 63.9241C38.9059 62.8717 38.303 60.5744 39.3702 58.7969C40.4375 57.0194 42.7797 56.4197 44.6057 57.4721C46.4316 58.5245 47.0345 60.8218 45.9672 62.5993Z" fill="#86C10E" stroke="#629603"/>
<ellipse cx="0.86133" cy="0.852266" rx="0.86133" ry="0.852266" transform="matrix(0.86639 0.499369 -0.514753 0.857338 41.7461 57.2144)" fill="#BAF34E"/>
<path d="M37.6699 64.7048C36.6026 66.4823 34.2604 67.082 32.4345 66.0296C30.6085 64.9771 30.0057 62.6799 31.0729 60.9024C32.1401 59.1249 34.4823 58.5251 36.3083 59.5776C38.1342 60.63 38.7371 62.9273 37.6699 64.7048Z" fill="#86C10E" stroke="#629603"/>
<ellipse cx="0.86133" cy="0.852266" rx="0.86133" ry="0.852266" transform="matrix(0.86639 0.499369 -0.514753 0.857338 33.4492 59.3203)" fill="#BAF34E"/>
<path d="M41.5795 69.9089C40.5123 71.6864 38.1701 72.2861 36.3441 71.2337C34.5182 70.1812 33.9153 67.884 34.9826 66.1065C36.0498 64.329 38.392 63.7292 40.218 64.7817C42.0439 65.8341 42.6468 68.1314 41.5795 69.9089Z" fill="#86C10E" stroke="#629603"/>
<ellipse cx="0.86133" cy="0.852266" rx="0.86133" ry="0.852266" transform="matrix(0.86639 0.499369 -0.514753 0.857338 37.3579 64.5249)" fill="#BAF34E"/>
<path d="M63.1728 43.9836C62.1056 45.7611 59.7633 46.3608 57.9374 45.3084C56.1114 44.256 55.5086 41.9587 56.5758 40.1812C57.643 38.4037 59.9853 37.804 61.8112 38.8564C63.6372 39.9088 64.24 42.2061 63.1728 43.9836Z" fill="#86C10E" stroke="#629603"/>
<ellipse cx="0.86133" cy="0.852266" rx="0.86133" ry="0.852266" transform="matrix(0.86639 0.499369 -0.514753 0.857338 58.9517 38.5991)" fill="#BAF34E"/>
<path d="M62.3813 38.6081C61.3141 40.3856 58.9718 40.9853 57.1459 39.9329C55.3199 38.8805 54.7171 36.5832 55.7843 34.8057C56.8515 33.0282 59.1938 32.4285 61.0197 33.4809C62.8457 34.5333 63.4485 36.8306 62.3813 38.6081Z" fill="#86C10E" stroke="#629603"/>
<ellipse cx="0.86133" cy="0.852266" rx="0.86133" ry="0.852266" transform="matrix(0.86639 0.499369 -0.514753 0.857338 58.1616 33.2236)" fill="#BAF34E"/>
<path d="M53.7377 68.0632C52.6705 69.8407 50.3283 70.4404 48.5023 69.388C46.6764 68.3355 46.0735 66.0383 47.1408 64.2608C48.208 62.4833 50.5502 61.8835 52.3762 62.936C54.2021 63.9884 54.805 66.2857 53.7377 68.0632Z" fill="#86C10E" stroke="#629603"/>
<ellipse cx="0.86133" cy="0.852266" rx="0.86133" ry="0.852266" transform="matrix(0.86639 0.499369 -0.514753 0.857338 49.5171 62.6782)" fill="#BAF34E"/>
<path d="M47.2416 72.1891C46.1744 73.9666 43.8322 74.5664 42.0062 73.514C40.1803 72.4615 39.5774 70.1643 40.6447 68.3868C41.7119 66.6093 44.0541 66.0095 45.8801 67.062C47.706 68.1144 48.3089 70.4116 47.2416 72.1891Z" fill="#86C10E" stroke="#629603"/>
<ellipse cx="0.86133" cy="0.852266" rx="0.86133" ry="0.852266" transform="matrix(0.86639 0.499369 -0.514753 0.857338 43.021 66.8057)" fill="#BAF34E"/>
<path d="M31.8339 76.0998C30.7667 77.8773 28.4245 78.477 26.5985 77.4246C24.7726 76.3722 24.1697 74.0749 25.2369 72.2974C26.3042 70.5199 28.6464 69.9202 30.4724 70.9726C32.2983 72.025 32.9012 74.3223 31.8339 76.0998Z" fill="#86C10E" stroke="#629603"/>
<ellipse cx="0.86133" cy="0.852266" rx="0.86133" ry="0.852266" transform="matrix(0.86639 0.499369 -0.514753 0.857338 27.6133 70.7158)" fill="#BAF34E"/>
<path d="M40.7895 81.2609C39.7223 83.0384 37.38 83.6382 35.5541 82.5857C33.7281 81.5333 33.1253 79.236 34.1925 77.4586C35.2597 75.6811 37.602 75.0813 39.4279 76.1337C41.2539 77.1862 41.8567 79.4834 40.7895 81.2609Z" fill="#86C10E" stroke="#629603"/>
<ellipse cx="0.86133" cy="0.852266" rx="0.86133" ry="0.852266" transform="matrix(0.86639 0.499369 -0.514753 0.857338 36.5693 75.877)" fill="#BAF34E"/>
<path d="M50.1396 80.7468C49.0724 82.5242 46.7301 83.124 44.9042 82.0716C43.0782 81.0191 42.4754 78.7219 43.5426 76.9444C44.6098 75.1669 46.9521 74.5671 48.778 75.6196C50.604 76.672 51.2068 78.9693 50.1396 80.7468Z" fill="#86C10E" stroke="#629603"/>
<ellipse cx="0.86133" cy="0.852266" rx="0.86133" ry="0.852266" transform="matrix(0.86639 0.499369 -0.514753 0.857338 45.9194 75.3628)" fill="#BAF34E"/>
<path d="M59.2704 72.235C58.2032 74.0125 55.861 74.6123 54.035 73.5599C52.2091 72.5074 51.6062 70.2102 52.6735 68.4327C53.7407 66.6552 56.0829 66.0554 57.9089 67.1079C59.7348 68.1603 60.3377 70.4575 59.2704 72.235Z" fill="#86C10E" stroke="#629603"/>
<ellipse cx="0.86133" cy="0.852266" rx="0.86133" ry="0.852266" transform="matrix(0.86639 0.499369 -0.514753 0.857338 55.0493 66.8501)" fill="#BAF34E"/>
<path d="M43.9521 86.0343C42.8849 87.8118 40.5426 88.4116 38.7167 87.3592C36.8907 86.3067 36.2879 84.0095 37.3551 82.232C38.4223 80.4545 40.7646 79.8547 42.5905 80.9072C44.4165 81.9596 45.0193 84.2569 43.9521 86.0343Z" fill="#86C10E" stroke="#629603"/>
<ellipse cx="0.86133" cy="0.852266" rx="0.86133" ry="0.852266" transform="matrix(0.86639 0.499369 -0.514753 0.857338 39.7295 80.6499)" fill="#BAF34E"/>
<path d="M28.3666 86.8908C27.2994 88.6683 24.9572 89.268 23.1312 88.2156C21.3053 87.1632 20.7024 84.8659 21.7697 83.0884C22.8369 81.3109 25.1791 80.7112 27.0051 81.7636C28.831 82.8161 29.4339 85.1133 28.3666 86.8908Z" fill="#86C10E" stroke="#629603"/>
<ellipse cx="0.86133" cy="0.852266" rx="0.86133" ry="0.852266" transform="matrix(0.86639 0.499369 -0.514753 0.857338 24.1465 81.5059)" fill="#BAF34E"/>
<path d="M25.0327 95.7907C23.9654 97.5682 21.6232 98.168 19.7972 97.1155C17.9713 96.0631 17.3685 93.7658 18.4357 91.9883C19.5029 90.2108 21.8451 89.6111 23.6711 90.6635C25.497 91.716 26.0999 94.0132 25.0327 95.7907Z" fill="#86C10E" stroke="#629603"/>
<ellipse cx="0.86133" cy="0.852266" rx="0.86133" ry="0.852266" transform="matrix(0.86639 0.499369 -0.514753 0.857338 20.8115 90.4072)" fill="#BAF34E"/>
<path d="M36.7084 89.7311C35.6412 91.5086 33.299 92.1084 31.473 91.0559C29.6471 90.0035 29.0442 87.7063 30.1115 85.9288C31.1787 84.1513 33.5209 83.5515 35.3469 84.6039C37.1728 85.6564 37.7757 87.9536 36.7084 89.7311Z" fill="#86C10E" stroke="#629603"/>
<ellipse cx="0.86133" cy="0.852266" rx="0.86133" ry="0.852266" transform="matrix(0.86639 0.499369 -0.514753 0.857338 32.4858 84.3467)" fill="#BAF34E"/>
<path d="M50.7983 88.0138C49.7311 89.7913 47.3888 90.3911 45.5629 89.3387C43.7369 88.2862 43.1341 85.989 44.2013 84.2115C45.2685 82.434 47.6108 81.8342 49.4367 82.8867C51.2627 83.9391 51.8655 86.2363 50.7983 88.0138Z" fill="#86C10E" stroke="#629603"/>
<ellipse cx="0.86133" cy="0.852266" rx="0.86133" ry="0.852266" transform="matrix(0.86639 0.499369 -0.514753 0.857338 46.5776 82.6299)" fill="#BAF34E"/>
<path d="M54.3954 75.3298C53.3282 77.1073 50.986 77.707 49.16 76.6546C47.3341 75.6021 46.7312 73.3049 47.7985 71.5274C48.8657 69.7499 51.2079 69.1501 53.0339 70.2026C54.8598 71.255 55.4627 73.5523 54.3954 75.3298Z" fill="#86C10E" stroke="#629603"/>
<ellipse cx="0.86133" cy="0.852266" rx="0.86133" ry="0.852266" transform="matrix(0.86639 0.499369 -0.514753 0.857338 50.1763 69.9453)" fill="#BAF34E"/>
<path d="M65.1523 82.5138C64.0851 84.2913 61.7428 84.8911 59.9169 83.8387C58.0909 82.7862 57.4881 80.489 58.5553 78.7115C59.6225 76.934 61.9648 76.3342 63.7907 77.3867C65.6167 78.4391 66.2195 80.7363 65.1523 82.5138Z" fill="#86C10E" stroke="#629603"/>
<ellipse cx="0.86133" cy="0.852266" rx="0.86133" ry="0.852266" transform="matrix(0.86639 0.499369 -0.514753 0.857338 60.9321 77.1294)" fill="#BAF34E"/>
<path d="M56.8574 84.6193C55.7901 86.3968 53.4479 86.9966 51.622 85.9441C49.796 84.8917 49.1932 82.5944 50.2604 80.817C51.3276 79.0395 53.6698 78.4397 55.4958 79.4921C57.3217 80.5446 57.9246 82.8418 56.8574 84.6193Z" fill="#86C10E" stroke="#629603"/>
<ellipse cx="0.86133" cy="0.852266" rx="0.86133" ry="0.852266" transform="matrix(0.86639 0.499369 -0.514753 0.857338 52.6353 79.2344)" fill="#BAF34E"/>
<path d="M38.5058 75.026C37.4386 76.8035 35.0963 77.4033 33.2704 76.3509C31.4444 75.2984 30.8416 73.0012 31.9088 71.2237C32.976 69.4462 35.3183 68.8464 37.1442 69.8989C38.9702 70.9513 39.573 73.2486 38.5058 75.026Z" fill="#86C10E" stroke="#629603"/>
<ellipse cx="0.86133" cy="0.852266" rx="0.86133" ry="0.852266" transform="matrix(0.86639 0.499369 -0.514753 0.857338 34.2852 69.6416)" fill="#BAF34E"/>
<path d="M35.3041 82.0353C34.2369 83.8128 31.8947 84.4126 30.0687 83.3601C28.2428 82.3077 27.6399 80.0105 28.7072 78.233C29.7744 76.4555 32.1166 75.8557 33.9426 76.9081C35.7685 77.9606 36.3714 80.2578 35.3041 82.0353Z" fill="#86C10E" stroke="#629603"/>
<ellipse cx="0.86133" cy="0.852266" rx="0.86133" ry="0.852266" transform="matrix(0.86639 0.499369 -0.514753 0.857338 31.083 76.6509)" fill="#BAF34E"/>
<path d="M75.0317 91.1608C73.9645 92.9383 71.6222 93.5381 69.7963 92.4856C67.9703 91.4332 67.3675 89.136 68.4347 87.3585C69.5019 85.581 71.8442 84.9812 73.6701 86.0336C75.4961 87.0861 76.0989 89.3833 75.0317 91.1608Z" fill="#86C10E" stroke="#629603"/>
<ellipse cx="0.86133" cy="0.852266" rx="0.86133" ry="0.852266" transform="matrix(0.86639 0.499369 -0.514753 0.857338 70.811 85.7759)" fill="#BAF34E"/>
<path d="M72.0019 84.4953C70.9347 86.2728 68.5924 86.8725 66.7665 85.8201C64.9405 84.7677 64.3377 82.4704 65.4049 80.6929C66.4721 78.9154 68.8144 78.3157 70.6403 79.3681C72.4663 80.4205 73.0691 82.7178 72.0019 84.4953Z" fill="#86C10E" stroke="#629603"/>
<ellipse cx="0.86133" cy="0.852266" rx="0.86133" ry="0.852266" transform="matrix(0.86639 0.499369 -0.514753 0.857338 67.7812 79.1108)" fill="#BAF34E"/>
<path d="M61.5537 78.4733C60.4864 80.2508 58.1442 80.8506 56.3182 79.7981C54.4923 78.7457 53.8894 76.4485 54.9567 74.671C56.0239 72.8935 58.3661 72.2937 60.1921 73.3461C62.018 74.3986 62.6209 76.6958 61.5537 78.4733Z" fill="#86C10E" stroke="#629603"/>
<ellipse cx="0.86133" cy="0.852266" rx="0.86133" ry="0.852266" transform="matrix(0.86639 0.499369 -0.514753 0.857338 57.333 73.0884)" fill="#BAF34E"/>
<path d="M144.846 162.225C145.167 163.167 145.577 164.012 146.005 164.763C146.508 165.643 147.058 166.429 147.506 167.055C147.618 167.212 147.721 167.355 147.818 167.49C148.147 167.947 148.398 168.297 148.637 168.665C149.229 169.576 149.203 169.82 149.202 169.824L149.202 169.825C149.202 169.839 149.202 169.969 149.077 170.261C148.94 170.581 148.653 171.096 148.06 171.826L147.243 172.83L147.027 174.097C146.788 175.498 147.024 176.743 147.272 177.61C147.525 178.492 147.885 179.298 148.182 179.917C148.492 180.561 148.732 181.022 148.929 181.402C149.021 181.58 149.105 181.741 149.181 181.894L146.189 182.749L145.972 186.225C145.904 187.316 145.778 187.952 145.684 188.29C145.632 188.31 145.573 188.333 145.504 188.36L145.472 188.372C145.327 188.428 145.134 188.503 144.937 188.583C144.033 188.952 142.681 189.578 141.389 190.842L140.787 191.432L140.415 192.183C139.115 194.807 138.186 196.262 137.573 197.038C137.535 197.027 137.497 197.017 137.459 197.007C136.15 196.666 134.067 196.323 131.619 197.319L130.381 197.823L129.562 198.861C128.685 199.971 128.07 200.558 127.702 200.856C127.633 200.822 127.564 200.787 127.483 200.745C127.348 200.676 127.179 200.59 126.92 200.463C126.032 200.024 124.354 199.228 122.206 199.2L120.293 199.175L118.844 200.399C117.488 201.543 116.452 202.263 115.685 202.698C115.616 202.737 115.55 202.773 115.488 202.806C115.287 202.35 115.04 201.718 114.681 200.8L114.613 200.625L114.581 200.544C114.055 199.196 113.111 196.776 111.318 195.017L108.718 192.463L108.12 192.764C108.117 191.814 107.936 190.612 107.23 189.425L105.88 187.155L103.205 186.979C101.161 186.845 99.9761 186.588 99.3329 186.393C99.4055 186.117 99.5082 185.78 99.6491 185.355C99.7102 185.171 99.7892 184.941 99.8769 184.685C100.068 184.128 100.3 183.452 100.477 182.874C100.992 181.199 101.777 178.261 100.692 175.248L99.7189 172.546L96.8438 172.027C96.8019 172.02 96.7608 172.012 96.7204 172.004C96.7784 171.889 96.8322 171.781 96.8773 171.687C97.1577 171.108 97.5215 170.297 97.7599 169.378C98.0016 168.446 98.1793 167.163 97.8434 165.733C97.188 162.944 96.7347 160.278 96.5234 157.846C96.3416 155.754 95.6319 153.368 94.9379 151.285C94.5135 150.011 93.9955 148.572 93.5018 147.2C93.1913 146.337 92.8905 145.502 92.6286 144.75C92.2799 143.75 91.9777 142.84 91.7312 142.023C92.2744 142.208 92.8633 142.418 93.4981 142.651C94.0755 142.863 94.6999 143.098 95.3464 143.341C96.7322 143.862 98.2194 144.421 99.5629 144.877C101.462 145.521 103.818 146.232 105.938 146.317C107.735 146.389 109.591 146.013 110.822 145.764C110.97 145.734 111.113 145.705 111.253 145.676C112.496 145.423 113.397 145.24 114.25 145.173C115.03 145.111 115.343 145.194 115.413 145.217C115.474 145.279 115.594 145.44 115.746 145.797L117.974 151.02L122.882 148.202C122.969 148.391 123.067 148.583 123.176 148.774C123.973 150.171 125.235 151.314 126.927 151.975C128.484 152.584 130.135 152.68 131.688 152.559L132.167 152.521L132.63 152.396C136.06 151.467 137.072 151.947 137.11 151.966C137.111 151.966 137.112 151.966 137.113 151.967C137.126 151.973 137.174 151.994 137.283 152.14C137.433 152.34 137.629 152.684 137.895 153.324C138.025 153.638 138.153 153.974 138.305 154.378C138.321 154.42 138.337 154.464 138.354 154.509C138.486 154.862 138.641 155.274 138.803 155.679C139.162 156.572 139.684 157.757 140.494 158.878C141.349 160.061 142.565 161.233 144.296 162.001C144.478 162.082 144.662 162.156 144.846 162.225ZM126.246 146.55C126.246 146.551 126.237 146.553 126.221 146.556C126.238 146.552 126.246 146.55 126.246 146.55ZM122.026 143.602C122.019 143.56 122.017 143.536 122.017 143.534C122.018 143.533 122.022 143.554 122.026 143.602ZM115.371 145.184C115.372 145.182 115.385 145.189 115.409 145.213C115.383 145.198 115.371 145.186 115.371 145.184ZM94.7975 171.461C94.7976 171.461 94.8001 171.462 94.8047 171.465C94.7998 171.462 94.7975 171.461 94.7975 171.461ZM95.7838 173.925C95.7816 173.934 95.7801 173.939 95.78 173.939C95.7798 173.939 95.7809 173.935 95.7838 173.925ZM115.976 203.699C115.976 203.699 115.975 203.697 115.972 203.695C115.975 203.697 115.976 203.698 115.976 203.699ZM138.548 197.311C138.548 197.311 138.545 197.31 138.54 197.309C138.545 197.31 138.548 197.311 138.548 197.311ZM149.709 183.192C149.709 183.192 149.705 183.177 149.702 183.15C149.709 183.179 149.71 183.193 149.709 183.192ZM150.422 181.47C150.439 181.457 150.449 181.452 150.449 181.452C150.45 181.452 150.442 181.459 150.422 181.47Z" fill="#A9B748" stroke="#C7D776" stroke-width="10"/>
<path d="M172.337 123.093C172.897 123.932 173.519 124.651 174.133 125.272C174.847 125.993 175.583 126.612 176.18 127.104C176.328 127.227 176.465 127.339 176.594 127.445C177.032 127.805 177.368 128.08 177.697 128.377C178.498 129.1 178.557 129.354 178.561 129.371L178.561 129.372L178.561 129.373C178.565 129.386 178.598 129.508 178.554 129.815C178.507 130.152 178.367 130.716 177.987 131.566L177.454 132.757L177.579 134.047C177.717 135.465 178.271 136.606 178.736 137.378C179.21 138.163 179.767 138.849 180.216 139.371C180.682 139.912 181.033 140.297 181.323 140.614C181.455 140.758 181.574 140.889 181.686 141.014L179.033 142.586L179.743 146.035C179.957 147.076 180.005 147.714 180.006 148.067C179.968 148.095 179.926 148.125 179.878 148.16L179.851 148.179C179.725 148.27 179.558 148.391 179.388 148.519C178.609 149.105 177.458 150.056 176.534 151.615L176.1 152.348L175.936 153.179C175.376 156.007 174.866 157.636 174.482 158.539C174.447 158.539 174.412 158.539 174.376 158.539C173.031 158.539 170.924 158.729 168.809 160.317L167.732 161.126L167.204 162.354C166.659 163.623 166.226 164.337 165.953 164.716C165.875 164.7 165.797 164.683 165.705 164.663C165.555 164.63 165.37 164.59 165.088 164.532C164.119 164.333 162.296 163.987 160.216 164.5L158.35 164.961L157.257 166.526C156.25 167.971 155.44 168.924 154.817 169.533C154.758 169.591 154.702 169.645 154.648 169.694C154.328 169.301 153.918 168.744 153.317 167.929L153.195 167.763L153.146 167.696C152.282 166.523 150.741 164.433 148.561 163.191L145.403 161.394L144.872 161.863C144.626 160.935 144.138 159.792 143.128 158.807L141.252 156.978L138.647 157.477C136.585 157.872 135.359 157.916 134.69 157.883C134.687 157.595 134.698 157.235 134.723 156.775C134.734 156.582 134.75 156.34 134.767 156.071C134.806 155.485 134.853 154.771 134.872 154.167C134.93 152.411 134.916 149.376 133.083 146.745L131.455 144.409L128.574 144.63C128.509 144.635 128.446 144.64 128.384 144.644C128.412 144.508 128.437 144.38 128.458 144.271C128.577 143.639 128.716 142.76 128.705 141.808C128.694 140.841 128.528 139.556 127.831 138.264C126.465 135.733 125.327 133.269 124.484 130.971C123.76 128.998 122.45 126.874 121.234 125.036C120.489 123.912 119.612 122.653 118.775 121.452C118.249 120.697 117.739 119.964 117.288 119.303C116.705 118.449 116.186 117.665 115.742 116.953C116.297 116.994 116.899 117.047 117.546 117.11C118.161 117.169 118.826 117.239 119.515 117.311C120.991 117.465 122.573 117.631 123.99 117.733C125.993 117.877 128.453 117.97 130.521 117.519C132.277 117.136 133.974 116.304 135.098 115.753C135.233 115.687 135.364 115.622 135.491 115.56C136.627 115.002 137.448 114.598 138.253 114.319C139.039 114.046 139.359 114.064 139.412 114.07C139.417 114.073 139.425 114.077 139.435 114.084C139.485 114.116 139.658 114.238 139.919 114.571L143.409 119.014L147.411 115.056C147.554 115.229 147.708 115.402 147.876 115.571C149.001 116.709 150.505 117.488 152.299 117.7C153.954 117.894 155.571 117.574 157.043 117.064L157.498 116.906L157.915 116.667C160.977 114.911 162.084 115.113 162.143 115.126C162.144 115.126 162.145 115.126 162.146 115.126C162.17 115.131 162.232 115.143 162.386 115.265C162.589 115.425 162.873 115.713 163.299 116.266C163.508 116.538 163.72 116.831 163.972 117.183C163.999 117.22 164.026 117.258 164.054 117.296C164.275 117.605 164.532 117.964 164.795 118.314C165.376 119.086 166.187 120.094 167.258 120.968C168.386 121.889 169.857 122.708 171.718 123.013C171.924 123.047 172.131 123.073 172.337 123.093ZM150.211 112.627C150.211 112.627 150.203 112.632 150.188 112.639C150.204 112.63 150.212 112.626 150.211 112.627ZM145.417 110.876C145.4 110.838 145.391 110.816 145.392 110.815C145.392 110.813 145.401 110.832 145.417 110.876ZM126.431 144.596C126.431 144.596 126.434 144.597 126.439 144.598C126.434 144.597 126.431 144.596 126.431 144.596ZM127.989 146.701C127.989 146.71 127.989 146.715 127.989 146.715C127.989 146.715 127.989 146.711 127.989 146.701ZM155.334 170.405C155.334 170.405 155.333 170.404 155.33 170.402C155.333 170.404 155.334 170.405 155.334 170.405ZM175.511 158.557C175.511 158.558 175.508 158.558 175.502 158.558C175.508 158.558 175.511 158.557 175.511 158.557ZM182.558 142.162C182.557 142.162 182.55 142.148 182.539 142.122C182.554 142.149 182.559 142.163 182.558 142.162ZM182.813 140.271C182.827 140.255 182.835 140.247 182.836 140.247C182.836 140.247 182.829 140.255 182.813 140.271Z" fill="#A9B748" stroke="#C7D776" stroke-width="10"/>
<path d="M139.291 139.647C139.849 143.883 137.738 149.915 137.493 149.946C137.249 149.977 137.964 144.122 137.406 139.886C136.848 135.65 135.313 133.257 136.517 133.105C137.72 132.953 138.733 135.411 139.291 139.647Z" fill="#879523"/>
<path d="M130.819 131.159C131.199 134.041 129.633 138.162 129.456 138.185C129.279 138.207 129.831 134.214 129.452 131.331C129.072 128.449 127.973 126.828 128.847 126.717C129.72 126.607 130.439 128.276 130.819 131.159Z" fill="#75871B"/>
<path d="M155.445 150.296C155.736 152.504 154.052 155.723 153.874 155.745C153.697 155.768 154.368 152.677 154.077 150.469C153.787 148.261 152.742 147.045 153.615 146.935C154.488 146.824 155.154 148.088 155.445 150.296Z" fill="#98A440"/>
<path d="M164.324 154.814C164.506 156.195 162.676 158.307 162.498 158.329C162.321 158.352 163.138 156.368 162.956 154.987C162.774 153.606 161.795 152.886 162.668 152.776C163.541 152.666 164.142 153.433 164.324 154.814Z" fill="#BAC664"/>
<path d="M146.246 146.902C146.688 150.26 145.207 155.017 145.03 155.04C144.852 155.062 145.321 150.433 144.878 147.075C144.436 143.717 143.3 141.811 144.173 141.7C145.046 141.59 145.803 143.544 146.246 146.902Z" fill="#7D8F21"/>
<path d="M146.074 127.556C150.287 126.466 155.19 122.275 155.127 122.041C155.064 121.808 149.802 124.664 145.589 125.755C141.376 126.845 138.538 126.353 138.848 127.503C139.157 128.653 141.862 128.646 146.074 127.556Z" fill="#CAD76D"/>
<path d="M134.86 123.062C137.727 122.321 141.03 119.346 140.985 119.177C140.939 119.007 137.375 121.014 134.508 121.756C131.642 122.497 129.696 122.111 129.921 122.946C130.146 123.78 131.994 123.804 134.86 123.062Z" fill="#CAD76D"/>
<path d="M162.224 138.209C164.42 137.641 166.826 134.898 166.78 134.729C166.735 134.56 164.068 136.334 161.872 136.902C159.676 137.47 158.134 136.98 158.358 137.814C158.583 138.649 160.028 138.777 162.224 138.209Z" fill="#CAD76D"/>
<path d="M169.84 144.568C171.213 144.213 172.518 141.755 172.473 141.586C172.427 141.416 170.861 142.906 169.488 143.261C168.114 143.617 167.065 142.998 167.29 143.833C167.515 144.667 168.466 144.923 169.84 144.568Z" fill="#BAC664"/>
<path d="M155.55 131.136C158.889 130.272 162.826 127.133 162.78 126.964C162.734 126.794 158.537 128.965 155.198 129.829C151.859 130.693 149.629 130.38 149.854 131.215C150.079 132.049 152.211 132 155.55 131.136Z" fill="#CAD76D"/>
<path d="M108.556 169.912C107.984 174.146 104.36 179.444 104.116 179.412C103.872 179.38 106.1 173.902 106.672 169.668C107.244 165.433 106.388 162.735 107.591 162.891C108.795 163.047 109.128 165.678 108.556 169.912Z" fill="#879523"/>
<path d="M102.596 159.575C102.207 162.456 99.6129 166.044 99.4358 166.021C99.2587 165.998 100.84 162.279 101.229 159.397C101.619 156.516 100.983 154.673 101.855 154.786C102.728 154.899 102.986 156.693 102.596 159.575Z" fill="#75871B"/>
<path d="M121.372 184.273C121.074 186.48 118.602 189.165 118.425 189.142C118.248 189.12 119.707 186.302 120.006 184.095C120.304 181.888 119.613 180.45 120.486 180.563C121.358 180.676 121.671 182.065 121.372 184.273Z" fill="#98A440"/>
<path d="M128.767 190.875C128.581 192.256 126.258 193.835 126.081 193.812C125.904 193.789 127.214 192.079 127.401 190.698C127.587 189.317 126.829 188.375 127.702 188.489C128.575 188.602 128.954 189.495 128.767 190.875Z" fill="#BAC664"/>
<path d="M113.373 178.674C112.919 182.031 110.239 186.255 110.062 186.232C109.885 186.209 111.552 181.854 112.006 178.497C112.46 175.141 111.862 173.012 112.735 173.125C113.608 173.239 113.826 175.318 113.373 178.674Z" fill="#7D8F21"/>
<path d="M118.284 159.936C122.641 159.944 128.479 157.128 128.48 156.887C128.48 156.645 122.645 158.08 118.288 158.073C113.931 158.065 111.316 156.874 111.314 158.064C111.312 159.254 113.927 159.928 118.284 159.936Z" fill="#CAD76D"/>
<path d="M108.626 152.769C111.591 152.774 115.564 150.732 115.565 150.557C115.565 150.381 111.594 151.423 108.629 151.417C105.664 151.412 103.885 150.549 103.883 151.412C103.882 152.275 105.661 152.764 108.626 152.769Z" fill="#CAD76D"/>
<path d="M131.096 174.299C133.367 174.303 136.412 172.259 136.412 172.084C136.412 171.909 133.37 172.952 131.099 172.948C128.828 172.944 127.465 172.081 127.464 172.944C127.462 173.807 128.825 174.295 131.096 174.299Z" fill="#CAD76D"/>
<path d="M136.788 182.364C138.208 182.366 140.114 180.32 140.115 180.145C140.115 179.97 138.211 181.015 136.79 181.012C135.37 181.01 134.518 180.148 134.516 181.011C134.515 181.874 135.367 182.361 136.788 182.364Z" fill="#BAC664"/>
<path d="M126.502 165.782C129.956 165.788 134.583 163.747 134.584 163.572C134.584 163.397 129.958 164.437 126.505 164.431C123.051 164.424 120.978 163.56 120.977 164.423C120.975 165.286 123.048 165.776 126.502 165.782Z" fill="#CAD76D"/>
<path d="M194.148 106.297C194.816 107.06 195.53 107.696 196.223 108.235C197.026 108.858 197.837 109.378 198.493 109.79C198.656 109.892 198.807 109.986 198.949 110.074C199.431 110.375 199.802 110.606 200.168 110.859C201.061 111.475 201.155 111.723 201.162 111.741L201.162 111.742C201.166 111.751 201.216 111.864 201.214 112.178C201.212 112.515 201.148 113.09 200.885 113.978L200.513 115.233L200.809 116.502C201.133 117.891 201.834 118.952 202.396 119.655C202.969 120.373 203.612 120.981 204.126 121.441C204.658 121.917 205.057 122.253 205.387 122.531C205.535 122.656 205.669 122.768 205.794 122.877L203.378 124.769L204.544 128.113C204.891 129.106 205.023 129.729 205.072 130.079C205.041 130.109 205.007 130.141 204.968 130.178L204.944 130.201C204.831 130.307 204.682 130.448 204.53 130.597C203.834 131.277 202.816 132.37 202.105 134.04L201.77 134.826L201.716 135.675C201.537 138.535 201.25 140.211 200.991 141.155C200.958 141.159 200.924 141.163 200.891 141.167C199.561 141.339 197.496 141.794 195.606 143.641L194.639 144.586L194.277 145.879C193.907 147.196 193.576 147.955 193.356 148.365C193.276 148.359 193.195 148.352 193.1 148.344C192.948 148.33 192.758 148.314 192.472 148.292C191.487 148.219 189.636 148.108 187.644 148.881L185.849 149.577L184.97 151.276C184.163 152.836 183.487 153.882 182.952 154.564C182.9 154.63 182.851 154.691 182.804 154.748C182.432 154.397 181.949 153.895 181.238 153.156L181.09 153.002L181.033 152.943C180.02 151.89 178.219 150.016 175.898 149.065L172.541 147.69L172.064 148.237C171.699 147.342 171.063 146.26 169.923 145.406L167.833 143.84L165.326 144.664C163.313 145.325 162.097 145.522 161.432 145.573C161.39 145.286 161.352 144.924 161.316 144.459C161.301 144.267 161.284 144.025 161.266 143.756C161.226 143.17 161.178 142.455 161.118 141.854C160.942 140.102 160.524 137.095 158.36 134.723L156.447 132.626L153.634 133.209C153.561 133.224 153.489 133.238 153.42 133.252C153.43 133.109 153.439 132.975 153.445 132.862C153.479 132.219 153.501 131.328 153.364 130.384C153.224 129.424 152.888 128.171 152.027 126.981C150.337 124.645 148.881 122.346 147.741 120.175C146.762 118.311 145.182 116.373 143.732 114.707C142.845 113.687 141.809 112.551 140.82 111.467C140.198 110.785 139.595 110.123 139.06 109.525C138.377 108.761 137.765 108.057 137.234 107.414C137.782 107.385 138.376 107.361 139.015 107.342C139.633 107.322 140.302 107.307 140.995 107.29C142.478 107.256 144.068 107.218 145.487 107.139C147.491 107.027 149.94 106.806 151.93 106.095C153.621 105.492 155.193 104.451 156.235 103.761C156.361 103.678 156.482 103.598 156.6 103.52C157.652 102.822 158.412 102.317 159.173 101.938C159.938 101.557 160.255 101.543 160.298 101.543C160.304 101.545 160.314 101.549 160.33 101.557C160.388 101.584 160.577 101.685 160.883 101.984L164.916 105.929L168.359 101.495C168.527 101.653 168.708 101.809 168.902 101.96C170.164 102.941 171.751 103.52 173.552 103.501C175.215 103.483 176.775 102.96 178.168 102.267L178.598 102.052L178.981 101.761C181.78 99.6332 182.905 99.6903 182.973 99.6953L182.973 99.6953C182.986 99.6946 183.277 99.6797 184.289 100.688C184.532 100.93 184.781 101.194 185.078 101.511C185.11 101.544 185.142 101.578 185.174 101.613C185.434 101.891 185.737 102.214 186.044 102.527C186.722 103.219 187.658 104.113 188.833 104.842C190.07 105.609 191.632 106.232 193.512 106.296C193.725 106.304 193.937 106.304 194.148 106.297ZM170.807 98.7364C170.806 98.7368 170.799 98.7423 170.785 98.752C170.799 98.7409 170.807 98.7361 170.807 98.7364ZM165.846 97.6225C165.824 97.5877 165.813 97.5673 165.813 97.5658C165.813 97.5643 165.824 97.5818 165.846 97.6225ZM151.498 133.448C151.498 133.448 151.5 133.448 151.505 133.449C151.5 133.449 151.498 133.448 151.498 133.448ZM153.302 135.328C153.304 135.336 153.304 135.341 153.304 135.341C153.304 135.341 153.303 135.337 153.302 135.328ZM183.569 155.354C183.569 155.354 183.567 155.354 183.564 155.352C183.567 155.353 183.569 155.354 183.569 155.354ZM202.019 141.041C202.019 141.041 202.016 141.042 202.01 141.043C202.016 141.042 202.019 141.041 202.019 141.041ZM206.822 123.915C206.821 123.914 206.812 123.902 206.797 123.877C206.816 123.902 206.823 123.915 206.822 123.915ZM206.828 121.987C206.84 121.968 206.848 121.959 206.848 121.959C206.849 121.959 206.843 121.968 206.828 121.987Z" fill="#A9B748" stroke="#C7D776" stroke-width="10"/>
<path d="M163.58 126.911C164.695 131.04 163.401 137.29 163.163 137.352C162.925 137.414 162.858 131.517 161.742 127.388C160.627 123.259 158.788 121.082 159.961 120.778C161.135 120.474 162.465 122.782 163.58 126.911Z" fill="#879523"/>
<path d="M154.054 119.574C154.813 122.383 153.807 126.669 153.635 126.714C153.462 126.758 153.48 122.729 152.721 119.919C151.962 117.11 150.658 115.642 151.509 115.421C152.36 115.201 153.295 116.764 154.054 119.574Z" fill="#75871B"/>
<path d="M181.009 135.413C181.59 137.565 180.347 140.971 180.174 141.016C180.002 141.06 180.257 137.911 179.676 135.759C179.095 133.606 177.897 132.534 178.748 132.313C179.599 132.092 180.428 133.261 181.009 135.413Z" fill="#98A440"/>
<path d="M190.412 138.762C190.775 140.109 189.241 142.435 189.068 142.48C188.895 142.525 189.442 140.454 189.079 139.108C188.715 137.761 187.648 137.173 188.499 136.952C189.35 136.731 190.048 137.416 190.412 138.762Z" fill="#BAC664"/>
<path d="M171.438 133.219C172.322 136.492 171.484 141.398 171.311 141.443C171.138 141.487 170.989 136.838 170.105 133.565C169.221 130.292 167.842 128.546 168.693 128.325C169.544 128.105 170.554 129.946 171.438 133.219Z" fill="#7D8F21"/>
<path d="M168.703 114.059C172.735 112.441 177.041 107.661 176.947 107.438C176.854 107.214 172.015 110.717 167.982 112.334C163.95 113.951 161.07 113.825 161.53 114.926C161.99 116.027 164.67 115.676 168.703 114.059Z" fill="#CAD76D"/>
<path d="M156.988 111.032C159.732 109.931 162.613 106.561 162.545 106.399C162.477 106.237 159.209 108.68 156.465 109.781C153.722 110.881 151.741 110.746 152.075 111.545C152.408 112.343 154.244 112.132 156.988 111.032Z" fill="#CAD76D"/>
<path d="M186.129 122.565C188.231 121.722 190.252 118.697 190.185 118.535C190.117 118.373 187.708 120.471 185.606 121.314C183.504 122.158 181.91 121.868 182.243 122.666C182.577 123.465 184.027 123.408 186.129 122.565Z" fill="#CAD76D"/>
<path d="M194.523 127.9C195.838 127.373 196.806 124.77 196.738 124.608C196.671 124.446 195.316 126.122 194.001 126.649C192.686 127.177 191.564 126.697 191.897 127.496C192.231 128.295 193.208 128.428 194.523 127.9Z" fill="#BAC664"/>
<path d="M178.572 116.401C181.768 115.119 185.255 111.506 185.187 111.344C185.12 111.181 181.246 113.868 178.049 115.15C174.853 116.432 172.601 116.406 172.935 117.204C173.268 118.003 175.375 117.683 178.572 116.401Z" fill="#CAD76D"/>
<rect x="0.623633" y="0.375273" width="51.8373" height="6.66926" transform="matrix(0.977205 -0.212297 0.27006 0.962843 149.886 82.6468)" fill="#FB982A" stroke="#D3740F"/>
<rect width="52.8373" height="3.40856" transform="matrix(0.977205 -0.212297 0.27006 0.962843 151.124 86.603)" fill="#DA7A15"/>
<rect x="0.691757" y="0.233535" width="61.3653" height="6.69253" transform="matrix(0.910326 -0.413891 0.473187 0.880962 143.762 80.0988)" fill="#FB982A" stroke="#D3740F"/>
<rect width="62.3653" height="3.4189" transform="matrix(0.910326 -0.413891 0.473187 0.880962 145.833 83.5503)" fill="#DA7A15"/>
<rect x="0.718627" y="0.134287" width="61.2161" height="6.71244" transform="matrix(0.843957 -0.53641 0.593296 0.804984 133.83 73.6451)" fill="#FB982A" stroke="#D3740F"/>
<rect width="62.2161" height="3.42775" transform="matrix(0.843957 -0.53641 0.593296 0.804984 136.34 76.6821)" fill="#DA7A15"/>
<rect x="0.718627" y="0.134287" width="48.1296" height="6.71244" transform="matrix(0.843957 -0.53641 0.593296 0.804984 138.451 79.6827)" fill="#FB982A" stroke="#D3740F"/>
<rect width="49.1296" height="3.42775" transform="matrix(0.843957 -0.53641 0.593296 0.804984 140.961 82.7197)" fill="#DA7A15"/>
<rect x="0.586151" y="0.429511" width="43.7311" height="6.66305" transform="matrix(0.992204 -0.124626 0.180097 0.983649 152.98 88.3613)" fill="#FB982A" stroke="#D3740F"/>
<rect width="44.7311" height="3.4058" transform="matrix(0.992204 -0.124626 0.180097 0.983649 153.82 92.4692)" fill="#DA7A15"/>
<path d="M69.665 113.31C69.7088 113.578 69.6704 113.797 69.5579 114.002C69.439 114.218 69.2192 114.45 68.8467 114.701C68.0908 115.212 66.8426 115.712 64.9992 116.313C63.6784 116.744 62.0851 117.216 60.195 117.776C59.4632 117.992 58.6869 118.222 57.8647 118.468C54.9341 119.345 51.4362 120.418 47.3339 121.804C45.5289 122.087 43.7827 122.384 42.11 122.668C37.7238 123.414 33.8423 124.073 30.728 124.178C28.575 124.25 26.8701 124.051 25.6551 123.48C24.481 122.928 23.7381 122.018 23.4973 120.544C23.2566 119.069 23.6727 117.977 24.6126 117.094C25.5853 116.18 27.1418 115.471 29.2105 114.881C32.2027 114.029 36.1005 113.47 40.5049 112.838C42.1835 112.597 43.9356 112.346 45.7393 112.063C53.2781 112.317 58.5693 112.186 62.2355 112.095C63.3447 112.068 64.3051 112.044 65.1341 112.036C66.9465 112.017 68.0629 112.076 68.7528 112.292C69.0825 112.395 69.276 112.523 69.3999 112.665C69.5231 112.805 69.6148 113.002 69.665 113.31Z" fill="#BD272E" stroke="#7C1319"/>
<path d="M23.9599 121.348C23.8257 120.526 21.9794 120.959 17.0947 120.897C13.4374 121.47 9.40189 129.34 9.69836 131.157C9.99486 132.974 13.9232 124.447 17.5806 123.874C22.7713 122.021 24.094 122.17 23.9599 121.348Z" fill="#555D34"/>
<path d="M68.4678 112.319C68.665 112.515 68.7641 112.717 68.7937 112.949C68.8249 113.193 68.7834 113.507 68.6294 113.922C68.3164 114.766 67.5973 115.882 66.4519 117.419C65.6313 118.521 64.6134 119.811 63.4057 121.342C62.9381 121.934 62.4421 122.563 61.918 123.231C60.0504 125.611 57.8375 128.474 55.3173 131.935C54.0148 133.192 52.7684 134.426 51.5746 135.609C48.4442 138.709 45.6746 141.452 43.201 143.308C41.4912 144.59 39.9868 145.396 38.6608 145.622C37.3793 145.84 36.2323 145.522 35.1588 144.454C34.0853 143.385 33.7787 142.257 34.0209 141.005C34.2715 139.709 35.1176 138.248 36.4528 136.592C38.3844 134.198 41.2265 131.527 44.4389 128.508C45.6632 127.358 46.9413 126.157 48.2432 124.902C54.5332 120.822 58.7649 117.707 61.6967 115.548C62.5837 114.895 63.3517 114.33 64.0217 113.852C65.4871 112.806 66.4296 112.221 67.1173 112.005C67.4453 111.902 67.6786 111.895 67.8644 111.941C68.0501 111.986 68.2434 112.095 68.4678 112.319Z" fill="#BD272E" stroke="#7C1319"/>
<path d="M36.0088 144.849C35.4127 144.256 34.1655 145.658 30.1507 148.385C27.5114 150.932 28.8852 159.635 30.2029 160.947C31.5206 162.258 29.6701 153.08 32.3094 150.534C35.4392 146.073 36.6049 145.442 36.0088 144.849Z" fill="#555D34"/>
<path d="M142.541 92.3102C142.541 102.579 138.453 114.641 131.641 124.132C124.826 133.627 115.355 140.458 104.629 140.458C93.8671 140.458 82.2168 133.895 73.2329 124.687C64.2482 115.479 58.0444 103.742 58.0444 93.5366C58.0444 83.3093 62.9627 73.2116 70.6148 65.6631C78.2657 58.1157 88.6101 53.1562 99.4067 53.1562C110.217 53.1562 121.01 57.82 129.102 65.0664C137.196 72.314 142.541 82.1007 142.541 92.3102Z" fill="#FFFAE2" stroke="#D9AE50"/>
<path d="M118.664 95.4193C118.664 105.279 110.615 113.277 100.678 113.277C90.7416 113.277 82.6924 105.279 82.6924 95.4193C82.6924 85.5246 90.7759 76.5415 100.678 76.5415C110.58 76.5415 118.664 85.5246 118.664 95.4193Z" fill="#FED24D" stroke="#D9AE50"/>
</svg>
