<svg width="220" height="220" viewBox="0 0 220 220" fill="none" xmlns="http://www.w3.org/2000/svg">
<ellipse cx="109.738" cy="106.053" rx="109.738" ry="106.053" fill="#FDF5E8"/>
<path d="M163.503 61.475C183.898 68.2826 168.38 118.552 128.406 140.216C88.4314 161.88 23.1148 140.216 34.0215 119.636C45.2785 98.3954 66.1394 131.01 106.114 109.346C146.088 87.6821 132.675 51.1851 163.503 61.475Z" fill="#D64E59"/>
<path d="M167.774 66.844C180.493 67.0186 158.487 122.953 127.459 139.768C96.4315 156.584 23.9508 138.572 34.9724 126.794C46.3479 114.639 86.4712 143.61 117.499 126.795C148.527 109.979 148.549 66.58 167.774 66.844Z" fill="url(#paint0_linear_561_1494)"/>
<path d="M137.893 91.4503C137.893 106.523 116.584 106.27 113.703 106.27C105.639 106.27 132.202 106.523 132.202 91.4503C132.202 76.3779 147.343 61.9224 150.225 61.9224C153.106 61.9224 137.893 76.3779 137.893 91.4503Z" fill="#F4939C"/>
<path d="M89.2829 119.294C79.1655 119.617 78.7863 119.746 79.0123 120.802C79.4643 122.916 79.302 123.418 89.4194 123.095C99.5368 122.772 110.183 115.23 110.114 113.305C108.487 109.869 99.4003 118.97 89.2829 119.294Z" fill="#F4939C"/>
<path d="M190.167 105.558C210.562 112.366 195.044 162.635 155.07 184.299C115.095 205.963 49.7788 184.299 60.6856 163.719C71.9426 142.479 92.8035 175.094 132.778 153.43C172.752 131.766 159.339 95.2686 190.167 105.558Z" fill="#D64E59"/>
<path d="M194.438 110.927C207.157 111.102 185.151 167.037 154.123 183.852C123.096 200.667 50.6149 182.655 61.6365 170.878C73.0119 158.722 113.135 187.694 144.163 170.878C175.191 154.063 175.214 110.664 194.438 110.927Z" fill="url(#paint1_linear_561_1494)"/>
<path d="M164.558 135.533C164.558 150.606 143.249 150.353 140.368 150.353C132.304 150.353 158.867 150.606 158.867 135.533C158.867 120.461 174.009 106.005 176.89 106.005C179.771 106.005 164.558 120.461 164.558 135.533Z" fill="#F4939C"/>
<path d="M115.947 163.377C105.83 163.7 105.45 163.829 105.676 164.885C106.128 166.999 105.966 167.502 116.083 167.178C126.201 166.855 136.847 159.313 136.778 157.389C135.151 153.952 126.064 163.054 115.947 163.377Z" fill="#F4939C"/>
<rect x="0.71381" y="0.132971" width="104.285" height="7.21097" transform="matrix(0.839732 -0.543002 0.587888 0.808943 16.8829 78.5544)" fill="#FAD64E" stroke="#D89B0C"/>
<rect width="105.285" height="3.64932" transform="matrix(0.839732 -0.543002 0.587888 0.808943 19.5293 81.8313)" fill="#D99506"/>
<rect x="0.726377" y="0.0372066" width="88.2005" height="6.06218" transform="matrix(0.761485 -0.648183 0.69127 0.722596 39.7608 92.6926)" fill="#FAD64E" stroke="#D89B0C"/>
<rect width="89.2005" height="3.13875" transform="matrix(0.761485 -0.648183 0.69127 0.722596 42.3252 95.0466)" fill="#D99506"/>
<rect x="0.693498" y="0.208313" width="95.0823" height="5.96847" transform="matrix(0.891908 -0.452216 0.495088 0.868843 31.047 59.4879)" fill="#FAD64E" stroke="#D89B0C"/>
<rect width="96.0823" height="3.0971" transform="matrix(0.891908 -0.452216 0.495088 0.868843 32.9932 62.5107)" fill="#D99506"/>
<rect x="0.723458" y="0.072089" width="89.4991" height="6.04241" transform="matrix(0.791536 -0.611122 0.655379 0.7553 80.5049 99.2447)" fill="#FAD64E" stroke="#D89B0C"/>
<rect width="90.4991" height="3.12996" transform="matrix(0.791536 -0.611122 0.655379 0.7553 82.9658 101.74)" fill="#D99506"/>
<rect x="0.727201" y="-0.0175114" width="60.0387" height="6.09331" transform="matrix(0.710681 -0.703514 0.74372 0.668491 58.8855 108.587)" fill="#FAD64E" stroke="#D89B0C"/>
<rect width="61.0387" height="3.15258" transform="matrix(0.710681 -0.703514 0.74372 0.668491 61.5938 110.715)" fill="#D99506"/>
<rect x="0.698237" y="0.193557" width="92.4361" height="5.97606" transform="matrix(0.882346 -0.4706 0.514128 0.857714 17.7785 115.842)" fill="#FAD64E" stroke="#D89B0C"/>
<rect width="93.4361" height="3.10047" transform="matrix(0.882346 -0.4706 0.514128 0.857714 19.7891 118.81)" fill="#D99506"/>
<rect x="0.720763" y="0.0932783" width="67.6482" height="6.03049" transform="matrix(0.808921 -0.587917 0.632605 0.774474 79.5406 66.2517)" fill="#FAD64E" stroke="#D89B0C"/>
<rect width="68.6482" height="3.12466" transform="matrix(0.808921 -0.587917 0.632605 0.774474 81.9316 68.8318)" fill="#D99506"/>
<rect x="0.724776" y="0.0594825" width="91.7411" height="6.03075" transform="matrix(0.777103 -0.624992 0.672449 0.743957 23.6118 100.878)" fill="#FAD64E" stroke="#D89B0C"/>
<rect width="92.7411" height="3.12478" transform="matrix(0.777103 -0.624992 0.672449 0.743957 26.1172 103.316)" fill="#D99506"/>
<rect x="0.720903" y="0.0923014" width="91.7379" height="6.031" transform="matrix(0.808125 -0.589 0.633681 0.773603 28.3171 84.9887)" fill="#FAD64E" stroke="#D89B0C"/>
<rect width="92.7379" height="3.12489" transform="matrix(0.808125 -0.589 0.633681 0.773603 30.7129 87.5649)" fill="#D99506"/>
<rect x="0.699604" y="0.188235" width="62.1482" height="6.03314" transform="matrix(0.889252 -0.474283 0.509955 0.850753 104.779 69.1783)" fill="#FAD64E" stroke="#D89B0C"/>
<rect width="63.1482" height="3.12584" transform="matrix(0.889252 -0.474283 0.509955 0.850753 106.791 72.1423)" fill="#D99506"/>
<rect x="0.699604" y="0.188235" width="91.7105" height="6.03314" transform="matrix(0.889252 -0.474283 0.509955 0.850753 51.9278 89.462)" fill="#FAD64E" stroke="#D89B0C"/>
<rect width="92.7105" height="3.12584" transform="matrix(0.889252 -0.474283 0.509955 0.850753 53.9395 92.4265)" fill="#D99506"/>
<rect x="0.698237" y="0.193557" width="67.462" height="5.97606" transform="matrix(0.882346 -0.4706 0.514128 0.857714 67.3215 72.3364)" fill="#FAD64E" stroke="#D89B0C"/>
<rect width="68.462" height="3.10047" transform="matrix(0.882346 -0.4706 0.514128 0.857714 69.3311 75.3047)" fill="#D99506"/>
<defs>
<linearGradient id="paint0_linear_561_1494" x1="97.8412" y1="92.2308" x2="124.479" y2="141.383" gradientUnits="userSpaceOnUse">
<stop stop-color="#CD121A"/>
<stop offset="1" stop-color="#7D060A"/>
</linearGradient>
<linearGradient id="paint1_linear_561_1494" x1="124.505" y1="136.314" x2="151.143" y2="185.467" gradientUnits="userSpaceOnUse">
<stop stop-color="#CD121A"/>
<stop offset="1" stop-color="#7D060A"/>
</linearGradient>
</defs>
</svg>
