<svg width="221" height="221" viewBox="0 0 221 221" fill="none" xmlns="http://www.w3.org/2000/svg">
<ellipse cx="113.438" cy="110.13" rx="107.395" ry="110.029" fill="#FDF5E8"/>
<path d="M157.833 61.6842C164.726 54.0932 170.059 48.6121 174.252 44.903C178.482 41.1616 181.42 39.3455 183.534 38.8784C184.551 38.6539 185.34 38.7503 186.002 39.0668C186.68 39.3908 187.316 39.9897 187.933 40.9297C189.192 42.8457 190.199 45.8963 191.343 49.9473C193.612 57.9885 198.797 77.257 202.437 95.506C204.258 104.635 205.686 113.476 206.174 120.517C206.419 124.041 206.425 127.075 206.141 129.453C205.849 131.885 205.276 133.411 204.556 134.151C204.243 134.472 203.619 134.833 202.576 135.168C201.557 135.496 200.241 135.767 198.651 135.976C195.473 136.395 191.312 136.557 186.482 136.492C176.827 136.362 164.608 135.33 152.458 133.715C140.307 132.1 128.258 129.907 118.941 127.463C114.28 126.24 110.332 124.962 107.406 123.674C105.942 123.029 104.76 122.394 103.88 121.777C102.984 121.149 102.485 120.598 102.27 120.154C101.264 118.074 102.021 115.388 104.823 111.713C107.581 108.096 112.046 103.887 117.614 98.9929C119.831 97.0439 122.217 94.992 124.725 92.8341C134.756 84.2061 146.755 73.8851 157.833 61.6842Z" fill="#ECC1A0"/>
<path d="M157.833 61.6842C164.726 54.0932 170.059 48.6121 174.252 44.903C178.482 41.1616 181.42 39.3455 183.534 38.8784C184.551 38.6539 185.34 38.7503 186.002 39.0668C186.68 39.3908 187.316 39.9897 187.933 40.9297C189.192 42.8457 190.199 45.8963 191.343 49.9473C193.612 57.9885 198.797 77.257 202.437 95.506C204.258 104.635 205.686 113.476 206.174 120.517C206.419 124.041 206.425 127.075 206.141 129.453C205.849 131.885 205.276 133.411 204.556 134.151C204.243 134.472 203.619 134.833 202.576 135.168C201.557 135.496 200.241 135.767 198.651 135.976C195.473 136.395 191.312 136.557 186.482 136.492C176.827 136.362 164.608 135.33 152.458 133.715C140.307 132.1 128.258 129.907 118.941 127.463C114.28 126.24 110.332 124.962 107.406 123.674C105.942 123.029 104.76 122.394 103.88 121.777C102.984 121.149 102.485 120.598 102.27 120.154C101.264 118.074 102.021 115.388 104.823 111.713C107.581 108.096 112.046 103.887 117.614 98.9929C119.831 97.0439 122.217 94.992 124.725 92.8341C134.756 84.2061 146.755 73.8851 157.833 61.6842Z" stroke="black" stroke-width="2"/>
<path d="M157.833 61.6842C164.726 54.0932 170.059 48.6121 174.252 44.903C178.482 41.1616 181.42 39.3455 183.534 38.8784C184.551 38.6539 185.34 38.7503 186.002 39.0668C186.68 39.3908 187.316 39.9897 187.933 40.9297C189.192 42.8457 190.199 45.8963 191.343 49.9473C193.612 57.9885 198.797 77.257 202.437 95.506C204.258 104.635 205.686 113.476 206.174 120.517C206.419 124.041 206.425 127.075 206.141 129.453C205.849 131.885 205.276 133.411 204.556 134.151C204.243 134.472 203.619 134.833 202.576 135.168C201.557 135.496 200.241 135.767 198.651 135.976C195.473 136.395 191.312 136.557 186.482 136.492C176.827 136.362 164.608 135.33 152.458 133.715C140.307 132.1 128.258 129.907 118.941 127.463C114.28 126.24 110.332 124.962 107.406 123.674C105.942 123.029 104.76 122.394 103.88 121.777C102.984 121.149 102.485 120.598 102.27 120.154C101.264 118.074 102.021 115.388 104.823 111.713C107.581 108.096 112.046 103.887 117.614 98.9929C119.831 97.0439 122.217 94.992 124.725 92.8341C134.756 84.2061 146.755 73.8851 157.833 61.6842Z" stroke="black" stroke-width="2"/>
<path d="M157.833 61.6842C164.726 54.0932 170.059 48.6121 174.252 44.903C178.482 41.1616 181.42 39.3455 183.534 38.8784C184.551 38.6539 185.34 38.7503 186.002 39.0668C186.68 39.3908 187.316 39.9897 187.933 40.9297C189.192 42.8457 190.199 45.8963 191.343 49.9473C193.612 57.9885 198.797 77.257 202.437 95.506C204.258 104.635 205.686 113.476 206.174 120.517C206.419 124.041 206.425 127.075 206.141 129.453C205.849 131.885 205.276 133.411 204.556 134.151C204.243 134.472 203.619 134.833 202.576 135.168C201.557 135.496 200.241 135.767 198.651 135.976C195.473 136.395 191.312 136.557 186.482 136.492C176.827 136.362 164.608 135.33 152.458 133.715C140.307 132.1 128.258 129.907 118.941 127.463C114.28 126.24 110.332 124.962 107.406 123.674C105.942 123.029 104.76 122.394 103.88 121.777C102.984 121.149 102.485 120.598 102.27 120.154C101.264 118.074 102.021 115.388 104.823 111.713C107.581 108.096 112.046 103.887 117.614 98.9929C119.831 97.0439 122.217 94.992 124.725 92.8341C134.756 84.2061 146.755 73.8851 157.833 61.6842Z" stroke="black" stroke-width="2"/>
<path d="M125.806 44.4019C129.93 34.8199 133.244 27.7758 136.038 22.8036C138.855 17.789 141.059 15.0406 142.912 13.8549C143.803 13.2842 144.58 13.0977 145.305 13.1639C146.046 13.2315 146.832 13.5729 147.708 14.2416C149.493 15.6057 151.398 18.1278 153.746 21.5482C158.406 28.337 169.335 44.693 178.487 60.6297C183.065 68.602 187.182 76.4403 189.848 82.9105C191.183 86.1484 192.139 89.008 192.615 91.3496C193.103 93.7448 193.041 95.3852 192.592 96.3373C192.396 96.7528 191.918 97.3146 191.038 97.9978C190.179 98.6655 189.021 99.3837 187.586 100.14C184.719 101.652 180.844 103.266 176.266 104.901C167.117 108.169 155.266 111.487 143.297 114.231C131.328 116.975 119.274 119.138 109.719 120.104C104.938 120.588 100.813 120.768 97.6483 120.581C96.0654 120.487 94.7513 120.302 93.7284 120.03C92.6861 119.752 92.0439 119.407 91.7052 119.067C90.111 117.464 89.979 114.671 91.4723 110.216C92.941 105.834 95.8351 100.294 99.5541 93.7221C101.035 91.1046 102.643 88.331 104.333 85.4142C111.093 73.7519 119.178 59.802 125.806 44.4019Z" fill="#ECC1A0"/>
<path d="M125.806 44.4019C129.93 34.8199 133.244 27.7758 136.038 22.8036C138.855 17.789 141.059 15.0406 142.912 13.8549C143.803 13.2842 144.58 13.0977 145.305 13.1639C146.046 13.2315 146.832 13.5729 147.708 14.2416C149.493 15.6057 151.398 18.1278 153.746 21.5482C158.406 28.337 169.335 44.693 178.487 60.6297C183.065 68.602 187.182 76.4403 189.848 82.9105C191.183 86.1484 192.139 89.008 192.615 91.3496C193.103 93.7448 193.041 95.3852 192.592 96.3373C192.396 96.7528 191.918 97.3146 191.038 97.9978C190.179 98.6655 189.021 99.3837 187.586 100.14C184.719 101.652 180.844 103.266 176.266 104.901C167.117 108.169 155.266 111.487 143.297 114.231C131.328 116.975 119.274 119.138 109.719 120.104C104.938 120.588 100.813 120.768 97.6483 120.581C96.0654 120.487 94.7513 120.302 93.7284 120.03C92.6861 119.752 92.0439 119.407 91.7052 119.067C90.111 117.464 89.979 114.671 91.4723 110.216C92.941 105.834 95.8351 100.294 99.5541 93.7221C101.035 91.1046 102.643 88.331 104.333 85.4142C111.093 73.7519 119.178 59.802 125.806 44.4019Z" stroke="black" stroke-width="2"/>
<path d="M125.806 44.4019C129.93 34.8199 133.244 27.7758 136.038 22.8036C138.855 17.789 141.059 15.0406 142.912 13.8549C143.803 13.2842 144.58 13.0977 145.305 13.1639C146.046 13.2315 146.832 13.5729 147.708 14.2416C149.493 15.6057 151.398 18.1278 153.746 21.5482C158.406 28.337 169.335 44.693 178.487 60.6297C183.065 68.602 187.182 76.4403 189.848 82.9105C191.183 86.1484 192.139 89.008 192.615 91.3496C193.103 93.7448 193.041 95.3852 192.592 96.3373C192.396 96.7528 191.918 97.3146 191.038 97.9978C190.179 98.6655 189.021 99.3837 187.586 100.14C184.719 101.652 180.844 103.266 176.266 104.901C167.117 108.169 155.266 111.487 143.297 114.231C131.328 116.975 119.274 119.138 109.719 120.104C104.938 120.588 100.813 120.768 97.6483 120.581C96.0654 120.487 94.7513 120.302 93.7284 120.03C92.6861 119.752 92.0439 119.407 91.7052 119.067C90.111 117.464 89.979 114.671 91.4723 110.216C92.941 105.834 95.8351 100.294 99.5541 93.7221C101.035 91.1046 102.643 88.331 104.333 85.4142C111.093 73.7519 119.178 59.802 125.806 44.4019Z" stroke="black" stroke-width="2"/>
<path d="M125.806 44.4019C129.93 34.8199 133.244 27.7758 136.038 22.8036C138.855 17.789 141.059 15.0406 142.912 13.8549C143.803 13.2842 144.58 13.0977 145.305 13.1639C146.046 13.2315 146.832 13.5729 147.708 14.2416C149.493 15.6057 151.398 18.1278 153.746 21.5482C158.406 28.337 169.335 44.693 178.487 60.6297C183.065 68.602 187.182 76.4403 189.848 82.9105C191.183 86.1484 192.139 89.008 192.615 91.3496C193.103 93.7448 193.041 95.3852 192.592 96.3373C192.396 96.7528 191.918 97.3146 191.038 97.9978C190.179 98.6655 189.021 99.3837 187.586 100.14C184.719 101.652 180.844 103.266 176.266 104.901C167.117 108.169 155.266 111.487 143.297 114.231C131.328 116.975 119.274 119.138 109.719 120.104C104.938 120.588 100.813 120.768 97.6483 120.581C96.0654 120.487 94.7513 120.302 93.7284 120.03C92.6861 119.752 92.0439 119.407 91.7052 119.067C90.111 117.464 89.979 114.671 91.4723 110.216C92.941 105.834 95.8351 100.294 99.5541 93.7221C101.035 91.1046 102.643 88.331 104.333 85.4142C111.093 73.7519 119.178 59.802 125.806 44.4019Z" stroke="black" stroke-width="2"/>
<path d="M85.855 60.5998C86.314 50.0812 86.9135 42.2359 87.7586 36.5184C88.6105 30.7548 89.6913 27.3248 91.0013 25.4838C91.6338 24.5948 92.2956 24.1119 92.9939 23.887C93.705 23.658 94.5517 23.6654 95.5941 23.9396C97.7241 24.5002 100.373 26.0863 103.756 28.3363C110.467 32.8008 126.36 43.6745 140.455 54.8588C147.507 60.4537 154.081 66.1053 158.829 71.0578C161.205 73.5361 163.096 75.8114 164.36 77.7945C165.651 79.8206 166.171 81.3657 166.089 82.4318C166.052 82.9029 165.803 83.6199 165.225 84.6036C164.66 85.5653 163.836 86.6905 162.769 87.959C160.637 90.4943 157.606 93.5204 153.932 96.8425C146.588 103.482 136.753 111.233 126.609 118.496C116.464 125.76 106.035 132.518 97.5051 137.181C93.2369 139.514 89.4707 141.308 86.4672 142.381C84.9645 142.918 83.6799 143.264 82.6352 143.414C81.569 143.567 80.8576 143.499 80.4324 143.32C78.4156 142.472 77.3065 139.954 77.1256 135.216C76.9482 130.568 77.6873 124.284 78.8286 116.718C79.2832 113.704 79.8002 110.496 80.3439 107.123C82.5176 93.6347 85.1173 77.5034 85.855 60.5998Z" fill="#ECC1A0"/>
<path d="M85.855 60.5998C86.314 50.0812 86.9135 42.2359 87.7586 36.5184C88.6105 30.7548 89.6913 27.3248 91.0013 25.4838C91.6338 24.5948 92.2956 24.1119 92.9939 23.887C93.705 23.658 94.5517 23.6654 95.5941 23.9396C97.7241 24.5002 100.373 26.0863 103.756 28.3363C110.467 32.8008 126.36 43.6745 140.455 54.8588C147.507 60.4537 154.081 66.1053 158.829 71.0578C161.205 73.5361 163.096 75.8114 164.36 77.7945C165.651 79.8206 166.171 81.3657 166.089 82.4318C166.052 82.9029 165.803 83.6199 165.225 84.6036C164.66 85.5653 163.836 86.6905 162.769 87.959C160.637 90.4943 157.606 93.5204 153.932 96.8425C146.588 103.482 136.753 111.233 126.609 118.496C116.464 125.76 106.035 132.518 97.5051 137.181C93.2369 139.514 89.4707 141.308 86.4672 142.381C84.9645 142.918 83.6799 143.264 82.6352 143.414C81.569 143.567 80.8576 143.499 80.4324 143.32C78.4156 142.472 77.3065 139.954 77.1256 135.216C76.9482 130.568 77.6873 124.284 78.8286 116.718C79.2832 113.704 79.8002 110.496 80.3439 107.123C82.5176 93.6347 85.1173 77.5034 85.855 60.5998Z" stroke="black" stroke-width="2"/>
<path d="M85.855 60.5998C86.314 50.0812 86.9135 42.2359 87.7586 36.5184C88.6105 30.7548 89.6913 27.3248 91.0013 25.4838C91.6338 24.5948 92.2956 24.1119 92.9939 23.887C93.705 23.658 94.5517 23.6654 95.5941 23.9396C97.7241 24.5002 100.373 26.0863 103.756 28.3363C110.467 32.8008 126.36 43.6745 140.455 54.8588C147.507 60.4537 154.081 66.1053 158.829 71.0578C161.205 73.5361 163.096 75.8114 164.36 77.7945C165.651 79.8206 166.171 81.3657 166.089 82.4318C166.052 82.9029 165.803 83.6199 165.225 84.6036C164.66 85.5653 163.836 86.6905 162.769 87.959C160.637 90.4943 157.606 93.5204 153.932 96.8425C146.588 103.482 136.753 111.233 126.609 118.496C116.464 125.76 106.035 132.518 97.5051 137.181C93.2369 139.514 89.4707 141.308 86.4672 142.381C84.9645 142.918 83.6799 143.264 82.6352 143.414C81.569 143.567 80.8576 143.499 80.4324 143.32C78.4156 142.472 77.3065 139.954 77.1256 135.216C76.9482 130.568 77.6873 124.284 78.8286 116.718C79.2832 113.704 79.8002 110.496 80.3439 107.123C82.5176 93.6347 85.1173 77.5034 85.855 60.5998Z" stroke="black" stroke-width="2"/>
<path d="M85.855 60.5998C86.314 50.0812 86.9135 42.2359 87.7586 36.5184C88.6105 30.7548 89.6913 27.3248 91.0013 25.4838C91.6338 24.5948 92.2956 24.1119 92.9939 23.887C93.705 23.658 94.5517 23.6654 95.5941 23.9396C97.7241 24.5002 100.373 26.0863 103.756 28.3363C110.467 32.8008 126.36 43.6745 140.455 54.8588C147.507 60.4537 154.081 66.1053 158.829 71.0578C161.205 73.5361 163.096 75.8114 164.36 77.7945C165.651 79.8206 166.171 81.3657 166.089 82.4318C166.052 82.9029 165.803 83.6199 165.225 84.6036C164.66 85.5653 163.836 86.6905 162.769 87.959C160.637 90.4943 157.606 93.5204 153.932 96.8425C146.588 103.482 136.753 111.233 126.609 118.496C116.464 125.76 106.035 132.518 97.5051 137.181C93.2369 139.514 89.4707 141.308 86.4672 142.381C84.9645 142.918 83.6799 143.264 82.6352 143.414C81.569 143.567 80.8576 143.499 80.4324 143.32C78.4156 142.472 77.3065 139.954 77.1256 135.216C76.9482 130.568 77.6873 124.284 78.8286 116.718C79.2832 113.704 79.8002 110.496 80.3439 107.123C82.5176 93.6347 85.1173 77.5034 85.855 60.5998Z" stroke="black" stroke-width="2"/>
<path d="M55.3564 81.0927C52.2365 71.0942 50.1493 63.5384 49.0094 57.8766C47.8608 52.1719 47.7105 48.5494 48.3164 46.3216C48.61 45.2424 49.0698 44.535 49.6487 44.0588C50.2357 43.5759 51.0259 43.2646 52.0859 43.1275C54.2565 42.8466 57.2587 43.3244 61.178 44.1472C68.9525 45.7791 87.4634 49.9256 104.401 55.0414C112.874 57.6006 120.919 60.3924 127.022 63.2215C130.076 64.6373 132.607 66.046 134.454 67.4185C136.338 68.8189 137.346 70.0634 137.63 71.0961C137.757 71.5582 137.765 72.3307 137.556 73.4716C137.352 74.5874 136.961 75.9528 136.392 77.5423C135.256 80.7192 133.444 84.6939 131.133 89.1871C126.512 98.168 119.94 109.127 112.915 119.748C105.889 130.37 98.4276 140.627 92.0325 148.209C88.8325 152.002 85.9193 155.103 83.4752 157.241C82.2523 158.311 81.1693 159.121 80.2445 159.655C79.299 160.202 78.6168 160.404 78.17 160.398C76.0321 160.368 74.1502 158.462 72.3767 154.09C70.6417 149.813 69.2116 143.661 67.7251 136.163C67.1329 133.176 66.5334 129.983 65.903 126.626C63.383 113.206 60.3695 97.1583 55.3564 81.0927Z" fill="#ECC1A0"/>
<path d="M55.3564 81.0927C52.2365 71.0942 50.1493 63.5384 49.0094 57.8766C47.8608 52.1719 47.7105 48.5494 48.3164 46.3216C48.61 45.2424 49.0698 44.535 49.6487 44.0588C50.2357 43.5759 51.0259 43.2646 52.0859 43.1275C54.2565 42.8466 57.2587 43.3244 61.178 44.1472C68.9525 45.7791 87.4634 49.9256 104.401 55.0414C112.874 57.6006 120.919 60.3924 127.022 63.2215C130.076 64.6373 132.607 66.046 134.454 67.4185C136.338 68.8189 137.346 70.0634 137.63 71.0961C137.757 71.5582 137.765 72.3307 137.556 73.4716C137.352 74.5874 136.961 75.9528 136.392 77.5423C135.256 80.7192 133.444 84.6939 131.133 89.1871C126.512 98.168 119.94 109.127 112.915 119.748C105.889 130.37 98.4276 140.627 92.0325 148.209C88.8325 152.002 85.9193 155.103 83.4752 157.241C82.2523 158.311 81.1693 159.121 80.2445 159.655C79.299 160.202 78.6168 160.404 78.17 160.398C76.0321 160.368 74.1502 158.462 72.3767 154.09C70.6417 149.813 69.2116 143.661 67.7251 136.163C67.1329 133.176 66.5334 129.983 65.903 126.626C63.383 113.206 60.3695 97.1583 55.3564 81.0927Z" stroke="black" stroke-width="2"/>
<path d="M55.3564 81.0927C52.2365 71.0942 50.1493 63.5384 49.0094 57.8766C47.8608 52.1719 47.7105 48.5494 48.3164 46.3216C48.61 45.2424 49.0698 44.535 49.6487 44.0588C50.2357 43.5759 51.0259 43.2646 52.0859 43.1275C54.2565 42.8466 57.2587 43.3244 61.178 44.1472C68.9525 45.7791 87.4634 49.9256 104.401 55.0414C112.874 57.6006 120.919 60.3924 127.022 63.2215C130.076 64.6373 132.607 66.046 134.454 67.4185C136.338 68.8189 137.346 70.0634 137.63 71.0961C137.757 71.5582 137.765 72.3307 137.556 73.4716C137.352 74.5874 136.961 75.9528 136.392 77.5423C135.256 80.7192 133.444 84.6939 131.133 89.1871C126.512 98.168 119.94 109.127 112.915 119.748C105.889 130.37 98.4276 140.627 92.0325 148.209C88.8325 152.002 85.9193 155.103 83.4752 157.241C82.2523 158.311 81.1693 159.121 80.2445 159.655C79.299 160.202 78.6168 160.404 78.17 160.398C76.0321 160.368 74.1502 158.462 72.3767 154.09C70.6417 149.813 69.2116 143.661 67.7251 136.163C67.1329 133.176 66.5334 129.983 65.903 126.626C63.383 113.206 60.3695 97.1583 55.3564 81.0927Z" stroke="black" stroke-width="2"/>
<path d="M55.3564 81.0927C52.2365 71.0942 50.1493 63.5384 49.0094 57.8766C47.8608 52.1719 47.7105 48.5494 48.3164 46.3216C48.61 45.2424 49.0698 44.535 49.6487 44.0588C50.2357 43.5759 51.0259 43.2646 52.0859 43.1275C54.2565 42.8466 57.2587 43.3244 61.178 44.1472C68.9525 45.7791 87.4634 49.9256 104.401 55.0414C112.874 57.6006 120.919 60.3924 127.022 63.2215C130.076 64.6373 132.607 66.046 134.454 67.4185C136.338 68.8189 137.346 70.0634 137.63 71.0961C137.757 71.5582 137.765 72.3307 137.556 73.4716C137.352 74.5874 136.961 75.9528 136.392 77.5423C135.256 80.7192 133.444 84.6939 131.133 89.1871C126.512 98.168 119.94 109.127 112.915 119.748C105.889 130.37 98.4276 140.627 92.0325 148.209C88.8325 152.002 85.9193 155.103 83.4752 157.241C82.2523 158.311 81.1693 159.121 80.2445 159.655C79.299 160.202 78.6168 160.404 78.17 160.398C76.0321 160.368 74.1502 158.462 72.3767 154.09C70.6417 149.813 69.2116 143.661 67.7251 136.163C67.1329 133.176 66.5334 129.983 65.903 126.626C63.383 113.206 60.3695 97.1583 55.3564 81.0927Z" stroke="black" stroke-width="2"/>
<path d="M34.5801 121.188C26.4751 115.084 20.5677 110.302 16.4826 106.453C12.3676 102.575 10.2168 99.7458 9.4572 97.5636C9.08866 96.5049 9.06386 95.6423 9.26472 94.8937C9.46794 94.1364 9.93004 93.3922 10.705 92.62C12.2939 91.0368 14.9767 89.5424 18.5961 87.749C25.7743 84.1922 43.0113 75.9339 59.5216 69.443C67.7812 66.1959 75.8253 63.4045 82.324 61.8606C85.5761 61.088 88.4023 60.6374 90.6559 60.5864C92.9538 60.5344 94.4619 60.9046 95.271 61.561C95.6354 61.8567 96.0756 62.4785 96.546 63.5306C97.0062 64.5597 97.455 65.9068 97.8855 67.5451C98.746 70.8196 99.5087 75.1594 100.158 80.2301C101.455 90.3652 102.286 103.318 102.562 116.281C102.838 129.246 102.559 142.189 101.644 152.308C101.186 157.372 100.571 161.697 99.7967 164.953C99.4093 166.582 98.9889 167.913 98.5426 168.924C98.0859 169.958 97.65 170.544 97.2916 170.815C96.4162 171.477 95.3574 171.71 94.0113 171.481C92.636 171.248 91.0081 170.537 89.1128 169.356C85.3219 166.996 80.7287 162.933 75.338 157.821C73.1904 155.784 70.9221 153.586 68.537 151.276C59.0026 142.039 47.6022 130.994 34.5801 121.188Z" fill="#ECC1A0"/>
<path d="M34.5801 121.188C26.4751 115.084 20.5677 110.302 16.4826 106.453C12.3676 102.575 10.2168 99.7458 9.4572 97.5636C9.08866 96.5049 9.06386 95.6423 9.26472 94.8937C9.46794 94.1364 9.93004 93.3922 10.705 92.62C12.2939 91.0368 14.9767 89.5424 18.5961 87.749C25.7743 84.1922 43.0113 75.9339 59.5216 69.443C67.7812 66.1959 75.8253 63.4045 82.324 61.8606C85.5761 61.088 88.4023 60.6374 90.6559 60.5864C92.9538 60.5344 94.4619 60.9046 95.271 61.561C95.6354 61.8567 96.0756 62.4785 96.546 63.5306C97.0062 64.5597 97.455 65.9068 97.8855 67.5451C98.746 70.8196 99.5087 75.1594 100.158 80.2301C101.455 90.3652 102.286 103.318 102.562 116.281C102.838 129.246 102.559 142.189 101.644 152.308C101.186 157.372 100.571 161.697 99.7967 164.953C99.4093 166.582 98.9889 167.913 98.5426 168.924C98.0859 169.958 97.65 170.544 97.2916 170.815C96.4162 171.477 95.3574 171.71 94.0113 171.481C92.636 171.248 91.0081 170.537 89.1128 169.356C85.3219 166.996 80.7287 162.933 75.338 157.821C73.1904 155.784 70.9221 153.586 68.537 151.276C59.0026 142.039 47.6022 130.994 34.5801 121.188Z" stroke="black" stroke-width="2"/>
<path d="M34.5801 121.188C26.4751 115.084 20.5677 110.302 16.4826 106.453C12.3676 102.575 10.2168 99.7458 9.4572 97.5636C9.08866 96.5049 9.06386 95.6423 9.26472 94.8937C9.46794 94.1364 9.93004 93.3922 10.705 92.62C12.2939 91.0368 14.9767 89.5424 18.5961 87.749C25.7743 84.1922 43.0113 75.9339 59.5216 69.443C67.7812 66.1959 75.8253 63.4045 82.324 61.8606C85.5761 61.088 88.4023 60.6374 90.6559 60.5864C92.9538 60.5344 94.4619 60.9046 95.271 61.561C95.6354 61.8567 96.0756 62.4785 96.546 63.5306C97.0062 64.5597 97.455 65.9068 97.8855 67.5451C98.746 70.8196 99.5087 75.1594 100.158 80.2301C101.455 90.3652 102.286 103.318 102.562 116.281C102.838 129.246 102.559 142.189 101.644 152.308C101.186 157.372 100.571 161.697 99.7967 164.953C99.4093 166.582 98.9889 167.913 98.5426 168.924C98.0859 169.958 97.65 170.544 97.2916 170.815C96.4162 171.477 95.3574 171.71 94.0113 171.481C92.636 171.248 91.0081 170.537 89.1128 169.356C85.3219 166.996 80.7287 162.933 75.338 157.821C73.1904 155.784 70.9221 153.586 68.537 151.276C59.0026 142.039 47.6022 130.994 34.5801 121.188Z" stroke="black" stroke-width="2"/>
<path d="M34.5801 121.188C26.4751 115.084 20.5677 110.302 16.4826 106.453C12.3676 102.575 10.2168 99.7458 9.4572 97.5636C9.08866 96.5049 9.06386 95.6423 9.26472 94.8937C9.46794 94.1364 9.93004 93.3922 10.705 92.62C12.2939 91.0368 14.9767 89.5424 18.5961 87.749C25.7743 84.1922 43.0113 75.9339 59.5216 69.443C67.7812 66.1959 75.8253 63.4045 82.324 61.8606C85.5761 61.088 88.4023 60.6374 90.6559 60.5864C92.9538 60.5344 94.4619 60.9046 95.271 61.561C95.6354 61.8567 96.0756 62.4785 96.546 63.5306C97.0062 64.5597 97.455 65.9068 97.8855 67.5451C98.746 70.8196 99.5087 75.1594 100.158 80.2301C101.455 90.3652 102.286 103.318 102.562 116.281C102.838 129.246 102.559 142.189 101.644 152.308C101.186 157.372 100.571 161.697 99.7967 164.953C99.4093 166.582 98.9889 167.913 98.5426 168.924C98.0859 169.958 97.65 170.544 97.2916 170.815C96.4162 171.477 95.3574 171.71 94.0113 171.481C92.636 171.248 91.0081 170.537 89.1128 169.356C85.3219 166.996 80.7287 162.933 75.338 157.821C73.1904 155.784 70.9221 153.586 68.537 151.276C59.0026 142.039 47.6022 130.994 34.5801 121.188Z" stroke="black" stroke-width="2"/>
<path d="M103.567 187.427L103.557 187.412L103.546 187.397C101.855 185.135 100.347 183.205 99.0254 181.519C98.9261 181.393 98.8279 181.268 98.7307 181.144C97.5326 179.616 96.5021 178.302 95.627 177.115C93.7254 174.536 92.6546 172.679 92.2461 170.767C91.8436 168.884 92.0577 166.813 93.0312 163.75C94.0101 160.67 95.7128 156.716 98.1801 151.094L98.1904 151.07L98.1997 151.046C99.6292 147.312 100.662 144.06 101.523 141.2C101.771 140.377 102.003 139.591 102.226 138.838C102.782 136.957 103.278 135.278 103.805 133.733C105.261 129.469 106.893 126.423 110.432 123.677C118.122 117.709 128.728 117.329 139.041 120.706C149.34 124.078 159.139 131.138 165.067 139.699C176.899 156.789 173.733 180.445 158.123 192.559C150.293 198.635 139.581 201.625 129.329 200.932C119.079 200.239 109.419 195.879 103.567 187.427Z" fill="#FEFFFF" stroke="black" stroke-width="2"/>
<path d="M122.516 172.029C117.703 165.078 119.851 154.633 126.268 149.653C132.685 144.673 142.74 145.648 147.552 152.599C149.963 156.081 150.878 160.788 150.356 165.285C149.833 169.785 147.889 173.927 144.757 176.358C141.625 178.788 137.31 179.504 133.098 178.677C128.891 177.852 124.926 175.511 122.516 172.029Z" fill="#FC794B" stroke="black" stroke-width="2"/>
</svg>
