<svg width="467" height="460" viewBox="0 0 467 460" fill="none" xmlns="http://www.w3.org/2000/svg">
<path d="M34.5004 217C34.5004 217 33.5 261.5 49 297.5C64.5 333.5 101 380.5 135.5 399.5C152.825 409.041 173.684 417.503 193 421.5C212.149 425.462 229.79 425 239 425C257.5 425 290.688 420.653 316.5 412C340.082 404.094 357 391 357 391" stroke="#000515" stroke-width="4"/>
<path d="M464.5 234.5C464.5 356.213 358.555 457.5 234.5 457.5C110.417 457.5 2 356.186 2 234.5C2 112.709 110.524 2 234.5 2C358.448 2 464.5 112.681 464.5 234.5Z" stroke="#000515" stroke-width="4"/>
<path d="M450.5 221C450.5 221 452 197.5 449 181C446 164.5 442.5 151.5 434.5 132C426.5 112.5 414.5 93.5 414.5 93.5" stroke="#000515" stroke-width="4"/>
<path d="M15.3505 220C15.3505 220 15.1959 196.565 18 180C20.8041 163.435 25.5223 150.076 33 130.5C40.4777 110.924 53 93.5 53 93.5" stroke="#000515" stroke-width="4"/>
</svg>
