<svg width="490" height="479" viewBox="0 0 490 479" fill="none" xmlns="http://www.w3.org/2000/svg">
<ellipse cx="246.5" cy="228.5" rx="177.5" ry="164.5" fill="#C9E8E0"/>
<path d="M292 467.5C273.134 470.209 254.5 470.5 254.5 470.5L255.642 440.677L275.5 438.5L331 426C331 426 359.968 410.156 370 402.5C380.032 394.844 417.012 354.202 427.5 338C437.988 321.798 446.955 299.741 450.5 292.5C454.045 285.259 457.63 260.06 458.5 258C459.37 255.94 464 186 464 186L462.5 197L446.5 141.5L462.5 172L475.022 226C475.022 226 475.808 261.5 475.022 267.5C474.236 273.5 471.562 294.287 469 304C466.543 313.316 461.908 322.493 454.5 339.5C447.092 356.507 440.686 368.321 430.442 380.5C420.198 392.679 405.236 410.274 393.5 418.5C383.32 425.635 379.391 428.434 363 438.5C346.608 448.566 310.865 464.791 292 467.5Z" fill="#99C8C2" stroke="#99CAC6"/>
<path d="M25.4997 271C23.9997 252 23.5 235.5 23.5 235.5H46L47 255.5C47 255.5 46.9993 263.5 49.9997 280.5C53 297.5 67.4997 329.5 74.5 340C81.5003 350.5 101.5 381 117 392.5C132.5 404 147 415 154 419C161 423 193 433.5 195 434.5C197 435.5 252.5 440 252.5 440L253 470C253 470 229 467.645 213 464.5C197.157 461.386 186.246 457.749 176.781 454.594L176.5 454.5C167.36 451.453 159.5 448.478 143 440C126.5 431.522 114.5 423.5 103 412.5C91.4997 401.5 74.0835 382.238 66.6229 370C60.1522 359.386 58.9993 359 49.9997 342C41 325 26.9997 290 25.4997 271Z" fill="#F07440" stroke="#F07440"/>
<path d="M46.5004 231C46.5004 231 45.5 275.5 61 311.5C76.5 347.5 113 394.5 147.5 413.5C164.825 423.041 185.684 431.503 205 435.5C224.149 439.462 241.79 439 251 439C269.5 439 302.688 434.653 328.5 426C352.082 418.094 369 405 369 405" stroke="#000515" stroke-width="4"/>
<path d="M476.5 248.5C476.5 370.213 370.555 471.5 246.5 471.5C122.417 471.5 14 370.186 14 248.5C14 126.709 122.524 16 246.5 16C370.448 16 476.5 126.681 476.5 248.5Z" stroke="#000515" stroke-width="4"/>
<path d="M462.5 235C462.5 235 464 211.5 461 195C458 178.5 454.5 165.5 446.5 146C438.5 126.5 426.5 107.5 426.5 107.5" stroke="#000515" stroke-width="4"/>
<path d="M27.3505 234C27.3505 234 27.1959 210.565 30 194C32.8041 177.435 37.5223 164.076 45 144.5C52.4777 124.924 65 107.5 65 107.5" stroke="#000515" stroke-width="4"/>
<circle cx="25" cy="25" r="23" fill="#F97B40" stroke="black" stroke-width="4"/>
<circle cx="25" cy="454" r="23" fill="#F97B40" stroke="black" stroke-width="4"/>
<circle cx="448" cy="29" r="22" fill="#F97B40" stroke="black" stroke-width="4"/>
<circle cx="20" cy="91" r="8" fill="black" stroke="black" stroke-width="4"/>
<circle cx="463.5" cy="93.5" r="6.5" fill="black" stroke="black" stroke-width="4"/>
<path d="M453 455.5C443.306 465.894 436.943 459.643 432.5 455.5C428.5 446.5 445.306 435.393 455 425C464.693 414.606 467.391 417.359 471.833 421.502C482 429.5 462.694 445.106 453 455.5Z" fill="black"/>
</svg>
