<svg width="545" height="163" viewBox="0 0 545 163" fill="none" xmlns="http://www.w3.org/2000/svg">
<path d="M81.332 8.00012H464.77M464.77 156H81.332" stroke="black" stroke-width="4"/>
<rect x="123" y="9" width="301" height="146" fill="white"/>
<path d="M144.137 48H394.253M394.253 114H144.137" stroke="black" stroke-width="4"/>
<rect x="129.626" y="48.8604" width="42.0896" height="65.2545" transform="rotate(-0.647016 129.626 48.8604)" fill="#00182C"/>
<path d="M170.177 80.6464C170.38 98.6648 173.44 113.239 144.727 113.563C116.014 113.887 92.5724 99.5435 92.3689 81.5251C92.1654 63.5067 115.277 48.637 143.99 48.3128C172.703 47.9885 169.973 62.628 170.177 80.6464Z" fill="#00182C"/>
<rect x="63.5005" y="7.99976" width="59.5" height="147" fill="#00182C"/>
<path d="M113 80.4998C113 121.093 117.093 154 76.5005 154C35.9076 154 3.00049 121.093 3.00049 80.4998C3.00049 39.9068 35.9076 6.99976 76.5005 6.99976C117.093 6.99976 113 39.9068 113 80.4998Z" fill="#00182C"/>
<rect x="482.5" y="155.013" width="59.5" height="147" transform="rotate(-179.987 482.5 155.013)" fill="#00182C"/>
<path d="M433.017 82.502C433.026 41.9091 428.941 9.00112 469.534 9.01027C510.127 9.01943 543.026 41.9339 543.017 82.5269C543.008 123.12 510.093 156.019 469.5 156.01C428.908 156.001 433.008 123.095 433.017 82.502Z" fill="#00182C"/>
<path d="M81.332 156C37.5181 156 2 122.869 2 82C2 41.1309 37.5181 8 81.332 8" stroke="black" stroke-width="4"/>
<path d="M463.668 156C507.482 156 543 122.869 543 82C543 41.1309 507.482 8 463.668 8" stroke="black" stroke-width="4"/>
<path d="M144.136 114C105.572 114 95.1045 100.225 95.1045 82C95.1045 63.7746 105.572 48 144.136 48" stroke="black" stroke-width="4"/>
<path d="M392.049 114C429.511 114 443.835 100.725 443.835 82.5C443.835 64.2746 434.469 48 392.049 48" stroke="black" stroke-width="4"/>
</svg>
