<svg width="546" height="152" viewBox="0 0 546 152" fill="none" xmlns="http://www.w3.org/2000/svg">
<rect x="119" y="3" width="307" height="146" fill="white"/>
<rect x="484.195" y="150.511" width="59.5" height="147" transform="rotate(-179.859 484.195 150.511)" fill="#FF7F4B"/>
<path d="M434.874 77.8889C434.974 37.2961 430.963 4.37901 471.556 4.47924C512.148 4.57947 544.974 37.5677 544.874 78.1605C544.774 118.753 511.785 151.579 471.193 151.479C430.6 151.379 434.774 118.482 434.874 77.8889Z" fill="#FF7F4B"/>
<rect x="61.5073" y="2.67188" width="59.5" height="147" transform="rotate(-0.647016 61.5073 2.67188)" fill="#FF7F4B"/>
<path d="M111.823 74.6083C112.281 115.199 116.746 148.057 76.1553 148.516C35.5649 148.974 2.28837 116.441 1.82999 75.8504C1.3716 35.2601 33.905 1.98351 74.4953 1.52512C115.086 1.06673 111.365 34.0179 111.823 74.6083Z" fill="#FF7F4B"/>
<rect x="130.8" y="41.9191" width="42.0896" height="65.2545" transform="rotate(-0.647016 130.8 41.9191)" fill="#FF7F4B"/>
<path d="M166.176 73.7051C166.38 91.7235 169.44 106.298 140.727 106.622C112.013 106.946 88.5719 92.6022 88.3684 74.5838C88.165 56.5654 111.277 41.6958 139.99 41.3715C168.703 41.0472 165.973 55.6867 166.176 73.7051Z" fill="#FF7F4B"/>
<path d="M81.332 150C37.5181 150 2 116.869 2 76C2 35.1309 37.5181 2 81.332 2" stroke="black" stroke-width="4"/>
<path d="M463.668 150C507.482 150 543 116.869 543 76C543 35.1309 507.482 2 463.668 2" stroke="black" stroke-width="4"/>
<path d="M144.136 108C105.572 108 95.1045 94.2254 95.1045 76C95.1045 57.7746 105.572 42 144.136 42" stroke="black" stroke-width="4"/>
<path d="M144.136 42H394.252M394.252 108H144.136" stroke="black" stroke-width="4"/>
<path d="M81.332 1.99988H464.77M464.77 150H81.332" stroke="black" stroke-width="4"/>
<path d="M392.048 108C429.511 108 443.834 94.7253 443.834 76.4999C443.834 58.2745 434.469 41.9999 392.048 41.9999" stroke="black" stroke-width="4"/>
</svg>
