<svg width="155" height="1173" viewBox="0 0 155 1173" fill="none" xmlns="http://www.w3.org/2000/svg">
<path d="M152.35 75.9333C152.35 116.494 118.734 149.449 77.175 149.449C35.6158 149.449 2 116.494 2 75.9333C2 35.3727 35.6158 2.41797 77.175 2.41797C118.734 2.41797 152.35 35.3727 152.35 75.9333Z" fill="#FE7F4C" stroke="black" stroke-width="4"/>
<circle cx="63.8975" cy="318.246" r="55.2589" fill="#FBA551" stroke="black" stroke-width="4"/>
<circle cx="64.7278" cy="1046.01" r="44.471" fill="white" stroke="black" stroke-width="4"/>
<rect x="21.5762" y="430.274" width="129.455" height="160.989" fill="#FF804B"/>
<circle cx="66.3874" cy="511.598" r="41.4919" fill="white"/>
<circle cx="68.8766" cy="829.427" r="62.2379" fill="white"/>
<circle cx="66.3869" cy="684.205" r="31.1935" fill="#2DD9A7" stroke="black" stroke-width="4"/>
<circle cx="86.3033" cy="1163.85" r="8.29838" fill="black"/>
<circle cx="86.3033" cy="1163.85" r="8.29838" fill="black"/>
<circle cx="86.3033" cy="1163.85" r="8.29838" fill="black"/>
<circle cx="41.4917" cy="1163.85" r="8.29838" fill="black"/>
<circle cx="41.4917" cy="1163.85" r="8.29838" fill="black"/>
<circle cx="41.4917" cy="1163.85" r="8.29838" fill="black"/>
</svg>
