<svg width="88" height="432" viewBox="0 0 88 432" fill="none" xmlns="http://www.w3.org/2000/svg">
<path d="M33.4392 425.333L26.9522 415.826L27.9502 165.628C27.9502 165.628 14.4773 159.624 10.9843 155.62C7.4913 151.617 4.99631 144.612 3.49932 139.107C2.00232 133.603 3.49867 8.5044 3.49867 8.5044C3.49867 8.5044 4.49666 4.50124 6.49265 3.50045L6.4933 3.50013C8.48908 2.49944 10.4842 1.49909 12.4806 3.50045C14.4773 5.50203 14.4773 7.50361 14.4773 7.50361V119.592C14.4773 119.592 17.4719 122.594 20.9642 122.594C24.4566 122.594 26.4532 119.592 26.4532 119.592V12.5076C26.4532 10.1724 27.2516 5.10171 30.4452 3.50045C33.6388 1.89919 35.4352 2.83326 35.9342 3.50045C35.9342 3.50045 38.4298 5.50203 38.4292 7.50361C38.4285 9.50519 38.4292 119.592 38.4292 119.592C38.4292 119.592 39.9268 122.594 43.4192 122.594C46.9115 122.594 49.9061 119.592 49.9061 119.592V7.50361C49.9061 7.50361 50.4058 5.00163 52.4011 3.50045C54.3965 1.99927 57.1915 1.99927 58.3891 1.99927C59.5867 1.99927 61.8821 4.33444 62.8801 5.50203V119.592C62.8801 119.592 65.8747 122.594 68.868 122.594C71.8614 122.594 73.858 119.592 73.858 119.592C74.6897 80.3944 75.2046 7.09623 75.3544 5.50203C75.4438 4.55002 78.848 1.9993 80.8434 1.99927C82.8387 1.99924 85.834 5.50203 85.834 5.50203V139.107C84.836 141.943 81.7422 149.215 77.351 155.62C72.9598 162.025 65.8741 164.961 62.8801 165.628V285.223C61.5494 285.056 58.2893 284.622 55.8941 284.222C53.4989 283.821 51.2368 287.391 50.4051 289.226L47.9101 295.731L50.4051 303.237L55.8941 306.74L62.3811 308.241V416.826C60.3851 419.662 54.7963 426.134 48.4091 429.336C46.0139 430.537 42.0885 429.837 40.4252 429.336L33.4392 425.333Z" fill="black" stroke="black" stroke-width="4"/>
</svg>
