<svg width="88" height="432" viewBox="0 0 88 432" fill="none" xmlns="http://www.w3.org/2000/svg">
<path d="M61.4422 420.303C51.6188 431.405 47.6898 434.937 37.868 420.303C28.0463 405.67 37.868 174.065 31.9737 170.028C26.0794 165.991 15.7665 162.964 10.856 156.908C5.94553 150.852 4.96159 148.331 3.48908 140.257C2.01658 132.182 3.48845 8.55892 3.48845 8.55892C3.48845 8.55892 4.4707 4.52221 6.43521 3.51303L6.43585 3.51271C8.40015 2.50364 10.3638 1.4949 12.3287 3.51303C14.2939 5.53139 14.2939 7.54974 14.2939 7.54974V120.578C14.2939 120.578 17.2413 123.605 20.6786 123.605C24.1158 123.605 26.081 120.578 26.081 120.578V12.5956C26.081 10.2409 26.8668 5.12772 30.01 3.51303C33.1532 1.89835 34.9213 2.84025 35.4124 3.51303C35.4124 3.51303 37.8687 5.53139 37.868 7.54974C37.8674 9.5681 37.868 120.578 37.868 120.578C37.868 120.578 39.342 123.605 42.7793 123.605C46.2166 123.605 49.164 120.578 49.164 120.578V7.54974C49.164 7.54974 49.6557 5.0268 51.6196 3.51303C53.5835 1.99927 56.3344 1.99927 57.5131 1.99927C58.6918 1.99927 60.951 4.35402 61.9333 5.53139V120.578C61.9333 120.578 64.8807 123.605 67.8268 123.605C70.7729 123.605 72.7381 120.578 72.7381 120.578C73.5566 81.0515 74.0634 7.13895 74.2108 5.53139C74.2989 4.5714 77.6494 1.9993 79.6132 1.99927C81.5771 1.99924 84.5252 5.53139 84.5252 5.53139C84.5252 5.53139 87.4711 130.166 84.5252 140.257C81.5792 150.348 81.5792 150.852 76.176 156.908C70.7728 162.964 63.897 167.001 57.5123 170.028C51.1277 173.056 61.4414 289.616 61.4414 289.616C61.4414 289.616 67.8268 409.708 61.4422 420.303Z" fill="white" stroke="black" stroke-width="4"/>
</svg>
