<svg width="88" height="432" viewBox="0 0 88 432" fill="none" xmlns="http://www.w3.org/2000/svg">
<path d="M39.6647 425.333L34.2966 415.826L35.1224 165.628C35.1224 165.628 23.9732 159.624 21.0826 155.62C18.1921 151.617 16.1274 144.612 14.8886 139.107C13.6498 133.603 2.5 39.5296 2.5 39.5296C2.5 39.5296 15.7139 4.50124 17.3657 3.50045L17.3662 3.50013C19.0178 2.49944 20.6688 1.49909 22.3209 3.50045C23.9732 5.50203 17.3657 39.5296 17.3657 39.5296L14.8886 83.0639L23.9732 119.592C23.9732 119.592 26.4513 122.594 29.3413 122.594C32.2313 122.594 33.8836 119.592 33.8836 119.592L26.0373 68.5525L33.8836 12.5076C33.8836 10.1724 34.5443 5.10171 37.1871 3.50045C39.8299 1.89919 41.3165 2.83326 41.7294 3.50045C41.7294 3.50045 47.924 59.045 47.9234 61.0466C47.9229 63.0481 43.7941 119.592 43.7941 119.592C43.7941 119.592 45.0334 122.594 47.9234 122.594C50.8134 122.594 53.2916 119.592 53.2916 119.592V7.50361C53.2916 7.50361 53.7051 5.00163 55.3563 3.50045C57.0075 1.99927 59.3204 1.99927 60.3115 1.99927C61.3025 1.99927 63.202 4.33444 64.0279 5.50203L61.9627 22.5162L66.9179 29.5217L60.3115 61.0466L64.0279 119.592C64.0279 119.592 66.506 122.594 68.9831 122.594C71.4602 122.594 73.1125 119.592 73.1125 119.592C64.0279 83.0639 74.2268 7.09623 74.3507 5.50203C74.4248 4.55002 77.2418 1.9993 78.893 1.99927C80.5442 1.99924 83.0229 5.50203 83.0229 5.50203L78.893 30.5225L85.5 48.0363L79.7189 80.0615L83.0229 139.107C82.1971 141.943 79.6369 149.215 76.003 155.62C72.3692 162.025 66.5055 164.961 64.0279 165.628V285.223C62.9267 285.056 60.2289 284.622 58.2468 284.222C56.2647 283.821 54.3927 287.391 53.7045 289.226L51.6398 295.731L53.7045 303.237L58.2468 306.74L63.615 308.241V416.826C61.9632 419.662 57.3383 426.134 52.0528 429.336C50.0707 430.537 46.8223 429.837 45.4458 429.336L39.6647 425.333Z" fill="#FF0000" stroke="black" stroke-width="4"/>
</svg>
