<svg width="88" height="432" viewBox="0 0 88 432" fill="none" xmlns="http://www.w3.org/2000/svg">
<path d="M60.9578 420.304C51.1344 431.406 47.2054 434.938 37.3836 420.304C27.5619 405.67 37.3836 174.066 31.4893 170.029C25.595 165.992 15.2821 162.965 10.3716 156.909C5.46115 150.853 4.47721 148.331 3.00471 140.257C1.53221 132.183 3.00407 8.55966 3.00407 8.55966C3.00407 8.55966 3.98633 4.52294 5.95084 3.51377L5.95147 3.51344C7.91577 2.50437 9.87943 1.49563 11.8444 3.51377C13.8095 5.53212 13.8095 7.55048 13.8095 7.55048V120.578C13.8095 120.578 16.7569 123.606 20.1942 123.606C23.6314 123.606 25.5966 120.578 25.5966 120.578V12.5964C25.5966 10.2416 26.3824 5.12845 29.5256 3.51377C32.6688 1.89908 34.4369 2.84098 34.928 3.51377C34.928 3.51377 37.3843 5.53212 37.3836 7.55048C37.383 9.56883 37.3836 120.578 37.3836 120.578C37.3836 120.578 38.8577 123.606 42.2949 123.606C45.7322 123.606 48.6796 120.578 48.6796 120.578V7.55048C48.6796 7.55048 49.1714 5.02753 51.1352 3.51377C53.0991 2 55.8501 2 57.0288 2C58.2075 2 60.4667 4.35475 61.4489 5.53212V120.578C61.4489 120.578 64.3963 123.606 67.3424 123.606C70.2886 123.606 72.2537 120.578 72.2537 120.578C73.0723 81.0523 73.579 7.13969 73.7265 5.53212C73.8145 4.57213 77.165 2.00003 79.1289 2C81.0927 1.99997 84.0408 5.53212 84.0408 5.53212C84.0408 5.53212 86.9867 130.166 84.0408 140.257C81.0948 150.348 81.0948 150.853 75.6916 156.909C70.2884 162.965 63.4126 167.001 57.028 170.029C50.6433 173.056 60.957 289.616 60.957 289.616C60.957 289.616 67.3424 409.709 60.9578 420.304Z" fill="white" stroke="black" stroke-width="4"/>
<ellipse cx="31.9649" cy="142.78" rx="5.4024" ry="5.55048" fill="black"/>
<path d="M52.1013 153.472C52.1013 154.865 46.2447 160.031 43.261 160.031C40.2774 160.031 37.8586 158.901 37.8586 157.508C37.8586 156.115 40.2774 154.985 43.261 154.985C46.2447 154.985 52.1013 152.078 52.1013 153.472Z" fill="black"/>
<ellipse cx="53.5745" cy="142.78" rx="5.4024" ry="5.55048" fill="black"/>
</svg>
