<svg width="2395" height="1669" viewBox="0 0 2395 1669" fill="none" xmlns="http://www.w3.org/2000/svg">
<path d="M1146.84 1123.77V1171.9" stroke="black" stroke-width="3"/>
<path d="M221.567 1190.99H315.339M360.15 1190.99H754.323M794.155 1190.99H965.102M1323.59 1190.99H1926.88M1958.42 1190.99H2043.89M221.567 376.087H323.637M351.022 376.087H1928.54M1955.93 376.087H2043.89M2.48952 1H2391.59M0 1667.32H2392.42M337.744 18.4266V147.052M337.744 197.672V362.81M337.744 391.024V1173.56M337.744 1205.93V1375.21M337.744 1624.16V1654.87M1943.48 19.2564V362.81M1943.48 391.854V1172.73M1943.48 1205.1V1653.21M221.567 169.457H299.572M355.171 169.457H395.003M448.943 169.457H492.924M547.693 169.457H2043.89" stroke="black" stroke-width="2"/>
<path d="M221.567 262.399H2041.4" stroke="black" stroke-width="4"/>
<rect x="219.417" y="74.3661" width="1826.62" height="1250.72" rx="61" stroke="black" stroke-width="4"/>
<path d="M2308.61 117.177H2129.37M2129.37 117.177V1350.32M2129.37 117.177V19.2564M2129.37 1350.32H2394.08M2129.37 1350.32C2129.37 1366.71 2129.37 1382.11 2129.37 1396.79M2129.37 1654.87C2129.37 1614.53 2129.37 1580.21 2129.37 1547.82M2129.37 1396.79H2394.08M2129.37 1396.79C2129.37 1423.52 2129.37 1447.86 2129.37 1471.47M2129.37 1471.47H2394.08M2129.37 1471.47C2129.37 1497.08 2129.37 1521.83 2129.37 1547.82M2129.37 1547.82H2394.08M0.830078 1396.79H133.604V1654.04M133.604 1472.3H0.830078M133.604 1548.65H0.830078" stroke="black" stroke-width="2"/>
<path d="M139.413 1319.61V1107.17H1.65992M0.830078 755.323H133.604V588.526H0.830078M137.753 366.959H14.1075" stroke="black" stroke-width="4"/>
<path d="M28.2144 1325.42H59.7482" stroke="black" stroke-width="4"/>
</svg>
