<svg width="250" height="250" viewBox="0 0 250 250" fill="none" xmlns="http://www.w3.org/2000/svg">
<path d="M103.581 67.0746L103.182 67.1716L103.069 67.2368C102.728 67.1222 102.132 66.8206 101.267 66.1806C99.4786 64.8576 97.2844 62.6546 94.8202 59.8806C92.3837 57.1377 89.8089 53.9823 87.2425 50.8339L87.1433 50.7123C84.6284 47.6271 82.1177 44.5471 79.8256 41.9775C75.4539 37.0766 67.7022 31.9439 61.3438 27.7338C60.6539 27.2771 59.9804 26.8312 59.3295 26.3976C55.8719 24.0946 53.0933 22.1745 51.467 20.692C51.2867 20.5276 51.1292 20.3762 50.9926 20.2375C51.2645 20.2187 51.5781 20.2063 51.9355 20.2024C53.3851 20.1865 55.3195 20.3121 57.6387 20.5846C62.2633 21.1282 68.144 22.2229 74.1883 23.7281C80.2341 25.2336 86.354 27.1275 91.4787 29.2444C96.7044 31.403 100.51 33.639 102.347 35.6984C104.641 38.2705 108.461 40.9505 112.056 43.4728C112.436 43.7398 112.814 44.005 113.188 44.2681C117.312 47.1748 121.016 49.9121 123.068 52.5542C124.063 53.836 124.541 54.9392 124.592 55.9071C124.641 56.8272 124.318 57.8472 123.202 59.0034C120.827 61.4634 115.127 64.2672 103.581 67.0746Z" fill="#84A703" stroke="#8FCA15" stroke-width="5"/>
<path d="M117.908 71.1408L117.568 71.0853L117.318 71.1114C117.312 71.1063 117.306 71.1006 117.299 71.0944C117.102 70.9114 116.767 70.4643 116.38 69.5648C115.61 67.7767 114.983 65.0521 114.447 61.676C113.919 58.3458 113.512 54.5979 113.106 50.8441L113.089 50.6912C112.692 47.0215 112.294 43.3412 111.787 40.1915C111.231 36.7396 109.783 32.9114 108.131 29.2282C106.786 26.227 105.241 23.1873 103.828 20.407C103.5 19.761 103.179 19.1289 102.869 18.5146C101.175 15.157 99.8812 12.4475 99.3372 10.5736C99.2883 10.4052 99.2493 10.2554 99.218 10.1229C99.562 10.2272 99.9765 10.3773 100.463 10.5811C101.762 11.1254 103.398 11.9781 105.28 13.1027C109.035 15.3469 113.568 18.5534 118 22.1808C122.436 25.8108 126.699 29.8046 129.952 33.6075C133.29 37.5097 135.246 40.85 135.627 43.2192C135.926 45.0738 136.629 47.0632 137.436 49.0065C138.104 50.6122 138.894 52.3036 139.668 53.9624C139.835 54.3195 140.001 54.675 140.165 55.0278C142.095 59.1809 143.699 62.9211 143.942 65.9255C144.057 67.3546 143.842 68.4271 143.348 69.2478C142.864 70.0518 141.96 70.8668 140.201 71.4933C136.527 72.802 129.733 73.073 117.908 71.1408Z" fill="#84A703" stroke="#8FCA15" stroke-width="5"/>
<path d="M145.913 70.2039L146.23 70.0936L146.485 70.0773C146.49 70.0709 146.495 70.0637 146.5 70.0557C146.645 69.8451 146.857 69.3537 147.005 68.4106C147.299 66.5354 147.214 63.7671 146.871 60.3751C146.532 57.0295 145.969 53.2951 145.403 49.5547L145.38 49.4023C144.826 45.7459 144.271 42.0783 143.958 38.9118C143.616 35.4395 144.05 31.4513 144.72 27.5727C145.267 24.412 145.998 21.1805 146.666 18.2252C146.822 17.5387 146.974 16.867 147.119 16.2146C147.915 12.6474 148.484 9.78288 148.535 7.86078C148.54 7.69028 148.54 7.53921 148.536 7.40595C148.224 7.56583 147.854 7.78335 147.426 8.06637C146.295 8.81516 144.912 9.92167 143.36 11.335C140.261 14.1551 136.65 18.0461 133.244 22.3321C129.837 26.6211 126.69 31.2374 124.484 35.4985C122.22 39.872 121.166 43.4621 121.401 45.8383C121.585 47.7047 121.408 49.7697 121.116 51.8057C120.875 53.488 120.537 55.2748 120.205 57.0266C120.133 57.4036 120.062 57.779 119.992 58.1514C119.17 62.5365 118.561 66.4596 119.095 69.4357C119.348 70.8502 119.833 71.8612 120.525 72.5807C121.205 73.2863 122.299 73.9346 124.184 74.2557C128.119 74.9259 134.839 74.0604 145.913 70.2039Z" fill="#84A703" stroke="#8FCA15" stroke-width="5"/>
<path d="M150.416 70.62L150.806 70.6849L150.951 70.7534C151.264 70.6238 151.819 70.289 152.615 69.5844C154.237 68.148 156.171 65.8057 158.316 62.8666C160.435 59.9619 162.647 56.6361 164.854 53.3151L164.94 53.1853C167.101 49.9326 169.261 46.6821 171.259 43.9553C173.424 41.0025 176.592 37.9698 179.905 35.111C182.601 32.7841 185.497 30.4854 188.154 28.3764C188.773 27.8856 189.378 27.4052 189.965 26.937C193.155 24.3925 195.7 22.2867 197.146 20.7023C197.302 20.5323 197.437 20.3763 197.553 20.2341C197.254 20.2323 196.903 20.2422 196.499 20.267C195.05 20.3558 193.135 20.6206 190.856 21.059C186.31 21.9335 180.575 23.4472 174.723 25.3811C168.87 27.3157 162.988 29.6416 158.124 32.1165C153.158 34.6436 149.641 37.1337 148.06 39.2899C146.051 42.0307 142.531 44.986 139.235 47.7538C138.885 48.0477 138.538 48.3395 138.195 48.6287C134.406 51.8241 131.039 54.8037 129.302 57.5627C128.462 58.8961 128.116 60.0115 128.172 60.9653C128.225 61.8773 128.659 62.8799 129.917 63.9668C132.581 66.2686 138.603 68.6551 150.416 70.62Z" fill="#84A703" stroke="#8FCA15" stroke-width="5"/>
<path d="M121.313 149.488C121.422 190.815 82.9477 249.012 137.349 248.919C161.959 248.877 185.589 229.212 202.815 214.315C223.668 196.281 249.746 152.067 249.668 122.382C249.526 68.174 223.842 41.7215 169.441 41.814C151.68 41.8442 133.606 50.9924 126.438 61.9568C111.651 84.5765 121.24 121.653 121.313 149.488Z" fill="#E00024"/>
<path d="M169.13 76.2896C172.649 79.8828 170.723 82.4654 169.13 95.4033C167.607 107.773 151.635 203.321 151.635 197.641C140.558 192.992 173.291 81.9483 138.633 85.5639C103.974 89.1795 165.611 72.6963 169.13 76.2896Z" fill="#FDABAD"/>
<path d="M185.712 82.202C186.358 83.3632 195.681 76.2528 202.214 73.8984C208.747 71.544 222.45 72.4093 221.803 71.2482C221.157 70.0871 206.407 67.3392 199.874 69.6936C193.341 72.048 185.066 81.0409 185.712 82.202Z" fill="#F8786A"/>
<path d="M191.662 102.069C191.418 103.326 204.049 101.446 211.122 102.334C218.194 103.221 229.102 109.951 229.346 108.694C229.59 107.437 219.076 98.6689 212.004 97.7816C204.931 96.8942 191.906 100.812 191.662 102.069Z" fill="#F8786A"/>
<path d="M191.975 124.613C191.539 125.836 206.637 125.76 214.861 127.658C223.085 129.556 235.133 137.848 235.569 136.625C236.005 135.402 224.664 125.128 216.439 123.229C208.215 121.331 192.411 123.39 191.975 124.613Z" fill="#F8786A"/>
<path d="M180.422 142.173C179.986 143.396 195.084 143.32 203.308 145.219C211.532 147.117 223.581 155.408 224.017 154.185C224.452 152.963 213.111 142.688 204.887 140.79C196.663 138.892 180.858 140.95 180.422 142.173Z" fill="#F8786A"/>
<path d="M176.571 165.931C176.135 167.154 190.198 166.84 197.811 168.597C205.424 170.354 216.442 178.408 216.878 177.185C217.314 175.962 207.002 165.925 199.39 164.168C191.777 162.411 177.007 164.708 176.571 165.931Z" fill="#F8786A"/>
<path d="M162.451 189.689C162.015 190.912 174.15 190.152 180.624 191.647C187.098 193.141 196.196 200.752 196.632 199.529C197.068 198.306 188.677 188.712 182.203 187.218C175.728 185.724 162.887 188.466 162.451 189.689Z" fill="#F8786A"/>
<path d="M128.687 150.519C128.578 191.846 167.052 250.043 112.651 249.951C88.0407 249.909 64.4111 230.244 47.1852 215.347C26.3325 197.313 0.254059 153.098 0.332014 123.413C0.474366 69.2055 26.158 42.753 80.5595 42.8455C99.6088 42.8779 115.53 48.4402 122.588 60.7862C135.684 83.6984 128.757 123.663 128.687 150.519Z" fill="#E00024"/>
<path d="M69.4979 80.8249C68.8517 81.9861 59.529 74.8755 52.9961 72.521C46.4632 70.1665 32.7606 71.0318 33.4068 69.8706C34.053 68.7095 48.8033 65.9616 55.3362 68.3161C61.8691 70.6707 70.1441 79.6638 69.4979 80.8249Z" fill="#F8786A"/>
<path d="M63.548 100.691C63.7915 101.949 51.161 100.069 44.0884 100.956C37.0157 101.844 26.1075 108.573 25.8639 107.316C25.6204 106.059 36.1337 97.2915 43.2063 96.4041C50.279 95.5167 63.3044 99.4344 63.548 100.691Z" fill="#F8786A"/>
<path d="M63.2351 123.236C63.6711 124.459 48.5733 124.383 40.3492 126.281C32.125 128.179 20.0766 136.471 19.6407 135.248C19.2048 134.025 30.5464 123.751 38.7706 121.852C46.9947 119.954 62.7992 122.013 63.2351 123.236Z" fill="#F8786A"/>
<path d="M74.7879 140.796C75.2238 142.019 60.1261 141.943 51.9019 143.841C43.6778 145.739 31.6294 154.031 31.1934 152.808C30.7575 151.585 42.0991 141.311 50.3233 139.412C58.5475 137.514 74.3519 139.573 74.7879 140.796Z" fill="#F8786A"/>
<path d="M78.6384 164.554C79.0743 165.776 65.0115 165.462 57.3986 167.219C49.7856 168.976 38.7675 177.03 38.3316 175.807C37.8957 174.584 48.207 164.547 55.8199 162.79C63.4329 161.033 78.2025 163.331 78.6384 164.554Z" fill="#F8786A"/>
<path d="M92.7583 188.312C93.1942 189.535 81.0597 188.775 74.5856 190.269C68.1115 191.764 59.0131 199.374 58.5772 198.151C58.1413 196.928 66.5329 187.335 73.007 185.841C79.481 184.346 92.3224 187.089 92.7583 188.312Z" fill="#F8786A"/>
<path d="M89.5706 76.4458C86.0516 80.039 87.9773 82.6216 89.5707 95.5596C91.0941 107.93 107.066 203.478 107.066 197.797C118.143 193.148 85.4098 82.1045 120.068 85.7201C154.726 89.3358 93.0895 72.8526 89.5706 76.4458Z" fill="#FDABAD"/>
<path d="M109.504 91.1932C106.744 94.0116 108.255 96.0378 109.506 106.187C110.703 115.891 123.245 190.846 123.244 186.39C142.971 190.442 135.267 172.737 133.439 156.87C131.975 144.167 135.84 132.408 136.542 121.233C137.281 109.445 124.748 97.5647 133.429 98.4712C160.617 101.311 112.264 88.3748 109.504 91.1932Z" fill="#EB191C"/>
<path d="M150.135 91.1681C152.895 93.9869 151.384 96.0128 150.135 106.162C148.94 115.866 136.41 190.819 136.41 186.363C115.999 190.954 124.386 171.69 126.211 155.834C127.627 143.522 126.755 134.315 126.211 123.296C125.6 110.948 135.148 97.5111 126.211 98.4435C99.0226 101.28 147.374 88.3494 150.135 91.1681Z" fill="#EB191C"/>
</svg>
