<svg width="250" height="250" viewBox="0 0 250 250" fill="none" xmlns="http://www.w3.org/2000/svg">
<path d="M128.313 129.369C128.342 142.544 125.82 156.823 123.075 170.357C122.447 173.452 121.81 176.5 121.184 179.495C119.014 189.877 116.976 199.626 115.923 208.508C114.541 220.157 115.138 228.462 118.032 233.69C120.433 238.027 125.314 241.727 137.334 241.703C149.488 241.678 162.486 241.071 174.416 238.405C186.357 235.736 196.649 231.129 203.959 223.542C208.34 218.996 213.099 211.16 217.789 200.831C222.417 190.638 226.749 178.532 230.468 165.894C237.946 140.477 242.705 113.73 242.668 96.8697C242.598 65.0617 236.253 42.7813 224.501 28.5317C212.982 14.5641 195.256 7.11989 169.456 7.17254C154.09 7.2039 138.454 16.9208 132.586 27.6937C126.152 39.5027 124.746 55.7569 125.3 74.309C125.548 82.6112 126.17 91.0815 126.793 99.5609C126.857 100.437 126.921 101.312 126.985 102.188C127.662 111.459 128.295 120.736 128.313 129.369Z" fill="#FCFBDD" stroke="#91CC25" stroke-width="14"/>
<path d="M121.687 130.607C121.658 143.782 124.18 158.061 126.925 171.595C127.553 174.689 128.19 177.737 128.816 180.733C130.986 191.114 133.024 200.864 134.077 209.745C135.459 221.395 134.862 229.7 131.968 234.928C129.567 239.265 124.686 242.965 112.666 242.941C89.7371 242.894 70.809 235.706 55.041 219.343C45.589 209.533 33.5576 187.962 23.8097 163.773C14.079 139.626 7.29606 114.532 7.332 98.1075C7.40161 66.2995 13.7473 44.0191 25.4988 29.7695C37.0176 15.8019 54.7435 8.35769 80.5442 8.41034C98.2311 8.44643 110.849 14.5744 116.268 25.9506C122.076 38.1436 123.678 55.5907 123.575 74.9693C123.524 84.525 123.069 94.2563 122.613 103.731L122.569 104.645C122.132 113.733 121.704 122.622 121.687 130.607Z" fill="#FCFBDD" stroke="#91CC25" stroke-width="14"/>
<path d="M132.455 86.8256C133.032 92.1817 151.811 110.114 142.777 125.663C136.16 137.053 133.693 212.234 133.122 206.929C123.795 185.862 126.784 187.264 121.618 165.625C122.005 150.7 108.038 137.291 105.488 120.125C102.938 102.959 120.678 78.1755 123.163 55.486C125.647 32.7965 131.879 81.4695 132.455 86.8256Z" fill="#DDE5A9"/>
<path d="M121.388 118.276C118.525 124.819 113.919 128.684 111.102 126.908C108.284 125.133 108.322 118.389 111.186 111.845C114.049 105.302 121.473 103.213 121.473 103.213C121.473 103.213 124.252 111.733 121.388 118.276Z" fill="#532D16"/>
<path d="M128.185 117.076C131.049 123.619 135.655 127.484 138.472 125.709C141.29 123.933 141.252 117.189 138.388 110.646C135.524 104.102 128.101 102.013 128.101 102.013C128.101 102.013 125.321 110.533 128.185 117.076Z" fill="#532D16"/>
</svg>
