<svg width="250" height="250" viewBox="0 0 250 250" fill="none" xmlns="http://www.w3.org/2000/svg">
<path d="M121.313 152.394C121.422 192.481 82.9475 248.932 137.349 248.842C161.959 248.801 172.274 238.879 189.5 224.428C210.353 206.936 249.746 154.896 249.668 126.101C249.526 73.5195 223.842 47.8606 169.44 47.9504C151.679 47.9797 133.606 56.8534 126.438 67.4889C111.651 89.4299 121.24 125.394 121.313 152.394Z" fill="#F3680B"/>
<path d="M128.686 153.394C128.578 193.481 167.052 249.932 112.651 249.842C88.0404 249.802 79.2257 238.879 61.9996 224.428C41.1469 206.936 0.25357 155.896 0.331525 127.101C0.473877 74.52 26.1575 48.8611 80.5592 48.9508C99.6085 48.9823 115.53 54.3776 122.587 66.3533C135.684 88.5781 128.757 127.344 128.686 153.394Z" fill="#F3680B"/>
<ellipse cx="126.874" cy="149.863" rx="48.1251" ry="60.6239" fill="#F6AA00"/>
<path d="M167.525 43.6303C144.721 48.4789 123.822 44.9941 120.845 35.8467C117.869 26.6993 133.349 9.34528 156.745 10.5046C180.141 11.6639 203.425 18.2882 203.425 18.2882C203.425 18.2882 190.329 38.7816 167.525 43.6303Z" fill="#335B05"/>
<path d="M135 127.661C135.474 131.219 150.908 143.132 143.483 153.461C138.045 161.028 136.017 210.972 135.548 207.448C127.882 193.453 130.34 194.384 126.093 180.009C126.412 170.094 114.933 161.186 112.837 149.782C110.741 138.379 125.321 121.915 127.363 106.842C129.405 91.7688 134.526 124.103 135 127.661Z" fill="#D34B01"/>
<path d="M132.273 130.908C132.427 133.796 141.714 145.514 137.294 154.444C134.001 161.097 132.425 180.81 132.272 177.95C129.296 169.377 127.044 169.433 125.394 162.427C121.382 154.888 119.867 155.054 118.906 145.775C117.946 136.495 122.785 138.816 125.394 126.752C128.003 114.688 132.118 128.02 132.273 130.908Z" fill="#842B03"/>
<path d="M95.7704 13.1468C93.3881 14.5691 105.223 32.4735 111.53 43.5417C117.838 54.6099 123.806 76.1983 126.188 74.776C128.571 73.3536 126.154 43.1908 119.847 32.1226C113.539 21.0544 107.46 -8.72792 95.7704 13.1468Z" fill="#713206"/>
<path d="M185.471 32.7307C185.66 33.3689 177.704 39.9941 166.935 42.079C156.166 44.1639 142.048 43.9064 141.858 43.2682C141.669 42.6301 155.481 41.8528 166.25 39.7679C177.02 37.683 185.281 32.0925 185.471 32.7307Z" fill="#90CA44"/>
</svg>
