<svg width="251" height="249" viewBox="0 0 251 249" fill="none" xmlns="http://www.w3.org/2000/svg">
<path d="M245.611 124.476C245.611 190.429 191.78 243.952 125.306 243.952C58.8313 243.952 5 190.429 5 124.476C5 58.5224 58.8313 5 125.306 5C191.78 5 245.611 58.5224 245.611 124.476Z" fill="#80C105" stroke="#5E9C0D" stroke-width="10"/>
<circle cx="125.5" cy="123.5" r="112.5" stroke="white" stroke-width="6"/>
<path d="M43.5 49L205 204" stroke="white" stroke-width="6"/>
<path d="M126.28 12.438L127.452 232.884" stroke="white" stroke-width="6"/>
<path d="M206 46L49 201" stroke="white" stroke-width="6"/>
<path d="M12 127H234" stroke="white" stroke-width="6"/>
<path d="M123.5 46.5C123.5 46.5 123.5 90 122.492 119C103.566 102.34 97.8371 96.2438 73.5 72.5C49.1629 48.7562 46.2028 49.0149 46.5002 47.4998C49.045 41.3109 69.334 28.1751 78.5901 23.2122C91.7384 18.5755 109.048 13.459 122.492 14C123.5 20 123.5 46.5 123.5 46.5Z" fill="#4B9F13"/>
<path d="M198.693 124.449C198.693 124.449 160.974 124.294 131 124.449C147.783 105.632 152.098 101.681 176 77.5C199.902 53.3186 205.488 50.1928 207.001 50.5001C213.173 53.0853 222.598 72.7118 227.5 82.0001C233.252 96.3003 235.13 109.616 234.501 123.057C230.501 125.505 198.693 124.449 198.693 124.449Z" fill="#4B9F13"/>
<path d="M54.2562 130.248C54.2562 130.248 88.9365 130.391 116.495 130.248C101.064 147.55 97.0974 151.182 75.1207 173.415C53.144 195.648 48.0086 198.522 46.6174 198.24C40.9425 195.863 31.0075 178.54 26.5002 170C21.2119 156.852 15.9222 142.606 16.5004 130.248C20.1781 127.997 54.2562 130.248 54.2562 130.248Z" fill="#4B9F13"/>
<path d="M129.693 197.181C129.693 197.181 129.719 163.361 129.491 136.486C146.413 151.478 149.968 155.335 171.721 176.694C193.474 198.053 199.771 202.643 199.5 204C197.201 209.542 176.314 220.077 168 224.5C155.195 229.7 143.553 233.024 131.5 232.5C129.693 228.5 129.693 197.181 129.693 197.181Z" fill="#4B9F13"/>
<ellipse cx="107.569" cy="88.9387" rx="2.53058" ry="20.4847" transform="rotate(-30.4718 107.569 88.9387)" fill="#F9F8F8"/>
<ellipse cx="160.951" cy="108.545" rx="2.53058" ry="20.4847" transform="rotate(-120.386 160.951 108.545)" fill="#F9F8F8"/>
<ellipse cx="159.161" cy="143.106" rx="2.53058" ry="20.4847" transform="rotate(-61.1308 159.161 143.106)" fill="#F9F8F8"/>
<ellipse cx="88.1607" cy="110.106" rx="2.53058" ry="20.4847" transform="rotate(-61.1308 88.1607 110.106)" fill="#F9F8F8"/>
<ellipse cx="89.9509" cy="144.545" rx="2.53058" ry="20.4847" transform="rotate(-120.386 89.9509 144.545)" fill="#F9F8F8"/>
<ellipse cx="142.569" cy="159.939" rx="2.53058" ry="20.4847" transform="rotate(-30.4718 142.569 159.939)" fill="#F9F8F8"/>
<ellipse cx="141.795" cy="88.0058" rx="2.53058" ry="20.4847" transform="rotate(21.2867 141.795 88.0058)" fill="#F9F8F8"/>
<ellipse cx="112.795" cy="160.006" rx="2.53058" ry="20.4847" transform="rotate(21.2867 112.795 160.006)" fill="#F9F8F8"/>
</svg>
