<svg width="250" height="250" viewBox="0 0 250 250" fill="none" xmlns="http://www.w3.org/2000/svg">
<path d="M128.313 120.631C128.342 107.456 125.819 93.1769 123.075 79.6433C122.447 76.5485 121.81 73.5007 121.184 70.5055C119.014 60.1236 116.976 50.374 115.923 41.4924C114.541 29.8427 115.138 21.5375 118.032 16.3097C120.433 11.9726 125.314 8.27264 137.334 8.29717C148.266 8.31948 155.627 10.9935 162.257 15.5021C168.543 19.7771 174.205 25.6769 181.662 33.4476C182.567 34.3899 183.498 35.3597 184.459 36.3575C194.28 46.55 208.989 67.4524 221.261 90.3828C227.366 101.789 232.771 113.519 236.629 124.478C240.52 135.528 242.685 145.369 242.668 153.13C242.598 184.938 236.253 207.219 224.501 221.468C212.982 235.436 195.256 242.88 169.456 242.827C154.09 242.796 138.454 233.079 132.586 222.306C126.152 210.497 124.746 194.243 125.3 175.691C125.548 167.389 126.17 158.918 126.793 150.439C126.857 149.563 126.921 148.688 126.985 147.812C127.662 138.541 128.295 129.263 128.313 120.631Z" fill="#ECBB06" stroke="#FBD60B" stroke-width="14"/>
<path d="M121.687 119.393C121.658 106.218 124.181 91.9391 126.925 78.4055C127.553 75.3107 128.19 72.2629 128.816 69.2677C130.986 58.8859 133.024 49.1362 134.077 40.2546C135.459 28.605 134.862 20.2997 131.968 15.0719C129.567 10.7348 124.686 7.03487 112.666 7.05939C101.918 7.08133 95.0307 9.95218 88.7782 14.6788C83.8437 18.4091 79.4807 23.0934 74.0091 28.9679C71.886 31.2473 69.5961 33.7059 67.041 36.3575C57.1543 46.6179 42.0557 67.2758 29.4279 89.8753C23.1399 101.129 17.5589 112.697 13.5713 123.528C9.5498 134.45 7.31512 144.18 7.332 151.893C7.40161 183.701 13.7473 205.981 25.4988 220.231C37.0176 234.198 54.7436 241.642 80.5442 241.59C98.2311 241.554 110.849 235.426 116.268 224.049C122.076 211.856 123.678 194.409 123.575 175.031C123.524 165.475 123.069 155.744 122.613 146.269L122.569 145.355C122.132 136.267 121.704 127.378 121.687 119.393Z" fill="#ECBB06" stroke="#FBD60B" stroke-width="14"/>
<path d="M132.455 163.174C133.032 157.818 151.811 139.886 142.777 124.337C136.16 112.947 133.693 37.7661 133.122 43.0708C123.795 64.1376 126.784 62.7362 121.618 84.375C122.005 99.3 108.038 112.709 105.488 129.875C102.938 147.041 120.678 171.825 123.163 194.514C125.647 217.203 131.879 168.531 132.455 163.174Z" fill="#DDE5A9"/>
<path d="M128.609 119.982C128.635 107.798 126.303 94.6123 123.778 82.1603C123.199 79.3035 122.611 76.4932 122.035 73.7338C120.039 64.1876 118.171 55.251 117.205 47.1069C115.936 36.4031 116.509 28.9194 119.08 24.2761C121.157 20.5236 125.414 17.1711 136.346 17.1934C146.294 17.2137 152.956 19.6412 158.961 23.7251C164.693 27.6229 169.859 33.0049 176.73 40.1647C177.56 41.0295 178.415 41.9202 179.299 42.8375C188.286 52.1643 201.79 71.3463 213.067 92.4163C218.673 102.892 223.633 113.657 227.171 123.706C230.741 133.845 232.71 142.829 232.695 149.878C232.631 179.084 226.801 199.429 216.109 212.394C205.649 225.077 189.525 231.889 165.901 231.841C151.956 231.812 137.766 222.974 132.471 213.253C126.629 202.53 125.327 187.709 125.836 170.652C126.064 163.027 126.635 155.247 127.208 147.444C127.267 146.639 127.327 145.833 127.385 145.028C128.008 136.5 128.591 127.946 128.609 119.982Z" fill="#ECBB06" stroke="#FFFADC" stroke-width="14"/>
<path d="M121.391 118.843C121.364 106.659 123.696 93.4735 126.221 81.0214C126.801 78.1647 127.388 75.3544 127.965 72.5951C129.96 63.0488 131.828 54.1122 132.794 45.968C134.064 35.2642 133.49 27.7805 130.92 23.1372C128.842 19.3847 124.586 16.0323 113.653 16.0546C103.889 16.0745 97.6708 18.6741 92.013 22.9512C87.5147 26.3518 83.5477 30.6108 78.5306 35.9973C76.572 38.1002 74.4533 40.3748 72.0805 42.8373C63.0278 52.2321 49.1642 71.1943 37.5621 91.9582C31.7869 102.294 26.6664 112.91 23.0106 122.839C19.3211 132.859 17.2897 141.739 17.305 148.74C17.3689 177.945 23.1981 198.29 33.8904 211.255C44.3501 223.939 60.4743 230.75 84.0988 230.702C100.262 230.669 111.606 225.075 116.46 214.884C121.744 203.791 123.223 187.853 123.128 170.031C123.081 161.253 122.663 152.312 122.244 143.594L122.203 142.747C121.801 134.391 121.407 126.201 121.391 118.843Z" fill="#ECBB06" stroke="#FFFADC" stroke-width="14"/>
<path d="M131.858 159.119C132.388 154.191 149.665 137.693 141.354 123.389C135.266 112.91 132.996 43.7434 132.471 48.6238C123.89 68.0052 126.64 66.7159 121.887 86.6235C122.244 100.355 109.394 112.69 107.048 128.483C104.702 144.276 121.022 167.077 123.308 187.951C125.594 208.825 131.327 164.046 131.858 159.119Z" fill="#FFFADC"/>
<path d="M89.1154 51.6914C85.9033 49.6464 83.0792 48.4858 82.8074 49.099C82.5357 49.7123 84.9193 51.8672 88.1313 53.9122C91.3434 55.9572 94.4393 56.5046 94.4393 56.5046C94.4393 56.5046 92.3275 53.7364 89.1154 51.6914Z" fill="#FCD94A"/>
<path d="M111.957 44.5627C108.422 43.1473 105.432 42.5292 105.278 43.1822C105.125 43.8351 107.866 45.5118 111.401 46.9272C114.936 48.3426 118.079 48.3077 118.079 48.3077C118.079 48.3077 115.492 45.9781 111.957 44.5627Z" fill="#FCD94A"/>
<path d="M110.957 58.5627C107.422 57.1473 104.432 56.5292 104.278 57.1822C104.125 57.8351 106.866 59.5118 110.401 60.9272C113.936 62.3426 117.079 62.3077 117.079 62.3077C117.079 62.3077 114.492 59.9781 110.957 58.5627Z" fill="#FCD94A"/>
<path d="M101.957 72.5627C98.4219 71.1473 95.4317 70.5292 95.2781 71.1822C95.1245 71.8351 97.8657 73.5118 101.401 74.9272C104.936 76.3426 108.079 76.3077 108.079 76.3077C108.079 76.3077 105.492 73.9781 101.957 72.5627Z" fill="#FCD94A"/>
<path d="M64.9568 102.563C61.4219 101.147 58.4317 100.529 58.2781 101.182C58.1245 101.835 60.8657 103.512 64.4006 104.927C67.9356 106.343 71.0794 106.308 71.0794 106.308C71.0794 106.308 68.4918 103.978 64.9568 102.563Z" fill="#FCD94A"/>
<path d="M84.9568 186.563C81.4219 185.147 78.4317 184.529 78.2781 185.182C78.1245 185.835 80.8657 187.512 84.4006 188.927C87.9356 190.343 91.0794 190.308 91.0794 190.308C91.0794 190.308 88.4918 187.978 84.9568 186.563Z" fill="#FCD94A"/>
<path d="M84.9568 186.563C81.4219 185.147 78.4317 184.529 78.2781 185.182C78.1245 185.835 80.8657 187.512 84.4006 188.927C87.9356 190.343 91.0794 190.308 91.0794 190.308C91.0794 190.308 88.4918 187.978 84.9568 186.563Z" fill="#FCD94A"/>
<path d="M84.9568 186.563C81.4219 185.147 78.4317 184.529 78.2781 185.182C78.1245 185.835 80.8657 187.512 84.4006 188.927C87.9356 190.343 91.0794 190.308 91.0794 190.308C91.0794 190.308 88.4918 187.978 84.9568 186.563Z" fill="#FCD94A"/>
<path d="M84.9568 186.563C81.4219 185.147 78.4317 184.529 78.2781 185.182C78.1245 185.835 80.8657 187.512 84.4006 188.927C87.9356 190.343 91.0794 190.308 91.0794 190.308C91.0794 190.308 88.4918 187.978 84.9568 186.563Z" fill="#FCD94A"/>
<path d="M84.9568 186.563C81.4219 185.147 78.4317 184.529 78.2781 185.182C78.1245 185.835 80.8657 187.512 84.4006 188.927C87.9356 190.343 91.0794 190.308 91.0794 190.308C91.0794 190.308 88.4918 187.978 84.9568 186.563Z" fill="#FCD94A"/>
<path d="M96.554 41.4174C93.6305 38.9777 90.9783 37.4647 90.6303 38.038C90.2822 38.6114 92.3699 41.054 95.2934 43.4938C98.2169 45.9336 101.217 46.8732 101.217 46.8732C101.217 46.8732 99.4775 43.8572 96.554 41.4174Z" fill="#FCD94A"/>
<path d="M112.957 32.5627C109.422 31.1473 106.432 30.5292 106.278 31.1822C106.125 31.8351 108.866 33.5118 112.401 34.9272C115.936 36.3426 119.079 36.3077 119.079 36.3077C119.079 36.3077 116.492 33.9781 112.957 32.5627Z" fill="#FCD94A"/>
<path d="M39.3286 190.856C36.6256 188.174 34.1133 186.439 33.7172 186.98C33.3211 187.521 35.1913 190.135 37.8943 192.816C40.5973 195.498 43.5057 196.692 43.5057 196.692C43.5057 196.692 42.0317 193.538 39.3286 190.856Z" fill="#FCD94A"/>
<path d="M88.9568 214.563C85.4219 213.147 82.4317 212.529 82.2781 213.182C82.1245 213.835 84.8657 215.512 88.4006 216.927C91.9356 218.343 95.0794 218.308 95.0794 218.308C95.0794 218.308 92.4918 215.978 88.9568 214.563Z" fill="#FCD94A"/>
<path d="M58.9568 207.563C55.4219 206.147 52.4317 205.529 52.2781 206.182C52.1245 206.835 54.8657 208.512 58.4006 209.927C61.9356 211.343 65.0794 211.308 65.0794 211.308C65.0794 211.308 62.4918 208.978 58.9568 207.563Z" fill="#FCD94A"/>
<path d="M55.9568 192.563C52.4219 191.147 49.4317 190.529 49.2781 191.182C49.1245 191.835 51.8657 193.512 55.4006 194.927C58.9356 196.343 62.0794 196.308 62.0794 196.308C62.0794 196.308 59.4918 193.978 55.9568 192.563Z" fill="#FCD94A"/>
<path d="M76.9568 199.563C73.4219 198.147 70.4317 197.529 70.2781 198.182C70.1245 198.835 72.8657 200.512 76.4006 201.927C79.9356 203.343 83.0794 203.308 83.0794 203.308C83.0794 203.308 80.4918 200.978 76.9568 199.563Z" fill="#FCD94A"/>
<path d="M99.9568 202.563C96.4219 201.147 93.4317 200.529 93.2781 201.182C93.1245 201.835 95.8657 203.512 99.4006 204.927C102.936 206.343 106.079 206.308 106.079 206.308C106.079 206.308 103.492 203.978 99.9568 202.563Z" fill="#FCD94A"/>
<path d="M58.9568 180.563C55.4219 179.147 52.4317 178.529 52.2781 179.182C52.1245 179.835 54.8657 181.512 58.4006 182.927C61.9356 184.343 65.0794 184.308 65.0794 184.308C65.0794 184.308 62.4918 181.978 58.9568 180.563Z" fill="#FCD94A"/>
<path d="M36.9568 169.563C33.4219 168.147 30.4317 167.529 30.2781 168.182C30.1245 168.835 32.8657 170.512 36.4006 171.927C39.9356 173.343 43.0794 173.308 43.0794 173.308C43.0794 173.308 40.4918 170.978 36.9568 169.563Z" fill="#FCD94A"/>
<path d="M51.9568 159.563C48.4219 158.147 45.4317 157.529 45.2781 158.182C45.1245 158.835 47.8657 160.512 51.4006 161.927C54.9356 163.343 58.0794 163.308 58.0794 163.308C58.0794 163.308 55.4918 160.978 51.9568 159.563Z" fill="#FCD94A"/>
<path d="M73.9568 170.563C70.4219 169.147 67.4317 168.529 67.2781 169.182C67.1245 169.835 69.8657 171.512 73.4006 172.927C76.9356 174.343 80.0794 174.308 80.0794 174.308C80.0794 174.308 77.4918 171.978 73.9568 170.563Z" fill="#FCD94A"/>
<path d="M97.9568 177.563C94.4219 176.147 91.4317 175.529 91.2781 176.182C91.1245 176.835 93.8657 178.512 97.4006 179.927C100.936 181.343 104.079 181.308 104.079 181.308C104.079 181.308 101.492 178.978 97.9568 177.563Z" fill="#FCD94A"/>
<path d="M88.9568 161.563C85.4219 160.147 82.4317 159.529 82.2781 160.182C82.1245 160.835 84.8657 162.512 88.4006 163.927C91.9356 165.343 95.0794 165.308 95.0794 165.308C95.0794 165.308 92.4918 162.978 88.9568 161.563Z" fill="#FCD94A"/>
<path d="M61.9568 148.563C58.4219 147.147 55.4317 146.529 55.2781 147.182C55.1245 147.835 57.8657 149.512 61.4006 150.927C64.9356 152.343 68.0794 152.308 68.0794 152.308C68.0794 152.308 65.4918 149.978 61.9568 148.563Z" fill="#FCD94A"/>
<path d="M37.9568 147.563C34.4219 146.147 31.4317 145.529 31.2781 146.182C31.1245 146.835 33.8657 148.512 37.4006 149.927C40.9356 151.343 44.0794 151.308 44.0794 151.308C44.0794 151.308 41.4918 148.978 37.9568 147.563Z" fill="#FCD94A"/>
<path d="M90.9568 148.563C87.4219 147.147 84.4317 146.529 84.2781 147.182C84.1245 147.835 86.8657 149.512 90.4006 150.927C93.9356 152.343 97.0794 152.308 97.0794 152.308C97.0794 152.308 94.4918 149.978 90.9568 148.563Z" fill="#FCD94A"/>
<path d="M68.9568 136.563C65.4219 135.147 62.4317 134.529 62.2781 135.182C62.1245 135.835 64.8657 137.512 68.4006 138.927C71.9356 140.343 75.0794 140.308 75.0794 140.308C75.0794 140.308 72.4918 137.978 68.9568 136.563Z" fill="#FCD94A"/>
<path d="M43.9568 130.563C40.4219 129.147 37.4317 128.529 37.2781 129.182C37.1245 129.835 39.8657 131.512 43.4006 132.927C46.9356 134.343 50.0794 134.308 50.0794 134.308C50.0794 134.308 47.4918 131.978 43.9568 130.563Z" fill="#FCD94A"/>
<path d="M69.9568 117.563C66.4219 116.147 63.4317 115.529 63.2781 116.182C63.1245 116.835 65.8657 118.512 69.4006 119.927C72.9356 121.343 76.0794 121.308 76.0794 121.308C76.0794 121.308 73.4918 118.978 69.9568 117.563Z" fill="#FCD94A"/>
<path d="M83.9568 132.563C80.4219 131.147 77.4317 130.529 77.2781 131.182C77.1245 131.835 79.8657 133.512 83.4006 134.927C86.9356 136.343 90.0794 136.308 90.0794 136.308C90.0794 136.308 87.4918 133.978 83.9568 132.563Z" fill="#FCD94A"/>
<path d="M49.9568 115.563C46.4219 114.147 43.4317 113.529 43.2781 114.182C43.1245 114.835 45.8657 116.512 49.4006 117.927C52.9356 119.343 56.0794 119.308 56.0794 119.308C56.0794 119.308 53.4918 116.978 49.9568 115.563Z" fill="#FCD94A"/>
<path d="M92.9568 118.563C89.4219 117.147 86.4317 116.529 86.2781 117.182C86.1245 117.835 88.8657 119.512 92.4006 120.927C95.9356 122.343 99.0794 122.308 99.0794 122.308C99.0794 122.308 96.4918 119.978 92.9568 118.563Z" fill="#FCD94A"/>
<path d="M64.9568 90.5627C61.4219 89.1473 58.4317 88.5292 58.2781 89.1822C58.1245 89.8351 60.8657 91.5118 64.4006 92.9272C67.9356 94.3426 71.0794 94.3077 71.0794 94.3077C71.0794 94.3077 68.4918 91.9781 64.9568 90.5627Z" fill="#FCD94A"/>
<path d="M93.9568 102.563C90.4219 101.147 87.4317 100.529 87.2781 101.182C87.1245 101.835 89.8657 103.512 93.4006 104.927C96.9356 106.343 100.079 106.308 100.079 106.308C100.079 106.308 97.4918 103.978 93.9568 102.563Z" fill="#FCD94A"/>
<path d="M76.9568 79.5627C73.4219 78.1473 70.4317 77.5292 70.2781 78.1822C70.1245 78.8351 72.8657 80.5118 76.4006 81.9272C79.9356 83.3426 83.0794 83.3077 83.0794 83.3077C83.0794 83.3077 80.4918 80.9781 76.9568 79.5627Z" fill="#FCD94A"/>
<path d="M101.957 92.5627C98.4219 91.1473 95.4317 90.5292 95.2781 91.1822C95.1245 91.8351 97.8657 93.5118 101.401 94.9272C104.936 96.3426 108.079 96.3077 108.079 96.3077C108.079 96.3077 105.492 93.9781 101.957 92.5627Z" fill="#FCD94A"/>
<path d="M81.9568 65.5627C78.4219 64.1473 75.4317 63.5292 75.2781 64.1822C75.1245 64.8351 77.8657 66.5118 81.4006 67.9272C84.9356 69.3426 88.0794 69.3077 88.0794 69.3077C88.0794 69.3077 85.4918 66.9781 81.9568 65.5627Z" fill="#FCD94A"/>
<path d="M160.922 52.4624C164.101 50.439 166.895 49.2906 167.164 49.8974C167.433 50.5042 165.074 52.6364 161.896 54.6598C158.718 56.6832 155.655 57.2248 155.655 57.2248C155.655 57.2248 157.744 54.4858 160.922 52.4624Z" fill="#FCD94A"/>
<path d="M145.333 60.5356C148.831 59.1352 151.789 58.5236 151.941 59.1697C152.093 59.8157 149.381 61.4747 145.883 62.8752C142.386 64.2756 139.275 64.2411 139.275 64.2411C139.275 64.2411 141.835 61.936 145.333 60.5356Z" fill="#FCD94A"/>
<path d="M148.217 73.1135C151.714 71.713 154.673 71.1015 154.825 71.7475C154.977 72.3936 152.265 74.0526 148.767 75.4531C145.269 76.8535 142.159 76.819 142.159 76.819C142.159 76.819 144.719 74.5139 148.217 73.1135Z" fill="#FCD94A"/>
<path d="M184.826 102.797C188.324 101.396 191.282 100.785 191.434 101.431C191.586 102.077 188.874 103.736 185.377 105.136C181.879 106.537 178.768 106.502 178.768 106.502C178.768 106.502 181.329 104.197 184.826 102.797Z" fill="#FCD94A"/>
<path d="M165.037 185.91C168.535 184.51 171.493 183.898 171.645 184.544C171.797 185.19 169.085 186.849 165.587 188.25C162.09 189.65 158.979 189.616 158.979 189.616C158.979 189.616 161.539 187.311 165.037 185.91Z" fill="#FCD94A"/>
<path d="M165.037 185.91C168.535 184.51 171.493 183.898 171.645 184.544C171.797 185.19 169.085 186.849 165.587 188.25C162.09 189.65 158.979 189.616 158.979 189.616C158.979 189.616 161.539 187.311 165.037 185.91Z" fill="#FCD94A"/>
<path d="M165.037 185.91C168.535 184.51 171.493 183.898 171.645 184.544C171.797 185.19 169.085 186.849 165.587 188.25C162.09 189.65 158.979 189.616 158.979 189.616C158.979 189.616 161.539 187.311 165.037 185.91Z" fill="#FCD94A"/>
<path d="M165.037 185.91C168.535 184.51 171.493 183.898 171.645 184.544C171.797 185.19 169.085 186.849 165.587 188.25C162.09 189.65 158.979 189.616 158.979 189.616C158.979 189.616 161.539 187.311 165.037 185.91Z" fill="#FCD94A"/>
<path d="M165.037 185.91C168.535 184.51 171.493 183.898 171.645 184.544C171.797 185.19 169.085 186.849 165.587 188.25C162.09 189.65 158.979 189.616 158.979 189.616C158.979 189.616 161.539 187.311 165.037 185.91Z" fill="#FCD94A"/>
<path d="M153.563 42.297C156.455 39.883 159.079 38.386 159.424 38.9533C159.768 39.5206 157.703 41.9375 154.81 44.3515C151.917 46.7655 148.949 47.6952 148.949 47.6952C148.949 47.6952 150.67 44.711 153.563 42.297Z" fill="#FCD94A"/>
<path d="M147.333 31.5356C150.831 30.1352 153.789 29.5236 153.941 30.1697C154.093 30.8157 151.381 32.4747 147.883 33.8752C144.386 35.2756 141.275 35.2411 141.275 35.2411C141.275 35.2411 143.835 32.936 147.333 31.5356Z" fill="#FCD94A"/>
<path d="M210.184 190.158C212.858 187.505 215.344 185.788 215.736 186.323C216.128 186.859 214.277 189.444 211.603 192.098C208.928 194.752 206.051 195.933 206.051 195.933C206.051 195.933 207.509 192.812 210.184 190.158Z" fill="#FCD94A"/>
<path d="M161.08 213.615C164.577 212.214 167.536 211.603 167.688 212.249C167.84 212.895 165.128 214.554 161.63 215.954C158.132 217.355 155.022 217.32 155.022 217.32C155.022 217.32 157.582 215.015 161.08 213.615Z" fill="#FCD94A"/>
<path d="M190.763 206.689C194.26 205.288 197.219 204.677 197.371 205.323C197.523 205.969 194.811 207.628 191.313 209.028C187.815 210.429 184.705 210.394 184.705 210.394C184.705 210.394 187.265 208.089 190.763 206.689Z" fill="#FCD94A"/>
<path d="M193.731 191.847C197.229 190.446 200.187 189.835 200.339 190.481C200.491 191.127 197.779 192.786 194.281 194.186C190.784 195.587 187.673 195.552 187.673 195.552C187.673 195.552 190.233 193.247 193.731 191.847Z" fill="#FCD94A"/>
<path d="M172.953 198.773C176.45 197.373 179.409 196.761 179.561 197.407C179.713 198.053 177.001 199.712 173.503 201.113C170.005 202.513 166.895 202.479 166.895 202.479C166.895 202.479 169.455 200.174 172.953 198.773Z" fill="#FCD94A"/>
<path d="M150.196 201.741C153.694 200.341 156.652 199.729 156.804 200.375C156.956 201.022 154.244 202.681 150.746 204.081C147.248 205.481 144.138 205.447 144.138 205.447C144.138 205.447 146.698 203.142 150.196 201.741Z" fill="#FCD94A"/>
<path d="M190.763 179.974C194.26 178.573 197.219 177.962 197.371 178.608C197.523 179.254 194.811 180.913 191.313 182.313C187.815 183.714 184.705 183.679 184.705 183.679C184.705 183.679 187.265 181.374 190.763 179.974Z" fill="#FCD94A"/>
<path d="M212.531 169.09C216.028 167.689 218.987 167.078 219.139 167.724C219.291 168.37 216.579 170.029 213.081 171.429C209.583 172.83 206.473 172.795 206.473 172.795C206.473 172.795 209.033 170.49 212.531 169.09Z" fill="#FCD94A"/>
<path d="M197.689 159.195C201.187 157.795 204.145 157.183 204.297 157.829C204.449 158.475 201.737 160.134 198.239 161.535C194.742 162.935 191.631 162.901 191.631 162.901C191.631 162.901 194.191 160.596 197.689 159.195Z" fill="#FCD94A"/>
<path d="M175.921 170.079C179.419 168.679 182.378 168.067 182.53 168.713C182.682 169.359 179.969 171.018 176.472 172.419C172.974 173.819 169.864 173.785 169.864 173.785C169.864 173.785 172.424 171.48 175.921 170.079Z" fill="#FCD94A"/>
<path d="M152.174 177.005C155.672 175.605 158.631 174.993 158.783 175.639C158.935 176.285 156.222 177.944 152.725 179.345C149.227 180.745 146.116 180.711 146.116 180.711C146.116 180.711 148.677 178.406 152.174 177.005Z" fill="#FCD94A"/>
<path d="M161.08 161.174C164.577 159.774 167.536 159.162 167.688 159.808C167.84 160.454 165.128 162.113 161.63 163.514C158.132 164.914 155.022 164.88 155.022 164.88C155.022 164.88 157.582 162.575 161.08 161.174Z" fill="#FCD94A"/>
<path d="M187.794 148.311C191.292 146.911 194.251 146.299 194.403 146.946C194.555 147.592 191.842 149.251 188.345 150.651C184.847 152.051 181.737 152.017 181.737 152.017C181.737 152.017 184.297 149.712 187.794 148.311Z" fill="#FCD94A"/>
<path d="M211.541 147.322C215.039 145.922 217.997 145.31 218.149 145.956C218.301 146.602 215.589 148.261 212.091 149.662C208.594 151.062 205.483 151.027 205.483 151.027C205.483 151.027 208.043 148.722 211.541 147.322Z" fill="#FCD94A"/>
<path d="M159.101 148.311C162.598 146.911 165.557 146.299 165.709 146.946C165.861 147.592 163.149 149.251 159.651 150.651C156.153 152.051 153.043 152.017 153.043 152.017C153.043 152.017 155.603 149.712 159.101 148.311Z" fill="#FCD94A"/>
<path d="M180.868 136.438C184.366 135.038 187.324 134.426 187.476 135.072C187.628 135.718 184.916 137.377 181.419 138.778C177.921 140.178 174.81 140.143 174.81 140.143C174.81 140.143 177.371 137.838 180.868 136.438Z" fill="#FCD94A"/>
<path d="M205.605 130.501C209.102 129.101 212.061 128.489 212.213 129.135C212.365 129.782 209.653 131.441 206.155 132.841C202.657 134.241 199.547 134.207 199.547 134.207C199.547 134.207 202.107 131.902 205.605 130.501Z" fill="#FCD94A"/>
<path d="M179.879 117.639C183.377 116.238 186.335 115.627 186.487 116.273C186.639 116.919 183.927 118.578 180.429 119.978C176.932 121.379 173.821 121.344 173.821 121.344C173.821 121.344 176.381 119.039 179.879 117.639Z" fill="#FCD94A"/>
<path d="M166.027 132.48C169.525 131.08 172.483 130.468 172.635 131.114C172.787 131.76 170.075 133.419 166.577 134.82C163.08 136.22 159.969 136.186 159.969 136.186C159.969 136.186 162.529 133.881 166.027 132.48Z" fill="#FCD94A"/>
<path d="M199.668 115.66C203.166 114.259 206.124 113.648 206.276 114.294C206.428 114.94 203.716 116.599 200.218 117.999C196.721 119.4 193.61 119.365 193.61 119.365C193.61 119.365 196.17 117.06 199.668 115.66Z" fill="#FCD94A"/>
<path d="M157.122 118.628C160.619 117.228 163.578 116.616 163.73 117.262C163.882 117.908 161.17 119.567 157.672 120.968C154.174 122.368 151.064 122.334 151.064 122.334C151.064 122.334 153.624 120.029 157.122 118.628Z" fill="#FCD94A"/>
<path d="M184.826 90.9235C188.324 89.5231 191.282 88.9116 191.434 89.5576C191.586 90.2037 188.874 91.8627 185.377 93.2631C181.879 94.6635 178.768 94.629 178.768 94.629C178.768 94.629 181.329 92.324 184.826 90.9235Z" fill="#FCD94A"/>
<path d="M156.132 102.797C159.63 101.396 162.589 100.785 162.741 101.431C162.893 102.077 160.18 103.736 156.683 105.136C153.185 106.537 150.074 106.502 150.074 106.502C150.074 106.502 152.635 104.197 156.132 102.797Z" fill="#FCD94A"/>
<path d="M172.953 80.0397C176.45 78.6393 179.409 78.0278 179.561 78.6738C179.713 79.3199 177.001 80.9789 173.503 82.3793C170.005 83.7798 166.895 83.7453 166.895 83.7453C166.895 83.7453 169.455 81.4402 172.953 80.0397Z" fill="#FCD94A"/>
<path d="M148.217 92.9025C151.714 91.5021 154.673 90.8906 154.825 91.5366C154.977 92.1827 152.265 93.8417 148.767 95.2421C145.269 96.6426 142.159 96.608 142.159 96.608C142.159 96.608 144.719 94.303 148.217 92.9025Z" fill="#FCD94A"/>
<path d="M168.005 66.1875C171.503 64.787 174.462 64.1755 174.614 64.8215C174.766 65.4676 172.053 67.1266 168.556 68.527C165.058 69.9275 161.948 69.893 161.948 69.893C161.948 69.893 164.508 67.5879 168.005 66.1875Z" fill="#FCD94A"/>
</svg>
