<svg width="250" height="250" viewBox="0 0 250 250" fill="none" xmlns="http://www.w3.org/2000/svg">
<circle cx="125" cy="125" r="120" fill="#FF9D2C" stroke="#E8521E" stroke-width="10"/>
<path d="M237.412 124.02C237.412 186.44 187.152 237.007 125.194 237.007C63.2362 237.007 12.9756 186.44 12.9756 124.02C12.9756 61.6006 63.2362 11.0337 125.194 11.0337C187.152 11.0337 237.412 61.6006 237.412 124.02Z" stroke="#F1ED4B" stroke-width="6"/>
<path d="M43.394 49.2063L204.5 204.859" stroke="#F1ED4B" stroke-width="6"/>
<path d="M125.972 12.4905L127.141 233.865" stroke="#F1ED4B" stroke-width="6"/>
<path d="M205.497 46.1938L48.8804 201.847" stroke="#F1ED4B" stroke-width="6"/>
<path d="M11.9707 127.535H233.429" stroke="#F1ED4B" stroke-width="6"/>
<path d="M123.199 46.6959C123.199 46.6959 123.199 90.3791 122.193 119.501C103.313 102.771 97.5984 96.6492 73.3206 72.8054C49.0429 48.9616 46.09 49.2214 46.3867 47.6999C48.9253 41.4849 69.1648 28.2938 78.3983 23.3101C91.5145 18.6538 108.782 13.5158 122.193 14.059C123.199 20.0843 123.199 46.6959 123.199 46.6959Z" fill="#EB7915"/>
<path d="M198.208 124.973C198.208 124.973 160.581 124.817 130.681 124.973C147.423 106.077 151.727 102.11 175.571 77.8265C199.415 53.5432 204.987 50.4042 206.496 50.7129C212.653 53.309 222.055 73.0182 226.945 82.3455C232.683 96.706 234.556 110.078 233.929 123.575C229.939 126.034 198.208 124.973 198.208 124.973Z" fill="#EB7915"/>
<path d="M54.1237 130.797C54.1237 130.797 88.7195 130.94 116.211 130.797C100.818 148.171 96.8605 151.818 74.9374 174.145C53.0143 196.472 47.8914 199.358 46.5035 199.075C40.8425 196.688 30.9318 179.292 26.4354 170.716C21.16 157.512 15.8833 143.206 16.46 130.797C20.1288 128.536 54.1237 130.797 54.1237 130.797Z" fill="#EB7915"/>
<path d="M129.377 198.012C129.377 198.012 129.403 164.049 129.175 137.061C146.056 152.116 149.602 155.989 171.302 177.438C193.002 198.888 199.284 203.496 199.014 204.859C196.72 210.425 175.884 221.004 167.591 225.446C154.817 230.667 143.203 234.005 131.179 233.479C129.377 229.462 129.377 198.012 129.377 198.012Z" fill="#EB7915"/>
<ellipse cx="2.52875" cy="20.536" rx="2.52875" ry="20.536" transform="matrix(0.8604 -0.50962 0.504614 0.863345 94.7686 72.8723)" fill="#F1ED4B"/>
<ellipse cx="2.53695" cy="20.4697" rx="2.53695" ry="20.4697" transform="matrix(-0.503325 -0.864097 0.861164 -0.508327 144.208 121.599)" fill="#F1ED4B"/>
<ellipse cx="2.53733" cy="20.4666" rx="2.53733" ry="20.4666" transform="matrix(0.480354 -0.877075 0.874362 0.485275 139.659 136.002)" fill="#F1ED4B"/>
<ellipse cx="2.53733" cy="20.4666" rx="2.53733" ry="20.4666" transform="matrix(0.480354 -0.877075 0.874362 0.485275 68.8315 102.864)" fill="#F1ED4B"/>
<ellipse cx="2.53695" cy="20.4697" rx="2.53695" ry="20.4697" transform="matrix(-0.503325 -0.864097 0.861164 -0.508327 73.3809 157.751)" fill="#F1ED4B"/>
<ellipse cx="2.52875" cy="20.536" rx="2.52875" ry="20.536" transform="matrix(0.8604 -0.50962 0.504614 0.863345 129.683 144.171)" fill="#F1ED4B"/>
<ellipse cx="2.52664" cy="20.5531" rx="2.52664" ry="20.5531" transform="matrix(0.930955 0.365133 -0.360945 0.932587 146.515 68.2864)" fill="#F1ED4B"/>
<ellipse cx="2.52664" cy="20.5531" rx="2.52664" ry="20.5531" transform="matrix(0.930955 0.365133 -0.360945 0.932587 117.586 140.59)" fill="#F1ED4B"/>
</svg>
