<svg width="49" height="433" viewBox="0 0 49 433" fill="none" xmlns="http://www.w3.org/2000/svg">
<path d="M15.7388 417.18C15.7388 411.453 22.6009 291.055 22.6009 231.06C22.6009 231.06 3.84471 234.128 5.21714 227.992C6.58958 221.855 37.2402 221.856 37.2402 221.856C38.6209 210.781 10.0942 160.278 5.21727 167.144C0.340364 174.01 1.55772 4.03298 5.21714 3.01056C8.87656 1.98814 9.33445 3.01056 9.33445 3.01056C9.33445 3.01056 12.5368 4.54452 18.9415 13.237C25.3462 21.9294 28.0911 27.0426 32.2084 36.7577C36.3257 46.4728 40.443 61.8124 40.443 61.8124C40.443 61.8124 45.0181 71.5267 46.3902 87.8897C47.7623 104.253 46.3902 417.18 46.3902 417.18C46.3902 417.18 44.5603 423.827 42.2729 425.872C39.9855 427.918 40.9004 427.918 36.7831 429.452C32.6658 430.986 33.5808 430.474 29.921 430.474C26.2611 430.474 15.7388 422.907 15.7388 417.18Z" fill="white" stroke="black" stroke-width="4"/>
</svg>
