<svg width="49" height="432" viewBox="0 0 49 432" fill="none" xmlns="http://www.w3.org/2000/svg">
<path d="M15.7389 416.624C15.7389 410.897 22.601 290.498 22.601 230.503C22.601 230.503 3.84483 233.572 5.21726 227.436C6.58969 221.299 37.2402 221.299 37.2402 221.299C38.6209 210.225 10.0942 214.434 5.21726 221.299C0.340369 228.165 1.55785 3.47684 5.21726 2.45442C8.87667 1.43201 9.33456 2.45442 9.33456 2.45442C9.33456 2.45442 12.5369 3.98839 18.9416 12.6808C25.3462 21.3733 28.0911 26.4865 32.2084 36.2015C36.3257 45.9166 40.443 61.2562 40.443 61.2562C40.443 61.2562 45.0181 70.9706 46.3902 87.3336C47.7623 103.697 46.3902 416.624 46.3902 416.624C46.3902 416.624 44.5603 423.271 42.2729 425.316C39.9855 427.362 40.9005 427.362 36.7832 428.896C32.6659 430.43 33.5808 429.918 29.921 429.918C26.2612 429.918 15.7389 422.351 15.7389 416.624Z" fill="url(#paint0_linear_573_3)" stroke="black" stroke-width="4"/>
<defs>
<linearGradient id="paint0_linear_573_3" x1="25.8033" y1="2.4539" x2="25.8033" y2="429.999" gradientUnits="userSpaceOnUse">
<stop stop-color="#FFFADC"/>
<stop offset="1" stop-color="#ECBB06"/>
</linearGradient>
</defs>
</svg>
