<svg width="103" height="428" viewBox="0 0 103 428" fill="none" xmlns="http://www.w3.org/2000/svg">
<path d="M6.0982 119.099C3.53028 110.706 1.97937 98.6356 2.4645 80.4093C21.3714 63.1141 26.9952 43.0011 31.0321 27.5042C31.1436 27.076 31.2538 26.6522 31.3627 26.2329C33.2749 18.8763 34.8283 12.8993 37.2769 8.63684C38.5398 6.43838 39.9835 4.81083 41.7403 3.72108C43.029 2.92174 44.5622 2.36454 46.4476 2.12767C45.6721 17.6602 49.9542 28.9168 56.5517 37.4199C63.4131 46.2632 72.6746 51.9867 80.8392 56.4972C82.3082 57.3087 83.7274 58.0734 85.0908 58.8081C87.5754 60.1469 89.8748 61.3859 91.9532 62.6268C95.1741 64.5498 97.5461 66.3006 98.9502 68.0966C100.263 69.7752 100.698 71.437 100.134 73.4813C99.5218 75.7033 97.6737 78.5689 93.8095 82.3198C70.52 104.926 63.3713 116.55 62.1577 127.536C61.6258 132.351 62.2548 136.966 62.9442 142.025C63.0283 142.642 63.1133 143.266 63.1971 143.897C63.9762 149.76 64.7203 156.594 64.0744 165.758C61.4543 202.936 62.7771 246.919 64.0139 288.044C64.5055 304.392 64.9836 320.288 65.195 335.126C65.5677 361.287 65.1129 384.111 62.4996 400.485C61.1906 408.687 59.3652 415.092 56.9435 419.457C54.5778 423.72 51.8244 425.751 48.6217 425.993C45.5358 425.659 42.8591 423.56 40.5679 419.208C38.2292 414.766 36.4869 408.304 35.2567 400.072C32.8006 383.636 32.4757 360.825 32.9541 334.716C33.2158 320.43 33.7184 305.17 34.2353 289.474C35.6022 247.969 37.0694 203.415 34.4499 165.76C33.798 156.39 31.2192 150.765 27.617 146.484C25.8537 144.388 23.8866 142.665 21.9305 141.028C21.544 140.705 21.1592 140.386 20.7758 140.069C19.1893 138.754 17.6283 137.46 16.0801 135.966C12.3216 132.337 8.68553 127.556 6.0982 119.099Z" fill="#FF0000" stroke="black" stroke-width="4"/>
</svg>
