<svg width="102" height="428" viewBox="0 0 102 428" fill="none" xmlns="http://www.w3.org/2000/svg">
<path d="M2.12863 83.8199L2.12968 83.7874V83.7549C2.12968 60.9315 7.75972 40.3652 16.7571 25.5704C25.7761 10.74 37.9647 2 51.0648 2C64.165 2 76.3535 10.74 85.3726 25.5704C94.37 40.3652 100 60.9315 100 83.7549C100 102.843 98.1962 114.99 95.5317 123.076C92.8949 131.079 89.4097 135.125 85.8917 138.025C84.5112 139.163 83.1397 140.115 81.7261 141.098C81.2723 141.413 80.8141 141.731 80.3499 142.06C78.4811 143.382 76.5823 144.825 74.8705 146.724C71.3714 150.605 68.915 156.089 68.1713 165.746C65.3074 202.933 66.7534 246.932 68.105 288.06C68.6422 304.406 69.1644 320.298 69.3953 335.128C69.8026 361.29 69.3051 384.099 66.4524 400.456C65.0238 408.648 63.0333 415.037 60.394 419.39C57.8215 423.633 54.768 425.751 51.094 425.995C47.5518 425.655 44.5885 423.47 42.0988 419.143C39.5504 414.713 37.6503 408.267 36.3077 400.045C33.6265 383.625 33.271 360.829 33.7937 334.72C34.0795 320.44 34.6286 305.184 35.1933 289.49C36.6871 247.982 38.291 203.413 35.4277 165.747C34.714 156.36 31.9913 150.947 28.157 147.036C26.2892 145.131 24.2132 143.641 22.1683 142.254C21.7412 141.964 21.3172 141.68 20.8959 141.398C19.2618 140.302 17.6672 139.234 16.0833 137.969C12.2118 134.877 8.47299 130.656 5.81289 122.644C3.12455 114.548 1.52012 102.524 2.12863 83.8199Z" fill="white" stroke="black" stroke-width="4"/>
<ellipse cx="42.8911" cy="122.499" rx="5.48807" ry="5.5" fill="black"/>
<mask id="path-3-inside-1_578_93" fill="white">
<ellipse cx="51.3728" cy="278.499" rx="8.98048" ry="121.5"/>
</mask>
<path d="M4.35329 278.499C4.35329 311.127 3.37026 340.059 1.87532 360.285C1.10831 370.662 0.301278 377.396 -0.295617 380.811C-0.668521 382.945 -0.575791 381.521 0.513268 378.506C0.933741 377.342 2.7677 372.252 7.01343 366.418C10.0227 362.284 24.2819 343.999 51.3728 343.999V455.999C79.0837 455.999 93.9555 437.29 97.5686 432.326C102.418 425.662 104.847 419.338 105.852 416.555C108.11 410.303 109.331 404.105 110.032 400.091C111.584 391.21 112.712 380.151 113.571 368.541C115.326 344.792 116.353 312.975 116.353 278.499H4.35329ZM51.3728 343.999C78.4637 343.999 92.7229 362.284 95.7322 366.418C99.9779 372.252 101.812 377.342 102.232 378.506C103.321 381.521 103.414 382.945 103.041 380.811C102.444 377.396 101.637 370.662 100.87 360.285C99.3754 340.059 98.3923 311.127 98.3923 278.499H-13.6077C-13.6077 312.975 -12.5804 344.792 -10.825 368.541C-9.96686 380.151 -8.83876 391.21 -7.28683 400.091C-6.58533 404.105 -5.36477 410.303 -3.10649 416.555C-2.10141 419.338 0.3275 425.662 5.17702 432.326C8.79014 437.29 23.662 455.999 51.3728 455.999V343.999ZM98.3923 278.499C98.3923 245.872 99.3754 216.939 100.87 196.714C101.637 186.337 102.444 179.603 103.041 176.187C103.414 174.053 103.321 175.477 102.232 178.492C101.812 179.656 99.9779 184.747 95.7322 190.58C92.7229 194.715 78.4637 212.999 51.3728 212.999V100.999C23.662 100.999 8.79014 119.709 5.17702 124.673C0.3275 131.336 -2.10141 137.661 -3.10649 140.443C-5.36477 146.695 -6.58533 152.893 -7.28683 156.907C-8.83876 165.788 -9.96686 176.848 -10.825 188.458C-12.5804 212.207 -13.6077 244.024 -13.6077 278.499H98.3923ZM51.3728 212.999C24.2819 212.999 10.0227 194.715 7.01343 190.58C2.7677 184.747 0.933741 179.656 0.513268 178.492C-0.575791 175.477 -0.668521 174.053 -0.295617 176.187C0.301278 179.603 1.10831 186.337 1.87532 196.714C3.37026 216.939 4.35329 245.872 4.35329 278.499H116.353C116.353 244.024 115.326 212.207 113.571 188.458C112.712 176.848 111.584 165.788 110.032 156.907C109.331 152.893 108.11 146.695 105.852 140.443C104.847 137.661 102.418 131.336 97.5686 124.673C93.9555 119.709 79.0837 100.999 51.3728 100.999V212.999Z" fill="black" mask="url(#path-3-inside-1_578_93)"/>
<ellipse cx="61.8499" cy="122.499" rx="5.48807" ry="5.5" fill="black"/>
</svg>
