<svg width="102" height="428" viewBox="0 0 102 428" fill="none" xmlns="http://www.w3.org/2000/svg">
<path d="M2.12863 83.8199L2.12968 83.7874V83.7549C2.12968 60.9315 7.75972 40.3652 16.7571 25.5704C25.7761 10.74 37.9647 2 51.0648 2C64.165 2 76.3535 10.74 85.3726 25.5704C94.37 40.3652 100 60.9315 100 83.7549C100 102.843 98.1962 114.99 95.5317 123.076C92.8949 131.079 89.4097 135.125 85.8917 138.025C84.5112 139.163 83.1397 140.115 81.7261 141.098C81.2723 141.413 80.8141 141.731 80.3499 142.06C78.4811 143.382 76.5823 144.825 74.8705 146.724C71.3714 150.605 68.915 156.089 68.1713 165.746C65.3074 202.933 66.7534 246.932 68.105 288.06C68.6422 304.406 69.1644 320.298 69.3953 335.128C69.8026 361.29 69.3051 384.099 66.4524 400.456C65.0238 408.648 63.0333 415.037 60.394 419.39C57.8215 423.633 54.768 425.751 51.094 425.995C47.5518 425.655 44.5885 423.47 42.0988 419.143C39.5504 414.713 37.6503 408.267 36.3077 400.045C33.6265 383.625 33.271 360.829 33.7937 334.72C34.0795 320.44 34.6286 305.184 35.1933 289.49C36.6871 247.982 38.291 203.413 35.4277 165.747C34.714 156.36 31.9913 150.947 28.157 147.036C26.2892 145.131 24.2132 143.641 22.1683 142.254C21.7412 141.964 21.3172 141.68 20.8959 141.398C19.2618 140.302 17.6672 139.234 16.0833 137.969C12.2118 134.877 8.47299 130.656 5.81289 122.644C3.12455 114.548 1.52012 102.524 2.12863 83.8199Z" fill="url(#paint0_linear_573_4)" stroke="black" stroke-width="4"/>
<defs>
<linearGradient id="paint0_linear_573_4" x1="51.0648" y1="0" x2="51.0648" y2="167.51" gradientUnits="userSpaceOnUse">
<stop stop-color="#FEF8D5"/>
<stop offset="1" stop-color="#ECBD12"/>
</linearGradient>
</defs>
</svg>
