<svg width="195" height="130" viewBox="0 0 195 130" fill="none" xmlns="http://www.w3.org/2000/svg">
<path d="M122.128 48.7524C122.696 61.7166 120.09 73.4927 115.521 82.04C110.928 90.6323 104.567 95.629 97.7042 95.9296C90.8415 96.2302 84.0679 91.809 78.7406 83.6513C73.4412 75.5363 69.8146 64.0332 69.2463 51.0691C68.6952 38.4964 74.9538 26.6434 81.5813 17.7781C84.8737 13.374 88.2058 9.77589 90.7148 7.27969C91.9421 6.05863 92.9694 5.10428 93.6945 4.45139C94.4739 5.03837 95.5807 5.89923 96.9102 7.00828C99.628 9.2755 103.262 12.5684 106.927 16.6677C114.305 24.9194 121.577 36.1798 122.128 48.7524Z" fill="white" fill-opacity="0.09" stroke="black" stroke-width="4"/>
<path d="M99.5709 73.9242C99.0095 81.0568 97.8398 86.7828 96.9584 86.7134C96.0771 86.6441 95.8177 80.8057 96.3792 73.6731C96.9406 66.5405 94.3041 28.0616 95.1854 28.1309C96.0668 28.2002 100.132 66.7916 99.5709 73.9242Z" fill="white"/>
<path d="M55.3106 71.269C65.5619 75.3402 73.7732 81.4536 78.7938 87.9467C83.8458 94.4804 85.4516 101.065 83.342 106.374C81.2324 111.683 75.5447 115.371 67.3852 116.657C59.2764 117.936 49.1072 116.75 38.856 112.679C28.9689 108.752 21.9699 99.812 17.3957 91.5797C15.1259 87.4946 13.4946 83.6584 12.4316 80.8439C11.9606 79.5969 11.6024 78.5538 11.3506 77.7826C12.0631 77.3944 13.0396 76.8813 14.2382 76.2974C16.9433 74.9794 20.7631 73.3081 25.2182 71.8938C34.1961 69.0437 45.4235 67.3423 55.3106 71.269Z" fill="white" fill-opacity="0.09" stroke="black" stroke-width="4"/>
<path d="M67.1352 97.3421C72.4919 100.271 76.541 103.182 76.1791 103.843C75.8172 104.505 71.1813 102.667 65.8246 99.7378C60.4679 96.809 29.5901 85.4169 29.952 84.7553C30.314 84.0938 61.7784 94.4133 67.1352 97.3421Z" fill="white"/>
<path d="M139.235 71.269C128.984 75.3402 120.772 81.4536 115.752 87.9467C110.7 94.4804 109.094 101.065 111.203 106.374C113.313 111.683 119.001 115.371 127.16 116.657C135.269 117.936 145.438 116.75 155.689 112.679C165.577 108.752 172.575 99.812 177.15 91.5797C179.42 87.4946 181.051 83.6584 182.114 80.8439C182.585 79.5969 182.943 78.5538 183.195 77.7826C182.482 77.3944 181.506 76.8813 180.307 76.2974C177.602 74.9794 173.782 73.3081 169.327 71.8938C160.349 69.0437 149.122 67.3423 139.235 71.269Z" fill="white" fill-opacity="0.09" stroke="black" stroke-width="4"/>
<path d="M127.41 97.3421C122.054 100.271 118.004 103.182 118.366 103.843C118.728 104.505 123.364 102.667 128.721 99.7378C134.078 96.809 164.955 85.4169 164.593 84.7553C164.231 84.0938 132.767 94.4133 127.41 97.3421Z" fill="white"/>
</svg>
