<svg width="291" height="193" viewBox="0 0 291 193" fill="none" xmlns="http://www.w3.org/2000/svg">
<path d="M183.669 71.911C184.525 91.4491 180.602 109.246 173.67 122.213C166.714 135.226 156.945 143.041 146.189 143.512C135.433 143.984 125.017 137.052 116.95 124.698C108.91 112.387 103.444 95.0012 102.588 75.463C101.748 56.3164 111.271 38.3572 121.235 25.0294C126.195 18.394 131.213 12.9755 134.991 9.21676C136.879 7.33857 138.454 5.87795 139.553 4.89028C139.748 4.71519 139.928 4.55499 140.092 4.40999C140.268 4.5401 140.461 4.68396 140.67 4.84135C141.851 5.72913 143.548 7.04642 145.593 8.75232C149.685 12.1663 155.158 17.1252 160.68 23.3014C171.772 35.7068 182.83 52.7643 183.669 71.911Z" fill="#E00024" stroke="#FDABAD" stroke-width="4"/>
<path d="M148.937 109.606C148.097 120.275 146.348 128.84 145.029 128.736C143.711 128.632 143.323 119.899 144.163 109.23C145.003 98.5616 141.059 41.005 142.377 41.1087C143.696 41.2124 149.777 98.9372 148.937 109.606Z" fill="#FDABAD"/>
<path d="M83.0995 104.715C98.5694 110.858 111.008 120.1 118.644 129.976C126.311 139.892 128.921 150.114 125.584 158.512C122.247 166.91 113.333 172.554 100.949 174.507C88.6157 176.452 73.2243 174.642 57.7544 168.498C42.6486 162.498 32.0364 148.886 25.1536 136.498C21.7294 130.336 19.27 124.552 17.6674 120.309C16.8667 118.189 16.2814 116.458 15.8978 115.262C15.8577 115.137 15.8199 115.018 15.7843 114.905C15.8877 114.847 15.9969 114.787 16.1117 114.723C17.2116 114.117 18.8255 113.259 20.8631 112.266C24.9413 110.279 30.7006 107.759 37.4213 105.626C50.9305 101.337 67.9937 98.7153 83.0995 104.715Z" fill="#E00024" stroke="#FDABAD" stroke-width="4"/>
<path d="M100.42 144.636C108.433 149.017 114.489 153.37 113.948 154.36C113.407 155.349 106.472 152.6 98.4596 148.219C90.4471 143.838 44.2603 126.798 44.8017 125.809C45.343 124.819 92.4074 140.255 100.42 144.636Z" fill="#FDABAD"/>
<path d="M207.9 104.715C192.431 110.858 179.992 120.1 172.356 129.976C164.689 139.892 162.079 150.114 165.416 158.512C168.753 166.91 177.667 172.554 190.051 174.507C202.384 176.452 217.776 174.642 233.246 168.498C248.351 162.498 258.964 148.886 265.846 136.498C269.271 130.336 271.73 124.552 273.333 120.309C274.133 118.189 274.719 116.458 275.102 115.262C275.142 115.137 275.18 115.018 275.216 114.905C275.112 114.847 275.003 114.787 274.888 114.723C273.788 114.117 272.174 113.259 270.137 112.266C266.059 110.279 260.299 107.759 253.579 105.626C240.07 101.337 223.006 98.7153 207.9 104.715Z" fill="#E00024" stroke="#FDABAD" stroke-width="4"/>
<path d="M190.58 144.636C182.567 149.017 176.511 153.37 177.052 154.36C177.593 155.349 184.528 152.6 192.54 148.219C200.553 143.838 246.74 126.798 246.198 125.809C245.657 124.819 198.593 140.255 190.58 144.636Z" fill="#FDABAD"/>
</svg>
