<svg width="291" height="194" viewBox="0 0 291 194" fill="none" xmlns="http://www.w3.org/2000/svg">
<path d="M183.669 72.5936C184.525 92.1317 180.602 109.929 173.67 122.896C166.714 135.908 156.945 143.724 146.189 144.195C135.433 144.666 125.017 137.735 116.95 125.381C108.91 113.069 103.444 95.6838 102.588 76.1456C101.748 56.999 111.271 39.0399 121.235 25.712C126.195 19.0767 131.213 13.6582 134.991 9.89937C136.879 8.02119 138.454 6.56057 139.553 5.5729C139.748 5.39781 139.928 5.23761 140.092 5.09261C140.268 5.22272 140.461 5.36658 140.67 5.52396C141.851 6.41174 143.548 7.72903 145.593 9.43493C149.685 12.8489 155.158 17.8078 160.68 23.984C171.772 36.3894 182.83 53.447 183.669 72.5936Z" fill="#4B9F13" stroke="#F9F8F8" stroke-width="4"/>
<path d="M148.937 110.289C148.097 120.958 146.348 129.522 145.029 129.419C143.711 129.315 143.323 120.582 144.163 109.913C145.003 99.2442 141.059 41.6876 142.377 41.7913C143.696 41.895 149.777 99.6198 148.937 110.289Z" fill="#F9F8F8"/>
<path d="M83.0995 105.397C98.5694 111.541 111.008 120.783 118.644 130.659C126.311 140.575 128.921 150.796 125.584 159.194C122.247 167.592 113.333 173.237 100.949 175.19C88.6157 177.135 73.2243 175.324 57.7544 169.18C42.6486 163.181 32.0364 149.568 25.1536 137.181C21.7294 131.018 19.27 125.234 17.6674 120.991C16.8667 118.871 16.2814 117.14 15.8978 115.944C15.8577 115.819 15.8199 115.7 15.7843 115.588C15.8877 115.53 15.9969 115.469 16.1117 115.406C17.2116 114.799 18.8255 113.942 20.8631 112.949C24.9413 110.962 30.7006 108.442 37.4213 106.308C50.9305 102.02 67.9937 99.3979 83.0995 105.397Z" fill="#4B9F13" stroke="#F9F8F8" stroke-width="4"/>
<path d="M100.42 145.318C108.433 149.699 114.489 154.053 113.948 155.043C113.407 156.032 106.472 153.283 98.4596 148.902C90.4471 144.521 44.2603 127.481 44.8017 126.491C45.343 125.502 92.4074 140.938 100.42 145.318Z" fill="#F9F8F8"/>
<path d="M207.9 105.397C192.431 111.541 179.992 120.783 172.356 130.659C164.689 140.575 162.079 150.796 165.416 159.194C168.753 167.592 177.667 173.237 190.051 175.19C202.384 177.135 217.776 175.324 233.246 169.18C248.351 163.181 258.964 149.568 265.846 137.181C269.271 131.018 271.73 125.234 273.333 120.991C274.133 118.871 274.719 117.14 275.102 115.944C275.142 115.819 275.18 115.7 275.216 115.588C275.112 115.53 275.003 115.469 274.888 115.406C273.788 114.799 272.174 113.942 270.137 112.949C266.059 110.962 260.299 108.442 253.579 106.308C240.07 102.02 223.006 99.3979 207.9 105.397Z" fill="#4B9F13" stroke="#F9F8F8" stroke-width="4"/>
<path d="M190.58 145.318C182.567 149.699 176.511 154.053 177.052 155.043C177.593 156.032 184.528 153.283 192.54 148.902C200.553 144.521 246.74 127.481 246.198 126.491C245.657 125.502 198.593 140.938 190.58 145.318Z" fill="#F9F8F8"/>
</svg>
